<svg width="834" height="806" viewBox="0 0 834 806" fill="none" xmlns="http://www.w3.org/2000/svg">
<path d="M834 0.986328H827.098V25.042H834V25.8164H827.098V49.8779H834V50.6523H827.098V71.7246H834V72.498H827.098V96.5557H834V97.3301H827.098V121.377H834V122.151H827.098V146.213H834V146.987H827.098V171.043H834V171.816H827.098V195.879H834V196.653H827.172V220.706H834V221.48H827.172V245.539H834V246.313H827.173V267.383H834V268.156H827.173V292.211H834V292.985H827.173V317.029H834V317.804H827.173V341.862H834V342.637H827.173V366.689H834V367.463H827.173V391.387H834V392.296H827.173V414.039H827.098V416.216H834V416.99H827.098V441.052H834V441.826H827.098V462.897H834V463.672H827.098V487.729H834V488.503H827.098V512.551H834V513.324H827.098V537.387H834V538.161H827.098V562.217H834V562.99H827.098V587.053H834V587.827H827.172V611.88H834V612.653H827.172V636.713H834V637.486H827.173V658.556H834V659.33H827.173V683.385H834V684.158H827.173V708.203H834V708.977H827.173V733.036H834V733.811H827.173V757.863H834V758.637H827.173V782.695H834V783.47H827.173V805.212H826.399V783.47H802.364V805.212H801.591V783.47H777.556V805.212H776.782V783.47H752.848V805.213H752.074V805.212H751.974V783.47H728.039V805.213H727.266V783.47H703.23V805.213H702.457V783.47H678.422V805.213H677.648V783.47H654.966V805.212H654.192V783.47H630.157V805.212H629.384V783.47H605.36V805.212H604.587V783.47H580.553V805.212H579.779V783.47H555.743V805.212H554.971V783.47H531.036V805.213H530.263V805.212H530.161V783.47H506.228V805.213H505.454V783.47H481.419V805.213H480.646V783.47H456.609V805.213H455.837V783.47H433.153V805.212H432.38V783.47H408.346V805.212H407.572V783.47H383.549V805.212H382.775V783.47H358.74V805.212H357.967V783.47H333.932V805.212H333.158V783.47H309.224V805.213H308.45V805.212H308.35V783.47H284.415V805.213H283.642V783.47H259.606V805.213H258.833V783.47H234.798V805.213H234.024V783.47H211.342V805.212H210.568V783.47H186.533V805.212H185.76V783.47H161.736V805.212H160.963V783.47H136.929V805.212H136.155V783.47H112.119V805.212H111.347V783.47H87.4121V805.213H86.6387V805.212H86.5371V783.47H62.6035V805.213H61.8301V783.47H37.7949V805.213H37.0215V783.47H12.9863V805.213H12.2129V783.47H0V782.695H11.2656V782.696H12.2129V758.637H0V757.863H12.2129V733.811H0V733.036H12.2129V708.978H0V708.203H12.2129V684.159H0V683.385H12.2129V659.33H0V658.556H11.2656V658.557H12.2129V637.486H0V636.713H12.2129V612.653H0V611.88H12.2129V587.827H0V587.053H12.2822V562.99H0V562.217H12.2822V538.161H0V537.387H12.2822V513.325H0V512.551H12.2822V488.504H0V487.729H12.2822V463.672H0V462.897H11.3359V462.898H12.2822V441.826H0V441.052H12.2822V416.99H0V416.216H12.2822V414.039H12.2129V392.296H0V391.387H12.2129V367.463H0V366.689H12.2129V342.637H0V341.862H12.2129V317.804H0V317.029H12.2129V292.985H0V292.211H11.2656V292.212H12.2129V268.156H0V267.383H12.2129V246.313H0V245.539H12.2129V221.48H0V220.706H12.2129V196.653H0V195.879H12.2822V171.817H0V171.043H12.2822V146.987H0V146.213H12.2822V122.151H0V121.377H12.2822V97.3301H0V96.5557H12.2822V72.498H0V71.7246H12.2822V50.6523H0V49.8779H12.2822V25.8164H0V25.042H12.2822V0.986328H0V0.212891H834V0.986328ZM12.9863 782.696H37.0215V758.637H12.9863V782.696ZM37.7949 782.696H61.8301V758.637H37.7949V782.696ZM62.6035 782.696H64.8115V782.695H86.5371V758.637H62.6035V782.696ZM211.342 782.695H233.078V782.696H234.024V758.637H211.342V782.695ZM234.798 782.696H258.833V758.637H234.798V782.696ZM259.606 782.696H283.642V758.637H259.606V782.696ZM284.415 782.696H286.624V782.695H308.35V758.637H284.415V782.696ZM433.153 782.695H454.89V782.696H455.837V758.637H433.153V782.695ZM456.609 782.696H480.646V758.637H456.609V782.696ZM481.419 782.696H505.454V758.637H481.419V782.696ZM506.228 782.696H508.436V782.695H530.161V758.637H506.228V782.696ZM654.966 782.695H676.702V782.696H677.648V758.637H654.966V782.695ZM678.422 782.696H702.457V758.637H678.422V782.696ZM703.23 782.696H727.266V758.637H703.23V782.696ZM728.039 782.696H730.248V782.695H751.974V758.637H728.039V782.696ZM87.4121 782.695H111.347V758.637H87.4121V782.695ZM112.119 782.695H136.155V758.637H112.119V782.695ZM136.929 782.695H160.963V758.637H136.929V782.695ZM161.736 782.695H185.76V758.637H161.736V782.695ZM186.533 782.695H210.568V758.637H186.533V782.695ZM309.224 782.695H333.158V758.637H309.224V782.695ZM333.932 782.695H357.967V758.637H333.932V782.695ZM358.74 782.695H382.775V758.637H358.74V782.695ZM383.549 782.695H407.572V758.637H383.549V782.695ZM408.346 782.695H432.38V758.637H408.346V782.695ZM531.036 782.695H554.971V758.637H531.036V782.695ZM555.743 782.695H579.779V758.637H555.743V782.695ZM580.553 782.695H604.587V758.637H580.553V782.695ZM605.36 782.695H629.384V758.637H605.36V782.695ZM630.157 782.695H654.192V758.637H630.157V782.695ZM752.848 782.695H776.782V758.637H752.848V782.695ZM777.556 782.695H801.591V758.637H777.556V782.695ZM802.364 782.695H826.399V758.637H802.364V782.695ZM12.9863 757.863H37.0215V733.811H12.9863V757.863ZM37.7949 757.863H61.8301V733.811H37.7949V757.863ZM62.6035 757.863H86.5371V733.811H62.6035V757.863ZM87.4121 757.863H111.347V733.811H87.4121V757.863ZM112.119 757.863H136.155V733.811H112.119V757.863ZM136.929 757.863H160.963V733.811H136.929V757.863ZM161.736 757.863H185.76V733.811H161.736V757.863ZM186.533 757.863H210.568V733.811H186.533V757.863ZM211.342 757.863H234.024V733.811H211.342V757.863ZM234.798 757.863H258.833V733.811H234.798V757.863ZM259.606 757.863H283.642V733.811H259.606V757.863ZM284.415 757.863H308.35V733.811H284.415V757.863ZM309.224 757.863H333.158V733.811H309.224V757.863ZM333.932 757.863H357.967V733.811H333.932V757.863ZM358.74 757.863H382.775V733.811H358.74V757.863ZM383.549 757.863H407.572V733.811H383.549V757.863ZM408.346 757.863H432.38V733.811H408.346V757.863ZM433.153 757.863H455.837V733.811H433.153V757.863ZM456.609 757.863H480.646V733.811H456.609V757.863ZM481.419 757.863H505.454V733.811H481.419V757.863ZM506.228 757.863H530.161V733.811H506.228V757.863ZM531.036 757.863H554.971V733.811H531.036V757.863ZM555.743 757.863H579.779V733.811H555.743V757.863ZM580.553 757.863H604.587V733.811H580.553V757.863ZM605.36 757.863H629.384V733.811H605.36V757.863ZM630.157 757.863H654.192V733.811H630.157V757.863ZM654.966 757.863H677.648V733.811H654.966V757.863ZM678.422 757.863H702.457V733.811H678.422V757.863ZM703.23 757.863H727.266V733.811H703.23V757.863ZM728.039 757.863H751.974V733.811H728.039V757.863ZM752.848 757.863H776.782V733.811H752.848V757.863ZM777.556 757.863H801.591V733.811H777.556V757.863ZM802.364 757.863H826.399V733.811H802.364V757.863ZM12.9863 733.036H37.0215V708.978H12.9863V733.036ZM37.7949 733.036H61.8301V708.978H37.7949V733.036ZM62.6035 733.036H86.5371V708.978H62.6035V733.036ZM103.752 708.978H87.4121V733.036H111.347V708.977H103.752V708.978ZM112.119 733.036H136.155V708.977H112.119V733.036ZM136.929 733.036H160.963V708.977H136.929V733.036ZM161.736 733.036H185.76V708.977H161.736V733.036ZM186.533 733.036H210.568V708.977H186.533V733.036ZM211.342 733.036H234.024V708.978H212.3V708.977H211.342V733.036ZM234.798 733.036H258.833V708.978H234.798V733.036ZM259.606 733.036H283.642V708.978H259.606V733.036ZM284.415 733.036H308.35V708.978H284.415V733.036ZM325.564 708.978H309.224V733.036H333.158V708.977H325.564V708.978ZM333.932 733.036H357.967V708.977H333.932V733.036ZM358.74 733.036H382.775V708.977H358.74V733.036ZM383.549 733.036H407.572V708.977H383.549V733.036ZM408.346 733.036H432.38V708.977H408.346V733.036ZM433.153 733.036H455.837V708.978H434.112V708.977H433.153V733.036ZM456.609 733.036H480.646V708.978H456.609V733.036ZM481.419 733.036H505.454V708.978H481.419V733.036ZM506.228 733.036H530.161V708.978H506.228V733.036ZM547.376 708.978H531.036V733.036H554.971V708.977H547.376V708.978ZM555.743 733.036H579.779V708.977H555.743V733.036ZM580.553 733.036H604.587V708.977H580.553V733.036ZM605.36 733.036H629.384V708.977H605.36V733.036ZM630.157 733.036H654.192V708.977H630.157V733.036ZM654.966 733.036H677.648V708.978H655.924V708.977H654.966V733.036ZM678.422 733.036H702.457V708.978H678.422V733.036ZM703.23 733.036H727.266V708.978H703.23V733.036ZM728.039 733.036H751.974V708.978H728.039V733.036ZM769.188 708.978H752.848V733.036H776.782V708.977H769.188V708.978ZM777.556 733.036H801.591V708.977H777.556V733.036ZM802.364 733.036H826.399V708.977H802.364V733.036ZM12.9863 708.203H37.0215V684.159H12.9863V708.203ZM37.7949 708.203H61.8301V684.159H37.7949V708.203ZM62.6035 708.203H86.5371V684.159H62.6035V708.203ZM103.752 684.159H87.4121V708.203H111.347V684.158H103.752V684.159ZM112.119 708.203H136.155V684.158H112.119V708.203ZM136.929 708.203H160.963V684.158H136.929V708.203ZM161.736 708.203H185.76V684.158H161.736V708.203ZM186.533 708.203H210.568V684.158H186.533V708.203ZM211.342 708.203H234.024V684.159H212.3V684.158H211.342V708.203ZM234.798 708.203H258.833V684.159H234.798V708.203ZM259.606 708.203H283.642V684.159H259.606V708.203ZM284.415 708.203H308.35V684.159H284.415V708.203ZM325.564 684.159H309.224V708.203H333.158V684.158H325.564V684.159ZM333.932 708.203H357.967V684.158H333.932V708.203ZM358.74 708.203H382.775V684.158H358.74V708.203ZM383.549 708.203H407.572V684.158H383.549V708.203ZM408.346 708.203H432.38V684.158H408.346V708.203ZM433.153 708.203H455.837V684.159H434.112V684.158H433.153V708.203ZM456.609 708.203H480.646V684.159H456.609V708.203ZM481.419 708.203H505.454V684.159H481.419V708.203ZM506.228 708.203H530.161V684.159H506.228V708.203ZM547.376 684.159H531.036V708.203H554.971V684.158H547.376V684.159ZM555.743 708.203H579.779V684.158H555.743V708.203ZM580.553 708.203H604.587V684.158H580.553V708.203ZM605.36 708.203H629.384V684.158H605.36V708.203ZM630.157 708.203H654.192V684.158H630.157V708.203ZM654.966 708.203H677.648V684.159H655.924V684.158H654.966V708.203ZM678.422 708.203H702.457V684.159H678.422V708.203ZM703.23 708.203H727.266V684.159H703.23V708.203ZM728.039 708.203H751.974V684.159H728.039V708.203ZM769.188 684.159H752.848V708.203H776.782V684.158H769.188V684.159ZM777.556 708.203H801.591V684.158H777.556V708.203ZM802.364 708.203H826.399V684.158H802.364V708.203ZM12.9863 683.385H37.0215V659.33H12.9863V683.385ZM37.7949 683.385H61.8301V659.33H37.7949V683.385ZM62.6035 683.385H86.5371V659.33H62.6035V683.385ZM87.4121 683.385H111.347V659.33H87.4121V683.385ZM112.119 683.385H136.155V659.33H112.119V683.385ZM136.929 683.385H160.963V659.33H136.929V683.385ZM161.736 683.385H185.76V659.33H161.736V683.385ZM186.533 683.385H210.568V659.33H186.533V683.385ZM211.342 683.385H234.024V659.33H211.342V683.385ZM234.798 683.385H258.833V659.33H234.798V683.385ZM259.606 683.385H283.642V659.33H259.606V683.385ZM284.415 683.385H308.35V659.33H284.415V683.385ZM309.224 683.385H333.158V659.33H309.224V683.385ZM333.932 683.385H357.967V659.33H333.932V683.385ZM358.74 683.385H382.775V659.33H358.74V683.385ZM383.549 683.385H407.572V659.33H383.549V683.385ZM408.346 683.385H432.38V659.33H408.346V683.385ZM433.153 683.385H455.837V659.33H433.153V683.385ZM456.609 683.385H480.646V659.33H456.609V683.385ZM481.419 683.385H505.454V659.33H481.419V683.385ZM506.228 683.385H530.161V659.33H506.228V683.385ZM531.036 683.385H554.971V659.33H531.036V683.385ZM555.743 683.385H579.779V659.33H555.743V683.385ZM580.553 683.385H604.587V659.33H580.553V683.385ZM605.36 683.385H629.384V659.33H605.36V683.385ZM630.157 683.385H654.192V659.33H630.157V683.385ZM654.966 683.385H677.648V659.33H654.966V683.385ZM678.422 683.385H702.457V659.33H678.422V683.385ZM703.23 683.385H727.266V659.33H703.23V683.385ZM728.039 683.385H751.974V659.33H728.039V683.385ZM752.848 683.385H776.782V659.33H752.848V683.385ZM777.556 683.385H801.591V659.33H777.556V683.385ZM802.364 683.385H826.399V659.33H802.364V683.385ZM12.9863 658.557H37.0215V637.486H12.9863V658.557ZM37.7949 658.557H61.8301V637.486H37.7949V658.557ZM62.6035 658.557H64.8115V658.556H86.5371V637.486H62.6035V658.557ZM211.342 658.556H233.078V658.557H234.024V637.486H211.342V658.556ZM234.798 658.557H258.833V637.486H234.798V658.557ZM259.606 658.557H283.642V637.486H259.606V658.557ZM284.415 658.557H286.624V658.556H308.35V637.486H284.415V658.557ZM433.153 658.556H454.89V658.557H455.837V637.486H433.153V658.556ZM456.609 658.557H480.646V637.486H456.609V658.557ZM481.419 658.557H505.454V637.486H481.419V658.557ZM506.228 658.557H508.436V658.556H530.161V637.486H506.228V658.557ZM654.966 658.556H676.702V658.557H677.648V637.486H654.966V658.556ZM678.422 658.557H702.457V637.486H678.422V658.557ZM703.23 658.557H727.266V637.486H703.23V658.557ZM728.039 658.557H730.248V658.556H751.974V637.486H728.039V658.557ZM87.4121 658.556H111.346V637.486H87.4121V658.556ZM112.119 658.556H136.154V637.486H112.119V658.556ZM136.929 658.556H160.963V637.486H136.929V658.556ZM161.736 658.556H185.76V637.486H161.736V658.556ZM186.533 658.556H210.568V637.486H186.533V658.556ZM309.224 658.556H333.158V637.486H309.224V658.556ZM333.932 658.556H357.967V637.486H333.932V658.556ZM358.74 658.556H382.775V637.486H358.74V658.556ZM383.549 658.556H407.571V637.486H383.549V658.556ZM408.346 658.556H432.38V637.486H408.346V658.556ZM531.036 658.556H554.97V637.486H531.036V658.556ZM555.743 658.556H579.778V637.486H555.743V658.556ZM580.553 658.556H604.587V637.486H580.553V658.556ZM605.36 658.556H629.384V637.486H605.36V658.556ZM630.157 658.556H654.192V637.486H630.157V658.556ZM752.848 658.556H776.782V637.486H752.848V658.556ZM777.556 658.556H801.591V637.486H777.556V658.556ZM802.364 658.556H826.399V637.486H802.364V658.556ZM12.9863 636.713H37.0215V612.653H12.9863V636.713ZM37.7949 636.713H61.8301V612.653H37.7949V636.713ZM62.6035 636.713H86.5371V612.653H62.6035V636.713ZM87.4121 636.713H111.346V612.653H87.4121V636.713ZM112.119 636.713H136.154V612.653H112.119V636.713ZM136.928 636.713H160.963V612.653H136.928V636.713ZM161.736 636.713H185.76V612.653H161.736V636.713ZM186.533 636.713H210.568V612.653H186.533V636.713ZM211.342 636.713H234.024V612.653H211.342V636.713ZM234.798 636.713H258.833V612.653H234.798V636.713ZM259.606 636.713H283.642V612.653H259.606V636.713ZM284.415 636.713H308.35V612.653H284.415V636.713ZM309.224 636.713H333.158V612.653H309.224V636.713ZM333.932 636.713H357.967V612.653H333.932V636.713ZM358.74 636.713H382.775V612.653H358.74V636.713ZM383.548 636.713H407.571V612.653H383.548V636.713ZM408.345 636.713H432.38V612.653H408.345V636.713ZM433.153 636.713H455.837V612.653H433.153V636.713ZM456.609 636.713H480.646V612.653H456.609V636.713ZM481.419 636.713H505.454V612.653H481.419V636.713ZM506.228 636.713H530.161V612.653H506.228V636.713ZM531.036 636.713H554.97V612.653H531.036V636.713ZM555.743 636.713H579.778V612.653H555.743V636.713ZM580.552 636.713H604.587V612.653H580.552V636.713ZM605.36 636.713H629.384V612.653H605.36V636.713ZM630.157 636.713H654.192V612.653H630.157V636.713ZM654.966 636.713H677.648V612.653H654.966V636.713ZM678.422 636.713H702.457V612.653H678.422V636.713ZM703.23 636.713H727.266V612.653H703.23V636.713ZM728.039 636.713H751.974V612.653H728.039V636.713ZM752.848 636.713H776.782V612.653H752.848V636.713ZM777.556 636.713H801.591V612.653H777.556V636.713ZM802.364 636.713H826.399V612.653H802.364V636.713ZM13.0557 609.572H12.9863V611.88H37.0215V587.827H13.0557V609.572ZM37.8594 609.572H37.7949V611.88H61.8301V587.827H37.8594V609.572ZM62.6641 609.572H62.6035V611.88H86.5371V587.827H62.6641V609.572ZM87.4678 609.572H87.4121V611.88H111.346V587.827H87.4678V609.572ZM112.172 609.571H112.119V611.88H136.154V587.827H112.172V609.571ZM136.976 609.571H136.928V611.88H160.963V587.827H136.976V609.571ZM161.779 609.571H161.736V611.88H185.76V587.827H161.779V609.571ZM186.572 609.571H186.533V611.88H210.568V587.827H186.572V609.571ZM211.376 609.571H211.342V611.88H234.024V587.827H211.376V609.571ZM234.828 609.572H234.798V611.88H258.833V587.827H234.828V609.572ZM259.633 609.572H259.606V611.88H283.642V587.827H259.633V609.572ZM284.437 609.572H284.415V611.88H308.35V587.827H284.437V609.572ZM309.24 609.572H309.224V611.88H333.158V587.827H309.24V609.572ZM333.944 609.571H333.932V611.88H357.967V587.827H333.944V609.571ZM358.749 609.571H358.74V611.88H382.775V587.827H358.749V609.571ZM383.553 609.571H383.548V611.88H407.571V587.827H383.553V609.571ZM408.345 611.88H432.38V609.571H432.375V587.827H408.345V611.88ZM433.153 611.88H455.837V609.572H455.827V587.827H433.153V611.88ZM456.609 611.88H480.646V609.572H480.632V587.827H456.609V611.88ZM481.419 611.88H505.454V609.572H505.437V587.827H481.419V611.88ZM506.228 611.88H530.161V609.571H530.14V587.827H506.228V611.88ZM531.036 611.88H554.97V609.571H554.943V587.827H531.036V611.88ZM555.743 611.88H579.778V609.571H579.748V587.827H555.743V611.88ZM580.552 611.88H604.587V609.571H604.552V587.827H580.552V611.88ZM605.36 611.88H629.384V609.571H629.345V587.827H605.36V611.88ZM630.157 611.88H654.192V609.571H654.148V587.827H630.157V611.88ZM654.966 611.88H677.648V609.572H677.601V587.827H654.966V611.88ZM678.422 611.88H702.457V609.572H702.404V587.827H678.422V611.88ZM703.23 611.88H727.266V609.572H727.209V587.827H703.23V611.88ZM728.039 611.88H751.974V609.571H751.912V587.827H728.039V611.88ZM752.848 611.88H776.782V609.571H776.717V587.827H752.848V611.88ZM777.556 611.88H801.591V609.571H801.521V587.827H777.556V611.88ZM802.364 611.88H826.399V609.571H826.324V587.827H802.364V611.88ZM13.0557 587.053H37.0869V562.99H13.0557V587.053ZM37.8594 587.053H61.8906V562.99H37.8594V587.053ZM62.6641 587.053H86.5938V562.99H62.6641V587.053ZM87.4678 587.053H111.398V562.99H87.4678V587.053ZM112.172 587.053H136.203V562.99H112.172V587.053ZM136.976 587.053H161.007V562.99H136.976V587.053ZM161.779 587.053H185.799V562.99H161.779V587.053ZM186.572 587.053H210.603V562.99H186.572V587.053ZM211.376 587.053H234.055V562.99H211.376V587.053ZM234.828 587.053H258.859V562.99H234.828V587.053ZM259.633 587.053H283.663V562.99H259.633V587.053ZM284.437 587.053H308.366V562.99H284.437V587.053ZM309.24 587.053H333.171V562.99H309.24V587.053ZM333.944 587.053H357.976V562.99H333.944V587.053ZM358.749 587.053H382.779V562.99H358.749V587.053ZM383.553 587.053H407.571V562.99H383.553V587.053ZM408.345 587.053H432.375V562.99H408.345V587.053ZM433.148 587.053H455.827V562.99H433.148V587.053ZM456.601 587.053H480.632V562.99H456.601V587.053ZM481.405 587.053H505.437V562.99H481.405V587.053ZM506.209 587.053H530.14V562.99H506.209V587.053ZM531.014 587.053H554.943V562.99H531.014V587.053ZM555.717 587.053H579.748V562.99H555.717V587.053ZM580.521 587.053H604.552V562.99H580.521V587.053ZM605.325 587.053H629.345V562.99H605.325V587.053ZM630.117 587.053H654.148V562.99H630.117V587.053ZM654.921 587.053H677.601V562.99H654.921V587.053ZM678.374 587.053H702.404V562.99H678.374V587.053ZM703.178 587.053H727.209V562.99H703.178V587.053ZM727.982 587.053H751.912V562.99H727.982V587.053ZM752.786 587.053H776.717V562.99H752.786V587.053ZM777.489 587.053H801.521V562.99H777.489V587.053ZM802.294 587.053H826.324V562.99H802.294V587.053ZM13.0557 562.217H37.0869V538.161H13.0557V562.217ZM37.8594 562.217H61.8906V538.161H37.8594V562.217ZM62.6641 562.217H86.5938V538.161H62.6641V562.217ZM87.4678 562.217H111.398V538.161H87.4678V562.217ZM112.172 562.217H136.203V538.161H112.172V562.217ZM136.976 562.217H161.007V538.161H136.976V562.217ZM161.779 562.217H185.799V538.161H161.779V562.217ZM186.572 562.217H210.603V538.161H186.572V562.217ZM211.376 562.217H234.055V538.161H211.376V562.217ZM234.828 562.217H258.859V538.161H234.828V562.217ZM259.633 562.217H283.663V538.161H259.633V562.217ZM284.437 562.217H308.366V538.161H284.437V562.217ZM309.24 562.217H333.171V538.161H309.24V562.217ZM333.944 562.217H357.976V538.161H333.944V562.217ZM358.749 562.217H382.779V538.161H358.749V562.217ZM383.553 562.217H407.571V538.161H383.553V562.217ZM408.345 562.217H432.375V538.161H408.345V562.217ZM433.148 562.217H455.827V538.161H433.148V562.217ZM456.601 562.217H480.632V538.161H456.601V562.217ZM481.405 562.217H505.437V538.161H481.405V562.217ZM506.209 562.217H530.14V538.161H506.209V562.217ZM531.014 562.217H554.943V538.161H531.014V562.217ZM555.717 562.217H579.748V538.161H555.717V562.217ZM580.521 562.217H604.552V538.161H580.521V562.217ZM605.325 562.217H629.345V538.161H605.325V562.217ZM630.117 562.217H654.148V538.161H630.117V562.217ZM654.921 562.217H677.601V538.161H654.921V562.217ZM678.374 562.217H702.404V538.161H678.374V562.217ZM703.178 562.217H727.209V538.161H703.178V562.217ZM727.982 562.217H751.912V538.161H727.982V562.217ZM752.786 562.217H776.717V538.161H752.786V562.217ZM777.489 562.217H801.521V538.161H777.489V562.217ZM802.294 562.217H826.324V538.161H802.294V562.217ZM13.0557 537.387H37.0869V513.325H13.0557V537.387ZM37.8594 537.387H61.8906V513.325H37.8594V537.387ZM62.6641 537.387H86.5938V513.325H62.6641V537.387ZM103.806 513.325H87.4678V537.387H111.398V513.324H103.806V513.325ZM112.172 537.387H136.203V513.324H112.172V537.387ZM136.976 537.387H161.007V513.324H136.976V537.387ZM161.779 537.387H185.799V513.324H161.779V537.387ZM186.572 537.387H210.603V513.324H186.572V537.387ZM211.376 537.387H234.055V513.325H212.334V513.324H211.376V537.387ZM234.828 537.387H258.859V513.325H234.828V537.387ZM259.633 537.387H283.663V513.325H259.633V537.387ZM284.437 537.387H308.366V513.325H284.437V537.387ZM325.578 513.325H309.24V537.387H333.171V513.324H325.578V513.325ZM333.944 537.387H357.976V513.324H333.944V537.387ZM358.749 537.387H382.779V513.324H358.749V537.387ZM383.553 537.387H407.571V513.324H383.553V537.387ZM408.345 537.387H432.375V513.324H408.345V537.387ZM433.148 537.387H455.827V513.325H434.107V513.324H433.148V537.387ZM456.601 537.387H480.632V513.325H456.601V537.387ZM481.405 537.387H505.437V513.325H481.405V537.387ZM506.209 537.387H530.14V513.325H506.209V537.387ZM547.351 513.325H531.014V537.387H554.943V513.324H547.351V513.325ZM555.717 537.387H579.748V513.324H555.717V537.387ZM580.521 537.387H604.552V513.324H580.521V537.387ZM605.325 537.387H629.345V513.324H605.325V537.387ZM630.117 537.387H654.148V513.324H630.117V537.387ZM654.921 537.387H677.601V513.325H655.88V513.324H654.921V537.387ZM678.374 537.387H702.404V513.325H678.374V537.387ZM703.178 537.387H727.209V513.325H703.178V537.387ZM727.982 537.387H751.912V513.325H727.982V537.387ZM769.124 513.325H752.786V537.387H776.717V513.324H769.124V513.325ZM777.489 537.387H801.521V513.324H777.489V537.387ZM802.294 537.387H826.324V513.324H802.294V537.387ZM13.0557 512.551H37.0869V488.504H13.0557V512.551ZM37.8594 512.551H61.8906V488.504H37.8594V512.551ZM62.6641 512.551H86.5938V488.504H62.6641V512.551ZM103.806 488.504H87.4678V512.551H111.398V488.503H103.806V488.504ZM112.172 512.551H136.203V488.503H112.172V512.551ZM136.976 512.551H161.007V488.503H136.976V512.551ZM161.779 512.551H185.799V488.503H161.779V512.551ZM186.572 512.551H210.603V488.503H186.572V512.551ZM211.376 512.551H234.055V488.504H212.334V488.503H211.376V512.551ZM234.828 512.551H258.859V488.504H234.828V512.551ZM259.633 512.551H283.663V488.504H259.633V512.551ZM284.437 512.551H308.366V488.504H284.437V512.551ZM325.578 488.504H309.24V512.551H333.171V488.503H325.578V488.504ZM333.944 512.551H357.976V488.503H333.944V512.551ZM358.749 512.551H382.779V488.503H358.749V512.551ZM383.553 512.551H407.571V488.503H383.553V512.551ZM408.345 512.551H432.375V488.503H408.345V512.551ZM433.148 512.551H455.827V488.504H434.107V488.503H433.148V512.551ZM456.601 512.551H480.632V488.504H456.601V512.551ZM481.405 512.551H505.437V488.504H481.405V512.551ZM506.209 512.551H530.14V488.504H506.209V512.551ZM547.351 488.504H531.014V512.551H554.943V488.503H547.351V488.504ZM555.717 512.551H579.748V488.503H555.717V512.551ZM580.521 512.551H604.552V488.503H580.521V512.551ZM605.325 512.551H629.345V488.503H605.325V512.551ZM630.117 512.551H654.148V488.503H630.117V512.551ZM654.921 512.551H677.601V488.504H655.88V488.503H654.921V512.551ZM678.374 512.551H702.404V488.504H678.374V512.551ZM703.178 512.551H727.209V488.504H703.178V512.551ZM727.982 512.551H751.912V488.504H727.982V512.551ZM769.124 488.504H752.786V512.551H776.717V488.503H769.124V488.504ZM777.489 512.551H801.521V488.503H777.489V512.551ZM802.294 512.551H826.324V488.503H802.294V512.551ZM13.0557 487.729H37.0869V463.672H13.0557V487.729ZM37.8594 487.729H61.8906V463.672H37.8594V487.729ZM62.6641 487.729H86.5938V463.672H62.6641V487.729ZM87.4678 487.729H111.398V463.672H87.4678V487.729ZM112.172 487.729H136.203V463.672H112.172V487.729ZM136.976 487.729H161.007V463.672H136.976V487.729ZM161.779 487.729H185.799V463.672H161.779V487.729ZM186.572 487.729H210.603V463.672H186.572V487.729ZM211.376 487.729H234.055V463.672H211.376V487.729ZM234.828 487.729H258.859V463.672H234.828V487.729ZM259.633 487.729H283.663V463.672H259.633V487.729ZM284.437 487.729H308.366V463.672H284.437V487.729ZM309.24 487.729H333.171V463.672H309.24V487.729ZM333.944 487.729H357.976V463.672H333.944V487.729ZM358.749 487.729H382.779V463.672H358.749V487.729ZM383.553 487.729H407.571V463.672H383.553V487.729ZM408.345 487.729H432.375V463.672H408.345V487.729ZM433.148 487.729H455.827V463.672H433.148V487.729ZM456.601 487.729H480.632V463.672H456.601V487.729ZM481.405 487.729H505.437V463.672H481.405V487.729ZM506.209 487.729H530.14V463.672H506.209V487.729ZM531.014 487.729H554.943V463.672H531.014V487.729ZM555.717 487.729H579.748V463.672H555.717V487.729ZM580.521 487.729H604.552V463.672H580.521V487.729ZM605.325 487.729H629.345V463.672H605.325V487.729ZM630.117 487.729H654.148V463.672H630.117V487.729ZM654.921 487.729H677.601V463.672H654.921V487.729ZM678.374 487.729H702.404V463.672H678.374V487.729ZM703.178 487.729H727.209V463.672H703.178V487.729ZM727.982 487.729H751.912V463.672H727.982V487.729ZM752.786 487.729H776.717V463.672H752.786V487.729ZM777.489 487.729H801.521V463.672H777.489V487.729ZM802.294 487.729H826.324V463.672H802.294V487.729ZM13.0557 462.898H37.0869V441.826H13.0557V462.898ZM37.8594 462.898H61.8906V441.826H37.8594V462.898ZM62.6641 462.898H64.8721V462.897H86.5938V441.826H62.6641V462.898ZM211.376 462.897H233.108V462.898H234.055V441.826H211.376V462.897ZM234.828 462.898H258.859V441.826H234.828V462.898ZM259.633 462.898H283.663V441.826H259.633V462.898ZM284.437 462.898H286.645V462.897H308.366V441.826H284.437V462.898ZM433.148 462.897H454.881V462.898H455.827V441.826H433.148V462.897ZM456.601 462.898H480.632V441.826H456.601V462.898ZM481.405 462.898H505.437V441.826H481.405V462.898ZM506.209 462.898H508.418V462.897H530.139V441.826H506.209V462.898ZM654.921 462.897H676.654V462.898H677.601V441.826H654.921V462.897ZM678.374 462.898H702.404V441.826H678.374V462.898ZM703.178 462.898H727.209V441.826H703.178V462.898ZM727.982 462.898H730.19V462.897H751.912V441.826H727.982V462.898ZM87.4678 462.897H111.398V441.826H87.4678V462.897ZM112.172 462.897H136.202V441.826H112.172V462.897ZM136.976 462.897H161.006V441.826H136.976V462.897ZM161.779 462.897H185.799V441.826H161.779V462.897ZM186.572 462.897H210.603V441.826H186.572V462.897ZM309.24 462.897H333.171V441.826H309.24V462.897ZM333.944 462.897H357.975V441.826H333.944V462.897ZM358.749 462.897H382.779V441.826H358.749V462.897ZM383.553 462.897H407.571V441.826H383.553V462.897ZM408.345 462.897H432.375V441.826H408.345V462.897ZM531.014 462.897H554.943V441.826H531.014V462.897ZM555.717 462.897H579.748V441.826H555.717V462.897ZM580.521 462.897H604.552V441.826H580.521V462.897ZM605.325 462.897H629.344V441.826H605.325V462.897ZM630.117 462.897H654.148V441.826H630.117V462.897ZM752.786 462.897H776.716V441.826H752.786V462.897ZM777.489 462.897H801.521V441.826H777.489V462.897ZM802.294 462.897H826.324V441.826H802.294V462.897ZM13.0557 441.052H37.0869V416.99H13.0557V441.052ZM37.8594 441.052H61.8906V416.99H37.8594V441.052ZM62.6641 441.052H86.5938V416.99H62.6641V441.052ZM87.4678 441.052H111.398V416.99H87.4678V441.052ZM112.171 441.052H136.202V416.99H112.171V441.052ZM136.976 441.052H161.006V416.99H136.976V441.052ZM161.779 441.052H185.799V416.99H161.779V441.052ZM186.572 441.052H210.603V416.99H186.572V441.052ZM211.376 441.052H234.055V416.99H211.376V441.052ZM234.828 441.052H258.859V416.99H234.828V441.052ZM259.633 441.052H283.663V416.99H259.633V441.052ZM284.437 441.052H308.366V416.99H284.437V441.052ZM309.24 441.052H333.171V416.99H309.24V441.052ZM333.944 441.052H357.975V416.99H333.944V441.052ZM358.748 441.052H382.779V416.99H358.748V441.052ZM383.552 441.052H407.571V416.99H383.552V441.052ZM408.345 441.052H432.375V416.99H408.345V441.052ZM433.148 441.052H455.827V416.99H433.148V441.052ZM456.601 441.052H480.632V416.99H456.601V441.052ZM481.405 441.052H505.437V416.99H481.405V441.052ZM506.209 441.052H530.139V416.99H506.209V441.052ZM531.014 441.052H554.943V416.99H531.014V441.052ZM555.717 441.052H579.748V416.99H555.717V441.052ZM580.521 441.052H604.552V416.99H580.521V441.052ZM605.325 441.052H629.344V416.99H605.325V441.052ZM630.117 441.052H654.148V416.99H630.117V441.052ZM654.921 441.052H677.601V416.99H654.921V441.052ZM678.374 441.052H702.404V416.99H678.374V441.052ZM703.178 441.052H727.209V416.99H703.178V441.052ZM727.982 441.052H751.912V416.99H727.982V441.052ZM752.786 441.052H776.716V416.99H752.786V441.052ZM777.489 441.052H801.521V416.99H777.489V441.052ZM802.294 441.052H826.324V416.99H802.294V441.052ZM13.0557 416.216H37.0869V414.039H37.0215V392.296H13.0557V416.216ZM37.8594 416.216H61.8906V414.039H61.8301V392.296H37.8594V416.216ZM62.6641 416.216H86.5938V414.039H86.5371V392.296H62.6641V416.216ZM87.4678 416.216H111.398V414.039H111.347V392.296H87.4678V416.216ZM112.171 416.216H136.202V414.039H136.155V392.296H112.171V416.216ZM136.976 416.216H161.006V414.039H160.963V392.296H136.976V416.216ZM161.779 416.216H185.799V414.039H185.76V392.296H161.779V416.216ZM186.572 416.216H210.603V414.039H210.568V392.296H186.572V416.216ZM211.376 416.216H234.055V414.039H234.024V392.296H211.376V416.216ZM234.828 416.216H258.859V414.039H258.833V392.296H234.828V416.216ZM259.633 416.216H283.663V414.039H283.642V392.296H259.633V416.216ZM284.437 416.216H308.366V414.039H308.35V392.296H284.437V416.216ZM309.24 416.216H333.171V414.039H333.158V392.296H309.24V416.216ZM333.944 416.216H357.975V414.039H357.967V392.296H333.944V416.216ZM358.748 416.216H382.779V414.039H382.775V392.296H358.748V416.216ZM383.552 416.216H407.571V392.296H383.552V416.216ZM408.346 414.039H408.345V416.216H432.375V392.296H408.346V414.039ZM433.153 414.039H433.148V416.216H455.827V392.296H433.153V414.039ZM456.609 414.039H456.601V416.216H480.632V392.296H456.609V414.039ZM481.419 414.039H481.405V416.216H505.437V392.296H481.419V414.039ZM506.228 414.039H506.209V416.216H530.139V392.296H506.228V414.039ZM531.036 414.039H531.014V416.216H554.943V392.296H531.036V414.039ZM555.743 414.039H555.717V416.216H579.748V392.296H555.743V414.039ZM580.553 414.039H580.521V416.216H604.552V392.296H580.553V414.039ZM605.36 414.039H605.325V416.216H629.344V392.296H605.36V414.039ZM630.157 414.039H630.117V416.216H654.148V392.296H630.157V414.039ZM654.966 414.039H654.921V416.216H677.601V392.296H654.966V414.039ZM678.422 414.039H678.374V416.216H702.404V392.296H678.422V414.039ZM703.23 414.039H703.178V416.216H727.209V392.296H703.23V414.039ZM728.039 414.039H727.982V416.216H751.912V392.296H728.039V414.039ZM752.848 414.039H752.786V416.216H776.716V392.296H752.848V414.039ZM777.556 414.039H777.489V416.216H801.521V392.296H777.556V414.039ZM802.364 414.039H802.294V416.216H826.324V392.296H802.364V414.039ZM12.9863 391.387H37.0215V367.463H12.9863V391.387ZM37.7949 391.387H61.8301V367.463H37.7949V391.387ZM62.6035 391.387H86.5371V367.463H62.6035V391.387ZM87.4121 391.387H111.347V367.463H87.4121V391.387ZM112.119 391.387H136.155V367.463H112.119V391.387ZM136.929 391.387H160.963V367.463H136.929V391.387ZM161.736 391.387H185.76V367.463H161.736V391.387ZM186.533 391.387H210.568V367.463H186.533V391.387ZM211.342 391.387H234.024V367.463H211.342V391.387ZM234.798 391.387H258.833V367.463H234.798V391.387ZM259.606 391.387H283.642V367.463H259.606V391.387ZM284.415 391.387H308.35V367.463H284.415V391.387ZM309.224 391.387H333.158V367.463H309.224V391.387ZM333.932 391.387H357.967V367.463H333.932V391.387ZM358.74 391.387H382.775V367.463H358.74V391.387ZM383.549 391.387H407.572V367.463H383.549V391.387ZM408.346 391.387H432.38V367.463H408.346V391.387ZM433.153 391.387H455.837V367.463H433.153V391.387ZM456.609 391.387H480.646V367.463H456.609V391.387ZM481.419 391.387H505.454V367.463H481.419V391.387ZM506.228 391.387H530.161V367.463H506.228V391.387ZM531.036 391.387H554.971V367.463H531.036V391.387ZM555.743 391.387H579.779V367.463H555.743V391.387ZM580.553 391.387H604.587V367.463H580.553V391.387ZM605.36 391.387H629.384V367.463H605.36V391.387ZM630.157 391.387H654.192V367.463H630.157V391.387ZM654.966 391.387H677.648V367.463H654.966V391.387ZM678.422 391.387H702.457V367.463H678.422V391.387ZM703.23 391.387H727.266V367.463H703.23V391.387ZM728.039 391.387H751.974V367.463H728.039V391.387ZM752.848 391.387H776.782V367.463H752.848V391.387ZM777.556 391.387H801.591V367.463H777.556V391.387ZM802.364 391.387H826.399V367.463H802.364V391.387ZM12.9863 366.689H37.0215V342.637H12.9863V366.689ZM37.7949 366.689H61.8301V342.637H37.7949V366.689ZM62.6035 366.689H86.5371V342.637H62.6035V366.689ZM87.4121 366.689H111.347V342.637H87.4121V366.689ZM112.119 366.689H136.155V342.637H112.119V366.689ZM136.929 366.689H160.963V342.637H136.929V366.689ZM161.736 366.689H185.76V342.637H161.736V366.689ZM186.533 366.689H210.568V342.637H186.533V366.689ZM211.342 366.689H234.024V342.637H211.342V366.689ZM234.798 366.689H258.833V342.637H234.798V366.689ZM259.606 366.689H283.642V342.637H259.606V366.689ZM284.415 366.689H308.35V342.637H284.415V366.689ZM309.224 366.689H333.158V342.637H309.224V366.689ZM333.932 366.689H357.967V342.637H333.932V366.689ZM358.74 366.689H382.775V342.637H358.74V366.689ZM383.549 366.689H407.572V342.637H383.549V366.689ZM408.346 366.689H432.38V342.637H408.346V366.689ZM433.153 366.689H455.837V342.637H433.153V366.689ZM456.609 366.689H480.646V342.637H456.609V366.689ZM481.419 366.689H505.454V342.637H481.419V366.689ZM506.228 366.689H530.161V342.637H506.228V366.689ZM531.036 366.689H554.971V342.637H531.036V366.689ZM555.743 366.689H579.779V342.637H555.743V366.689ZM580.553 366.689H604.587V342.637H580.553V366.689ZM605.36 366.689H629.384V342.637H605.36V366.689ZM630.157 366.689H654.192V342.637H630.157V366.689ZM654.966 366.689H677.648V342.637H654.966V366.689ZM678.422 366.689H702.457V342.637H678.422V366.689ZM703.23 366.689H727.266V342.637H703.23V366.689ZM728.039 366.689H751.974V342.637H728.039V366.689ZM752.848 366.689H776.782V342.637H752.848V366.689ZM777.556 366.689H801.591V342.637H777.556V366.689ZM802.364 366.689H826.399V342.637H802.364V366.689ZM12.9863 341.862H37.0215V317.804H12.9863V341.862ZM37.7949 341.862H61.8301V317.804H37.7949V341.862ZM62.6035 341.862H86.5371V317.804H62.6035V341.862ZM87.4121 341.862H111.347V317.804H87.4121V341.862ZM112.119 341.862H136.155V317.804H112.119V341.862ZM136.929 341.862H160.963V317.804H136.929V341.862ZM161.736 341.862H185.76V317.804H161.736V341.862ZM186.533 341.862H210.568V317.804H186.533V341.862ZM211.342 341.862H234.024V317.804H211.342V341.862ZM234.798 341.862H258.833V317.804H234.798V341.862ZM259.606 341.862H283.642V317.804H259.606V341.862ZM284.415 341.862H308.35V317.804H284.415V341.862ZM309.224 341.862H333.158V317.804H309.224V341.862ZM333.932 341.862H357.967V317.804H333.932V341.862ZM358.74 341.862H382.775V317.804H358.74V341.862ZM383.549 341.862H407.572V317.804H383.549V341.862ZM408.346 341.862H432.38V317.804H408.346V341.862ZM433.153 341.862H455.837V317.804H433.153V341.862ZM456.609 341.862H480.646V317.804H456.609V341.862ZM481.419 341.862H505.454V317.804H481.419V341.862ZM506.228 341.862H530.161V317.804H506.228V341.862ZM531.036 341.862H554.971V317.804H531.036V341.862ZM555.743 341.862H579.779V317.804H555.743V341.862ZM580.553 341.862H604.587V317.804H580.553V341.862ZM605.36 341.862H629.384V317.804H605.36V341.862ZM630.157 341.862H654.192V317.804H630.157V341.862ZM654.966 341.862H677.648V317.804H654.966V341.862ZM678.422 341.862H702.457V317.804H678.422V341.862ZM703.23 341.862H727.266V317.804H703.23V341.862ZM728.039 341.862H751.974V317.804H728.039V341.862ZM752.848 341.862H776.782V317.804H752.848V341.862ZM777.556 341.862H801.591V317.804H777.556V341.862ZM802.364 341.862H826.399V317.804H802.364V341.862ZM12.9863 317.029H37.0215V292.985H12.9863V317.029ZM37.7949 317.029H61.8301V292.985H37.7949V317.029ZM62.6035 317.029H86.5371V292.985H62.6035V317.029ZM87.4121 317.029H111.347V292.985H87.4121V317.029ZM112.119 317.029H136.155V292.985H112.119V317.029ZM136.929 317.029H160.963V292.985H136.929V317.029ZM161.736 317.029H185.76V292.985H161.736V317.029ZM186.533 317.029H210.568V292.985H186.533V317.029ZM211.342 317.029H234.024V292.985H211.342V317.029ZM234.798 317.029H258.833V292.985H234.798V317.029ZM259.606 317.029H283.642V292.985H259.606V317.029ZM284.415 317.029H308.35V292.985H284.415V317.029ZM309.224 317.029H333.158V292.985H309.224V317.029ZM333.932 317.029H357.967V292.985H333.932V317.029ZM358.74 317.029H382.775V292.985H358.74V317.029ZM383.549 317.029H407.572V292.985H383.549V317.029ZM408.346 317.029H432.38V292.985H408.346V317.029ZM433.153 317.029H455.837V292.985H433.153V317.029ZM456.609 317.029H480.646V292.985H456.609V317.029ZM481.419 317.029H505.454V292.985H481.419V317.029ZM506.228 317.029H530.161V292.985H506.228V317.029ZM531.036 317.029H554.971V292.985H531.036V317.029ZM555.743 317.029H579.779V292.985H555.743V317.029ZM580.553 317.029H604.587V292.985H580.553V317.029ZM605.36 317.029H629.384V292.985H605.36V317.029ZM630.157 317.029H654.192V292.985H630.157V317.029ZM654.966 317.029H677.648V292.985H654.966V317.029ZM678.422 317.029H702.457V292.985H678.422V317.029ZM703.23 317.029H727.266V292.985H703.23V317.029ZM728.039 317.029H751.974V292.985H728.039V317.029ZM752.848 317.029H776.782V292.985H752.848V317.029ZM777.556 317.029H801.591V292.985H777.556V317.029ZM802.364 317.029H826.399V292.985H802.364V317.029ZM12.9863 292.212H37.0215V268.156H12.9863V292.212ZM37.7949 292.212H61.8301V268.156H37.7949V292.212ZM62.6035 292.212H64.8115V292.211H86.5371V268.156H62.6035V292.212ZM211.342 292.211H233.078V292.212H234.024V268.156H211.342V292.211ZM234.798 292.212H258.833V268.156H234.798V292.212ZM259.606 292.212H283.642V268.156H259.606V292.212ZM284.415 292.212H286.624V292.211H308.35V268.156H284.415V292.212ZM433.153 292.211H454.89V292.212H455.837V268.156H433.153V292.211ZM456.609 292.212H480.646V268.156H456.609V292.212ZM481.419 292.212H505.454V268.156H481.419V292.212ZM506.228 292.212H508.436V292.211H530.161V268.156H506.228V292.212ZM654.966 292.211H676.702V292.212H677.648V268.156H654.966V292.211ZM678.422 292.212H702.457V268.156H678.422V292.212ZM703.23 292.212H727.266V268.156H703.23V292.212ZM728.039 292.212H730.248V292.211H751.974V268.156H728.039V292.212ZM87.4121 292.211H111.347V268.156H87.4121V292.211ZM112.119 292.211H136.155V268.156H112.119V292.211ZM136.929 292.211H160.963V268.156H136.929V292.211ZM161.736 292.211H185.76V268.156H161.736V292.211ZM186.533 292.211H210.568V268.156H186.533V292.211ZM309.224 292.211H333.158V268.156H309.224V292.211ZM333.932 292.211H357.967V268.156H333.932V292.211ZM358.74 292.211H382.775V268.156H358.74V292.211ZM383.549 292.211H407.572V268.156H383.549V292.211ZM408.346 292.211H432.38V268.156H408.346V292.211ZM531.036 292.211H554.971V268.156H531.036V292.211ZM555.743 292.211H579.779V268.156H555.743V292.211ZM580.553 292.211H604.587V268.156H580.553V292.211ZM605.36 292.211H629.384V268.156H605.36V292.211ZM630.157 292.211H654.192V268.156H630.157V292.211ZM752.848 292.211H776.782V268.156H752.848V292.211ZM777.556 292.211H801.591V268.156H777.556V292.211ZM802.364 292.211H826.399V268.156H802.364V292.211ZM12.9863 267.383H37.0215V246.313H12.9863V267.383ZM37.7949 267.383H61.8301V246.313H37.7949V267.383ZM62.6035 267.383H86.5371V246.313H62.6035V267.383ZM87.4121 267.383H111.346V246.313H87.4121V267.383ZM112.119 267.383H136.154V246.313H112.119V267.383ZM136.929 267.383H160.963V246.313H136.929V267.383ZM161.736 267.383H185.76V246.313H161.736V267.383ZM186.533 267.383H210.568V246.313H186.533V267.383ZM211.342 267.383H234.024V246.313H211.342V267.383ZM234.798 267.383H258.833V246.313H234.798V267.383ZM259.606 267.383H283.642V246.313H259.606V267.383ZM284.415 267.383H308.35V246.313H284.415V267.383ZM309.224 267.383H333.158V246.313H309.224V267.383ZM333.932 267.383H357.967V246.313H333.932V267.383ZM358.74 267.383H382.775V246.313H358.74V267.383ZM383.549 267.383H407.571V246.313H383.549V267.383ZM408.346 267.383H432.38V246.313H408.346V267.383ZM433.153 267.383H455.837V246.313H433.153V267.383ZM456.609 267.383H480.646V246.313H456.609V267.383ZM481.419 267.383H505.454V246.313H481.419V267.383ZM506.228 267.383H530.161V246.313H506.228V267.383ZM531.036 267.383H554.97V246.313H531.036V267.383ZM555.743 267.383H579.778V246.313H555.743V267.383ZM580.553 267.383H604.587V246.313H580.553V267.383ZM605.36 267.383H629.384V246.313H605.36V267.383ZM630.157 267.383H654.192V246.313H630.157V267.383ZM654.966 267.383H677.648V246.313H654.966V267.383ZM678.422 267.383H702.457V246.313H678.422V267.383ZM703.23 267.383H727.266V246.313H703.23V267.383ZM728.039 267.383H751.974V246.313H728.039V267.383ZM752.848 267.383H776.782V246.313H752.848V267.383ZM777.556 267.383H801.591V246.313H777.556V267.383ZM802.364 267.383H826.399V246.313H802.364V267.383ZM12.9863 245.539H37.0215V221.48H12.9863V245.539ZM37.7949 245.539H61.8301V221.48H37.7949V245.539ZM62.6035 245.539H86.5371V221.48H62.6035V245.539ZM87.4121 245.539H111.346V221.48H87.4121V245.539ZM112.119 245.539H136.154V221.48H112.119V245.539ZM136.928 245.539H160.963V221.48H136.928V245.539ZM161.736 245.539H185.76V221.48H161.736V245.539ZM186.533 245.539H210.568V221.48H186.533V245.539ZM211.342 245.539H234.024V221.48H211.342V245.539ZM234.798 245.539H258.833V221.48H234.798V245.539ZM259.606 245.539H283.642V221.48H259.606V245.539ZM284.415 245.539H308.35V221.48H284.415V245.539ZM309.224 245.539H333.158V221.48H309.224V245.539ZM333.932 245.539H357.967V221.48H333.932V245.539ZM358.74 245.539H382.775V221.48H358.74V245.539ZM383.548 245.539H407.571V221.48H383.548V245.539ZM408.345 245.539H432.38V221.48H408.345V245.539ZM433.153 245.539H455.837V221.48H433.153V245.539ZM456.609 245.539H480.646V221.48H456.609V245.539ZM481.419 245.539H505.454V221.48H481.419V245.539ZM506.228 245.539H530.161V221.48H506.228V245.539ZM531.036 245.539H554.97V221.48H531.036V245.539ZM555.743 245.539H579.778V221.48H555.743V245.539ZM580.552 245.539H604.587V221.48H580.552V245.539ZM605.36 245.539H629.384V221.48H605.36V245.539ZM630.157 245.539H654.192V221.48H630.157V245.539ZM654.966 245.539H677.648V221.48H654.966V245.539ZM678.422 245.539H702.457V221.48H678.422V245.539ZM703.23 245.539H727.266V221.48H703.23V245.539ZM728.039 245.539H751.974V221.48H728.039V245.539ZM752.848 245.539H776.782V221.48H752.848V245.539ZM777.556 245.539H801.591V221.48H777.556V245.539ZM802.364 245.539H826.399V221.48H802.364V245.539ZM13.0557 218.398H12.9863V220.706H37.0215V196.653H13.0557V218.398ZM37.8594 218.398H37.7949V220.706H61.8301V196.653H37.8594V218.398ZM62.6641 218.398H62.6035V220.706H86.5371V196.653H62.6641V218.398ZM87.4678 218.398H87.4121V220.706H111.346V196.653H87.4678V218.398ZM112.172 218.398H112.119V220.706H136.154V196.653H112.172V218.398ZM136.976 218.398H136.928V220.706H160.963V196.653H136.976V218.398ZM161.779 218.398H161.736V220.706H185.76V196.653H161.779V218.398ZM186.572 218.398H186.533V220.706H210.568V196.653H186.572V218.398ZM211.376 218.398H211.342V220.706H234.024V196.653H211.376V218.398ZM234.828 218.398H234.798V220.706H258.833V196.653H234.828V218.398ZM259.633 218.398H259.606V220.706H283.642V196.653H259.633V218.398ZM284.437 218.398H284.415V220.706H308.35V196.653H284.437V218.398ZM309.24 218.398H309.224V220.706H333.158V196.653H309.24V218.398ZM333.944 218.398H333.932V220.706H357.967V196.653H333.944V218.398ZM358.749 218.398H358.74V220.706H382.775V196.653H358.749V218.398ZM383.553 218.398H383.548V220.706H407.571V196.653H383.553V218.398ZM408.345 220.706H432.38V218.398H432.375V196.653H408.345V220.706ZM433.153 220.706H455.837V218.398H455.827V196.653H433.153V220.706ZM456.609 220.706H480.646V218.398H480.632V196.653H456.609V220.706ZM481.419 220.706H505.454V218.398H505.437V196.653H481.419V220.706ZM506.228 220.706H530.161V218.398H530.14V196.653H506.228V220.706ZM531.036 220.706H554.97V218.398H554.943V196.653H531.036V220.706ZM555.743 220.706H579.778V218.398H579.748V196.653H555.743V220.706ZM580.552 220.706H604.587V218.398H604.552V196.653H580.552V220.706ZM605.36 220.706H629.384V218.398H629.345V196.653H605.36V220.706ZM630.157 220.706H654.192V218.398H654.148V196.653H630.157V220.706ZM654.966 220.706H677.648V218.398H677.601V196.653H654.966V220.706ZM678.422 220.706H702.457V218.398H702.404V196.653H678.422V220.706ZM703.23 220.706H727.266V218.398H727.209V196.653H703.23V220.706ZM728.039 220.706H751.974V218.398H751.912V196.653H728.039V220.706ZM752.848 220.706H776.782V218.398H776.717V196.653H752.848V220.706ZM777.556 220.706H801.591V218.398H801.521V196.653H777.556V220.706ZM802.364 220.706H826.399V218.398H826.324V196.653H802.364V220.706ZM13.0557 195.879H37.0869V171.817H13.0557V195.879ZM37.8594 195.879H61.8906V171.817H37.8594V195.879ZM62.6641 195.879H86.5938V171.817H62.6641V195.879ZM103.806 171.817H87.4678V195.879H111.398V171.816H103.806V171.817ZM112.172 195.879H136.203V171.816H112.172V195.879ZM136.976 195.879H161.007V171.816H136.976V195.879ZM161.779 195.879H185.799V171.816H161.779V195.879ZM186.572 195.879H210.603V171.816H186.572V195.879ZM211.376 195.879H234.055V171.817H212.334V171.816H211.376V195.879ZM234.828 195.879H258.859V171.817H234.828V195.879ZM259.633 195.879H283.663V171.817H259.633V195.879ZM284.437 195.879H308.366V171.817H284.437V195.879ZM325.578 171.817H309.24V195.879H333.171V171.816H325.578V171.817ZM333.944 195.879H357.976V171.816H333.944V195.879ZM358.749 195.879H382.779V171.816H358.749V195.879ZM383.553 195.879H407.571V171.816H383.553V195.879ZM408.345 195.879H432.375V171.816H408.345V195.879ZM433.148 195.879H455.827V171.817H434.107V171.816H433.148V195.879ZM456.601 195.879H480.632V171.817H456.601V195.879ZM481.405 195.879H505.437V171.817H481.405V195.879ZM506.209 195.879H530.14V171.817H506.209V195.879ZM547.351 171.817H531.014V195.879H554.943V171.816H547.351V171.817ZM555.717 195.879H579.748V171.816H555.717V195.879ZM580.521 195.879H604.552V171.816H580.521V195.879ZM605.325 195.879H629.345V171.816H605.325V195.879ZM630.117 195.879H654.148V171.816H630.117V195.879ZM654.921 195.879H677.601V171.817H655.88V171.816H654.921V195.879ZM678.374 195.879H702.404V171.817H678.374V195.879ZM703.178 195.879H727.209V171.817H703.178V195.879ZM727.982 195.879H751.912V171.817H727.982V195.879ZM769.124 171.817H752.786V195.879H776.717V171.816H769.124V171.817ZM777.489 195.879H801.521V171.816H777.489V195.879ZM802.294 195.879H826.324V171.816H802.294V195.879ZM13.0557 171.043H37.0869V146.987H13.0557V171.043ZM37.8594 171.043H61.8906V146.987H37.8594V171.043ZM62.6641 171.043H86.5938V146.987H62.6641V171.043ZM87.4678 171.043H111.398V146.987H87.4678V171.043ZM112.172 171.043H136.203V146.987H112.172V171.043ZM136.976 171.043H161.007V146.987H136.976V171.043ZM161.779 171.043H185.799V146.987H161.779V171.043ZM186.572 171.043H210.603V146.987H186.572V171.043ZM211.376 171.043H234.055V146.987H211.376V171.043ZM234.828 171.043H258.859V146.987H234.828V171.043ZM259.633 171.043H283.663V146.987H259.633V171.043ZM284.437 171.043H308.366V146.987H284.437V171.043ZM309.24 171.043H333.171V146.987H309.24V171.043ZM333.944 171.043H357.976V146.987H333.944V171.043ZM358.749 171.043H382.779V146.987H358.749V171.043ZM383.553 171.043H407.571V146.987H383.553V171.043ZM408.345 171.043H432.375V146.987H408.345V171.043ZM433.148 171.043H455.827V146.987H433.148V171.043ZM456.601 171.043H480.632V146.987H456.601V171.043ZM481.405 171.043H505.437V146.987H481.405V171.043ZM506.209 171.043H530.14V146.987H506.209V171.043ZM531.014 171.043H554.943V146.987H531.014V171.043ZM555.717 171.043H579.748V146.987H555.717V171.043ZM580.521 171.043H604.552V146.987H580.521V171.043ZM605.325 171.043H629.345V146.987H605.325V171.043ZM630.117 171.043H654.148V146.987H630.117V171.043ZM654.921 171.043H677.601V146.987H654.921V171.043ZM678.374 171.043H702.404V146.987H678.374V171.043ZM703.178 171.043H727.209V146.987H703.178V171.043ZM727.982 171.043H751.912V146.987H727.982V171.043ZM752.786 171.043H776.717V146.987H752.786V171.043ZM777.489 171.043H801.521V146.987H777.489V171.043ZM802.294 171.043H826.324V146.987H802.294V171.043ZM13.0557 146.213H37.0869V122.151H13.0557V146.213ZM37.8594 146.213H61.8906V122.151H37.8594V146.213ZM62.6641 146.213H86.5938V122.151H62.6641V146.213ZM87.4678 146.213H111.398V122.151H87.4678V146.213ZM112.172 146.213H136.203V122.151H112.172V146.213ZM136.976 146.213H161.007V122.151H136.976V146.213ZM161.779 146.213H185.799V122.151H161.779V146.213ZM186.572 146.213H210.603V122.151H186.572V146.213ZM211.376 146.213H234.055V122.151H211.376V146.213ZM234.828 146.213H258.859V122.151H234.828V146.213ZM259.633 146.213H283.663V122.151H259.633V146.213ZM284.437 146.213H308.366V122.151H284.437V146.213ZM309.24 146.213H333.171V122.151H309.24V146.213ZM333.944 146.213H357.976V122.151H333.944V146.213ZM358.749 146.213H382.779V122.151H358.749V146.213ZM383.553 146.213H407.571V122.151H383.553V146.213ZM408.345 146.213H432.375V122.151H408.345V146.213ZM433.148 146.213H455.827V122.151H433.148V146.213ZM456.601 146.213H480.632V122.151H456.601V146.213ZM481.405 146.213H505.437V122.151H481.405V146.213ZM506.209 146.213H530.14V122.151H506.209V146.213ZM531.014 146.213H554.943V122.151H531.014V146.213ZM555.717 146.213H579.748V122.151H555.717V146.213ZM580.521 146.213H604.552V122.151H580.521V146.213ZM605.325 146.213H629.345V122.151H605.325V146.213ZM630.117 146.213H654.148V122.151H630.117V146.213ZM654.921 146.213H677.601V122.151H654.921V146.213ZM678.374 146.213H702.404V122.151H678.374V146.213ZM703.178 146.213H727.209V122.151H703.178V146.213ZM727.982 146.213H751.912V122.151H727.982V146.213ZM752.786 146.213H776.717V122.151H752.786V146.213ZM777.489 146.213H801.521V122.151H777.489V146.213ZM802.294 146.213H826.324V122.151H802.294V146.213ZM13.0557 121.377H37.0869V97.3301H13.0557V121.377ZM37.8594 121.377H61.8906V97.3301H37.8594V121.377ZM62.6641 121.377H86.5938V97.3301H62.6641V121.377ZM87.4678 121.377H111.398V97.3301H87.4678V121.377ZM112.172 121.377H136.203V97.3301H112.172V121.377ZM136.976 121.377H161.007V97.3301H136.976V121.377ZM161.779 121.377H185.799V97.3301H161.779V121.377ZM186.572 121.377H210.603V97.3301H186.572V121.377ZM211.376 121.377H234.055V97.3301H211.376V121.377ZM234.828 121.377H258.859V97.3301H234.828V121.377ZM259.633 121.377H283.663V97.3301H259.633V121.377ZM284.437 121.377H308.366V97.3301H284.437V121.377ZM309.24 121.377H333.171V97.3301H309.24V121.377ZM333.944 121.377H357.976V97.3301H333.944V121.377ZM358.749 121.377H382.779V97.3301H358.749V121.377ZM383.553 121.377H407.571V97.3301H383.553V121.377ZM408.345 121.377H432.375V97.3301H408.345V121.377ZM433.148 121.377H455.827V97.3301H433.148V121.377ZM456.601 121.377H480.632V97.3301H456.601V121.377ZM481.405 121.377H505.437V97.3301H481.405V121.377ZM506.209 121.377H530.14V97.3301H506.209V121.377ZM531.014 121.377H554.943V97.3301H531.014V121.377ZM555.717 121.377H579.748V97.3301H555.717V121.377ZM580.521 121.377H604.552V97.3301H580.521V121.377ZM605.325 121.377H629.345V97.3301H605.325V121.377ZM630.117 121.377H654.148V97.3301H630.117V121.377ZM654.921 121.377H677.601V97.3301H654.921V121.377ZM678.374 121.377H702.404V97.3301H678.374V121.377ZM703.178 121.377H727.209V97.3301H703.178V121.377ZM727.982 121.377H751.912V97.3301H727.982V121.377ZM752.786 121.377H776.717V97.3301H752.786V121.377ZM777.489 121.377H801.521V97.3301H777.489V121.377ZM802.294 121.377H826.324V97.3301H802.294V121.377ZM13.0557 96.5557H37.0869V72.498H13.0557V96.5557ZM37.8594 96.5557H61.8906V72.498H37.8594V96.5557ZM62.6641 96.5557H86.5938V72.498H62.6641V96.5557ZM87.4678 96.5557H111.398V72.498H87.4678V96.5557ZM112.172 96.5557H136.203V72.498H112.172V96.5557ZM136.976 96.5557H161.007V72.498H136.976V96.5557ZM161.779 96.5557H185.799V72.498H161.779V96.5557ZM186.572 96.5557H210.603V72.498H186.572V96.5557ZM211.376 96.5557H234.055V72.498H211.376V96.5557ZM234.828 96.5557H258.859V72.498H234.828V96.5557ZM259.633 96.5557H283.663V72.498H259.633V96.5557ZM284.437 96.5557H308.366V72.498H284.437V96.5557ZM309.24 96.5557H333.171V72.498H309.24V96.5557ZM333.944 96.5557H357.976V72.498H333.944V96.5557ZM358.749 96.5557H382.779V72.498H358.749V96.5557ZM383.553 96.5557H407.571V72.498H383.553V96.5557ZM408.345 96.5557H432.375V72.498H408.345V96.5557ZM433.148 96.5557H455.827V72.498H433.148V96.5557ZM456.601 96.5557H480.632V72.498H456.601V96.5557ZM481.405 96.5557H505.437V72.498H481.405V96.5557ZM506.209 96.5557H530.14V72.498H506.209V96.5557ZM531.014 96.5557H554.943V72.498H531.014V96.5557ZM555.717 96.5557H579.748V72.498H555.717V96.5557ZM580.521 96.5557H604.552V72.498H580.521V96.5557ZM605.325 96.5557H629.345V72.498H605.325V96.5557ZM630.117 96.5557H654.148V72.498H630.117V96.5557ZM654.921 96.5557H677.601V72.498H654.921V96.5557ZM678.374 96.5557H702.404V72.498H678.374V96.5557ZM703.178 96.5557H727.209V72.498H703.178V96.5557ZM727.982 96.5557H751.912V72.498H727.982V96.5557ZM752.786 96.5557H776.717V72.498H752.786V96.5557ZM777.489 96.5557H801.521V72.498H777.489V96.5557ZM802.294 96.5557H826.324V72.498H802.294V96.5557ZM13.0557 71.7246H37.0869V50.6523H13.0557V71.7246ZM37.8594 71.7246H61.8906V50.6523H37.8594V71.7246ZM62.6641 71.7246H86.5938V50.6523H62.6641V71.7246ZM87.4678 71.7246H111.398V50.6523H87.4678V71.7246ZM112.172 71.7246H136.202V50.6523H112.172V71.7246ZM136.976 71.7246H161.006V50.6523H136.976V71.7246ZM161.779 71.7246H185.799V50.6523H161.779V71.7246ZM186.572 71.7246H210.603V50.6523H186.572V71.7246ZM211.376 71.7246H234.055V50.6523H211.376V71.7246ZM234.828 71.7246H258.859V50.6523H234.828V71.7246ZM259.633 71.7246H283.663V50.6523H259.633V71.7246ZM284.437 71.7246H308.366V50.6523H284.437V71.7246ZM309.24 71.7246H333.171V50.6523H309.24V71.7246ZM333.944 71.7246H357.975V50.6523H333.944V71.7246ZM358.749 71.7246H382.779V50.6523H358.749V71.7246ZM383.553 71.7246H407.571V50.6523H383.553V71.7246ZM408.345 71.7246H432.375V50.6523H408.345V71.7246ZM433.148 71.7246H455.827V50.6523H433.148V71.7246ZM456.601 71.7246H480.632V50.6523H456.601V71.7246ZM481.405 71.7246H505.437V50.6523H481.405V71.7246ZM506.209 71.7246H530.139V50.6523H506.209V71.7246ZM531.014 71.7246H554.943V50.6523H531.014V71.7246ZM555.717 71.7246H579.748V50.6523H555.717V71.7246ZM580.521 71.7246H604.552V50.6523H580.521V71.7246ZM605.325 71.7246H629.344V50.6523H605.325V71.7246ZM630.117 71.7246H654.148V50.6523H630.117V71.7246ZM654.921 71.7246H677.601V50.6523H654.921V71.7246ZM678.374 71.7246H702.404V50.6523H678.374V71.7246ZM703.178 71.7246H727.209V50.6523H703.178V71.7246ZM727.982 71.7246H751.912V50.6523H727.982V71.7246ZM752.786 71.7246H776.716V50.6523H752.786V71.7246ZM777.489 71.7246H801.521V50.6523H777.489V71.7246ZM802.294 71.7246H826.324V50.6523H802.294V71.7246ZM13.0557 49.8779H37.0869V25.8164H13.0557V49.8779ZM37.8594 49.8779H61.8906V25.8164H37.8594V49.8779ZM62.6641 49.8779H86.5938V25.8164H62.6641V49.8779ZM87.4678 49.8779H111.398V25.8164H87.4678V49.8779ZM112.171 49.8779H136.202V25.8164H112.171V49.8779ZM136.976 49.8779H161.006V25.8164H136.976V49.8779ZM161.779 49.8779H185.799V25.8164H161.779V49.8779ZM186.572 49.8779H210.603V25.8164H186.572V49.8779ZM211.376 49.8779H234.055V25.8164H211.376V49.8779ZM234.828 49.8779H258.859V25.8164H234.828V49.8779ZM259.633 49.8779H283.663V25.8164H259.633V49.8779ZM284.437 49.8779H308.366V25.8164H284.437V49.8779ZM309.24 49.8779H333.171V25.8164H309.24V49.8779ZM333.944 49.8779H357.975V25.8164H333.944V49.8779ZM358.748 49.8779H382.779V25.8164H358.748V49.8779ZM383.552 49.8779H407.571V25.8164H383.552V49.8779ZM408.345 49.8779H432.375V25.8164H408.345V49.8779ZM433.148 49.8779H455.827V25.8164H433.148V49.8779ZM456.601 49.8779H480.632V25.8164H456.601V49.8779ZM481.405 49.8779H505.437V25.8164H481.405V49.8779ZM506.209 49.8779H530.139V25.8164H506.209V49.8779ZM531.014 49.8779H554.943V25.8164H531.014V49.8779ZM555.717 49.8779H579.748V25.8164H555.717V49.8779ZM580.521 49.8779H604.552V25.8164H580.521V49.8779ZM605.325 49.8779H629.344V25.8164H605.325V49.8779ZM630.117 49.8779H654.148V25.8164H630.117V49.8779ZM654.921 49.8779H677.601V25.8164H654.921V49.8779ZM678.374 49.8779H702.404V25.8164H678.374V49.8779ZM703.178 49.8779H727.209V25.8164H703.178V49.8779ZM727.982 49.8779H751.912V25.8164H727.982V49.8779ZM752.786 49.8779H776.716V25.8164H752.786V49.8779ZM777.489 49.8779H801.521V25.8164H777.489V49.8779ZM802.294 49.8779H826.324V25.8164H802.294V49.8779ZM13.0557 25.042H37.0869V0.986328H13.0557V25.042ZM37.8594 25.042H61.8906V0.986328H37.8594V25.042ZM62.6641 25.042H86.5938V0.986328H62.6641V25.042ZM87.4678 25.042H111.398V0.986328H87.4678V25.042ZM112.171 25.042H136.202V0.986328H112.171V25.042ZM136.976 25.042H161.006V0.986328H136.976V25.042ZM161.779 25.042H185.799V0.986328H161.779V25.042ZM186.572 25.042H210.603V0.986328H186.572V25.042ZM211.376 25.042H234.055V0.986328H211.376V25.042ZM234.828 25.042H258.859V0.986328H234.828V25.042ZM259.633 25.042H283.663V0.986328H259.633V25.042ZM284.437 25.042H308.366V0.986328H284.437V25.042ZM309.24 25.042H333.171V0.986328H309.24V25.042ZM333.944 25.042H357.975V0.986328H333.944V25.042ZM358.748 25.042H382.779V0.986328H358.748V25.042ZM383.552 25.042H407.571V0.986328H383.552V25.042ZM408.345 25.042H432.375V0.986328H408.345V25.042ZM433.148 25.042H455.827V0.986328H433.148V25.042ZM456.601 25.042H480.632V0.986328H456.601V25.042ZM481.405 25.042H505.437V0.986328H481.405V25.042ZM506.209 25.042H530.139V0.986328H506.209V25.042ZM531.014 25.042H554.943V0.986328H531.014V25.042ZM555.717 25.042H579.748V0.986328H555.717V25.042ZM580.521 25.042H604.552V0.986328H580.521V25.042ZM605.325 25.042H629.344V0.986328H605.325V25.042ZM630.117 25.042H654.148V0.986328H630.117V25.042ZM654.921 25.042H677.601V0.986328H654.921V25.042ZM678.374 25.042H702.404V0.986328H678.374V25.042ZM703.178 25.042H727.209V0.986328H703.178V25.042ZM727.982 25.042H751.912V0.986328H727.982V25.042ZM752.786 25.042H776.716V0.986328H752.786V25.042ZM777.489 25.042H801.521V0.986328H777.489V25.042ZM802.294 25.042H826.324V0.986328H802.294V25.042Z" fill="url(#paint0_linear_1463_27889)"/>
<defs>
<linearGradient id="paint0_linear_1463_27889" x1="417" y1="0.212616" x2="417" y2="805.213" gradientUnits="userSpaceOnUse">
<stop stop-color="#B7D1FF"/>
<stop offset="1" stop-color="#B7D1FF" stop-opacity="0"/>
</linearGradient>
</defs>
</svg>
