<svg width="1920" height="1510" viewBox="0 0 1920 1510" fill="none" xmlns="http://www.w3.org/2000/svg">
<path d="M1920 2.25781H1902.88V47.3408H1920V48.791H1902.88V93.8857H1920V95.3359H1902.88V134.827H1920V136.278H1902.88V181.364H1920V182.815H1902.88V227.882H1920V229.333H1902.88V274.428H1920V275.878H1902.88V320.961H1920V322.411H1902.88V367.506H1920V368.957H1903.05V414.034H1920V415.485H1903.05V460.574H1920V462.024H1903.05V501.511H1920V502.962H1903.05V548.043H1920V549.493H1903.05V594.555H1920V596.005H1903.05V641.095H1920V642.545H1903.05V687.622H1920V689.072H1903.05V733.906H1920V735.612H1903.05V776.36H1902.88V780.439H1920V781.891H1902.88V826.985H1920V828.436H1902.88V867.927H1920V869.378H1902.88V914.464H1920V915.915H1902.88V960.981H1920V962.433H1902.88V1007.53H1920V1008.98H1902.88V1054.06H1920V1055.51H1902.88V1100.61H1920V1102.06H1903.05V1147.13H1920V1148.58H1903.05V1193.67H1920V1195.12H1903.05V1234.61H1920V1236.06H1903.05V1281.14H1920V1282.59H1903.05V1327.65H1920V1329.1H1903.05V1374.19H1920V1375.64H1903.05V1420.72H1920V1422.17H1903.05L1903.05 1467.26H1920V1468.71H1903.05L1903.05 1509.46H1901.64V1468.71H1857.86L1857.86 1509.46H1856.46V1468.71H1812.67L1812.68 1509.46H1811.27V1468.71L1771.7 1468.71V1468.71H1769.95V1509.46H1768.54V1468.71H1724.77V1509.46H1723.36V1468.71H1679.6V1509.46H1678.19V1468.71H1634.41V1509.46H1633V1468.71H1589.23V1509.46H1587.82V1468.71H1544.22L1544.22 1509.46H1542.63V1468.71H1499.04V1509.46H1497.63V1468.71H1453.85V1509.46H1452.44V1468.71H1408.66V1509.46H1407.25V1468.71L1367.68 1468.71V1468.71H1365.94V1509.46H1364.53V1468.71H1320.75V1509.46H1319.34V1468.71H1275.58V1509.46H1274.18V1468.71H1230.4V1509.46H1228.99V1468.71H1185.21V1509.46H1183.8V1468.71H1140.21V1509.46H1138.62V1468.71H1095.02V1509.46H1093.61V1468.71H1049.83V1509.46H1048.43L1048.42 1468.71H1004.65V1509.46H1003.24V1468.71L963.669 1468.71V1468.71H961.922V1509.46H960.514V1468.71H916.736V1509.46H915.328V1468.71H871.57V1509.46H870.162V1468.71H826.385V1509.46H824.976V1468.71H781.196V1509.46H779.788V1468.71H736.193V1509.46H734.601V1468.71H691.006V1509.46H689.598V1468.71H645.819V1509.46H644.41V1468.71H600.632V1509.46H599.224V1468.71L559.654 1468.71V1468.71H557.907V1509.46H556.499V1468.71H512.722V1509.46H511.312V1468.71H467.556V1509.46H466.147V1468.71H422.369V1509.46H420.961V1468.71H377.182V1509.46H375.773V1468.71H332.179V1509.46H330.586V1468.71H286.991V1509.46H285.583L285.582 1468.71H241.805V1509.46H240.396V1468.71H196.617V1509.46H195.209V1468.71L155.64 1468.71V1468.71H153.893V1509.46H152.484V1468.71H108.707V1509.46H107.298V1468.71H63.541V1509.46H62.1328V1468.71H18.3545V1509.46H16.9463V1468.71H0V1467.26H16.9463V1422.17H0V1420.72H16.9463V1375.64H0V1374.19H16.9463V1329.1H0V1327.65H16.9463V1282.59H0V1281.14H16.9463V1236.06H0V1234.61H16.9453V1195.12H0V1193.67H16.9453V1148.58H0V1147.13H16.9453V1102.06H0V1100.6H17.1045V1055.51H0V1054.06H17.1045V1008.98H0V1007.53H17.1045V962.432H0V960.98H17.1045V915.914H0V914.463H17.1045V869.377H0V867.927H17.1035V828.436H0V826.985H17.1035V781.891H0V780.439H17.1035V776.359H16.9463V735.611H0V733.906H16.9463V689.072H0V687.622H16.9463V642.545H0V641.094H16.9463V596.005H0V594.554H16.9463V549.492H0V548.042H16.9463V502.961H0V501.511H16.9453V462.024H0V460.574H16.9453V415.485H0V414.034H16.9453V368.957H0V367.506H17.1045V322.411H0V320.96H17.1045V275.878H0V274.427H17.1045V229.332H0V227.882H17.1045V182.814H0V181.364H17.1045V136.277H0V134.827H17.1035V95.3359H0V93.8857H17.1035V48.791H0V47.3408H17.1035V2.25781H0V0.807617H1920V2.25781ZM18.3545 1467.26H62.1328V1422.17H18.3545V1467.26ZM63.541 1467.26H107.298V1422.17H63.541V1467.26ZM108.707 1467.26H152.484V1422.17H108.707V1467.26ZM153.893 1467.26H195.209V1422.17H153.893V1467.26ZM196.617 1467.26H240.396V1422.17H196.617V1467.26ZM241.805 1467.26H285.583L285.582 1422.17H241.805V1467.26ZM286.991 1467.26H330.586V1422.17H286.991V1467.26ZM332.179 1467.26H375.773V1422.17H332.179V1467.26ZM377.182 1467.26H420.961V1422.17H377.182V1467.26ZM422.369 1467.26H466.147V1422.17H422.369V1467.26ZM467.556 1467.26H511.312V1422.17H467.556V1467.26ZM512.722 1467.26H556.499V1422.17H512.722V1467.26ZM557.907 1467.26H599.224V1422.17H557.907V1467.26ZM600.632 1467.26H644.41V1422.17H600.632V1467.26ZM645.819 1467.26H689.598V1422.17H645.819V1467.26ZM691.006 1467.26H734.601V1422.17H691.006V1467.26ZM736.193 1467.26H779.788V1422.17H736.193V1467.26ZM781.196 1467.26H824.976V1422.17H781.196V1467.26ZM826.385 1467.26H870.162V1422.17H826.385V1467.26ZM871.57 1467.26H915.328V1422.17H871.57V1467.26ZM916.736 1467.26H960.514V1422.17H916.736V1467.26ZM961.922 1467.26H1003.24V1422.17H961.922V1467.26ZM1004.65 1467.26H1048.43L1048.42 1422.17H1004.65V1467.26ZM1049.83 1467.26H1093.61V1422.17H1049.83V1467.26ZM1095.02 1467.26H1138.62V1422.17H1095.02V1467.26ZM1140.21 1467.26H1183.8V1422.17H1140.21V1467.26ZM1185.21 1467.26H1228.99V1422.17H1185.21V1467.26ZM1230.4 1467.26H1274.18V1422.17H1230.4V1467.26ZM1275.58 1467.26H1319.34V1422.17H1275.58V1467.26ZM1320.75 1467.26H1364.53V1422.17H1320.75V1467.26ZM1365.94 1467.26H1407.25V1422.17H1365.94V1467.26ZM1408.66 1467.26H1452.44V1422.17H1408.66V1467.26ZM1453.85 1467.26H1497.63V1422.17H1453.85V1467.26ZM1499.04 1467.26H1542.63V1422.17H1499.04V1467.26ZM1544.22 1467.26H1587.82V1422.17H1544.22L1544.22 1467.26ZM1589.23 1467.26H1633V1422.17H1589.23V1467.26ZM1634.41 1467.26H1678.19V1422.17H1634.41V1467.26ZM1679.6 1467.26H1723.36V1422.17H1679.6V1467.26ZM1724.77 1467.26H1768.54V1422.17H1724.77V1467.26ZM1769.95 1467.26H1811.27V1422.17H1769.95V1467.26ZM1812.68 1467.26H1856.46V1422.17H1812.67L1812.68 1467.26ZM1857.86 1467.26H1901.64V1422.17H1857.86L1857.86 1467.26ZM153.893 1420.72H193.484V1420.72H195.209V1375.64H155.64V1375.64H153.893V1420.72ZM196.617 1420.72H240.396V1375.64H196.617V1420.72ZM241.805 1420.72H285.582V1375.64H241.805V1420.72ZM286.991 1420.72H291.015V1420.72H330.586V1375.64H286.991V1420.72ZM557.907 1420.72H597.499V1420.72H599.224V1375.64H559.654V1375.64H557.907V1420.72ZM600.632 1420.72H644.41V1375.64H600.632V1420.72ZM645.819 1420.72H689.598V1375.64H645.819V1420.72ZM691.006 1420.72H695.029V1420.72H734.601V1375.64H691.006V1420.72ZM961.922 1420.72H1001.51V1420.72H1003.24V1375.64H963.669V1375.64H961.922V1420.72ZM1004.65 1420.72H1048.42V1375.64H1004.65V1420.72ZM1049.83 1420.72H1093.61V1375.64H1049.83V1420.72ZM1095.02 1420.72H1099.04V1420.72H1138.62V1375.64H1095.02V1420.72ZM1365.94 1420.72H1405.53V1420.72H1407.25V1375.64H1367.68V1375.64H1365.94V1420.72ZM1408.66 1420.72H1452.44V1375.64H1408.66V1420.72ZM1453.85 1420.72H1497.63V1375.64H1453.85V1420.72ZM1499.04 1420.72H1503.06V1420.72H1542.63V1375.64H1499.04V1420.72ZM1769.95 1420.72H1809.54V1420.72H1811.27V1375.64H1771.7V1375.64H1769.95V1420.72ZM1812.67 1420.72H1856.46V1375.64H1812.67V1420.72ZM1857.86 1420.72H1901.64V1375.64H1857.86V1420.72ZM18.3545 1420.72H62.1328V1375.64H18.3545V1420.72ZM63.541 1420.72H107.298V1375.64H63.541V1420.72ZM108.707 1420.72H152.484V1375.64H108.707V1420.72ZM361.941 1375.64H332.179V1420.72H375.773V1375.64H361.941V1375.64ZM377.182 1420.72H420.961V1375.64H377.182V1420.72ZM422.369 1420.72H466.147V1375.64H422.369V1420.72ZM467.556 1420.72H511.312V1375.64H467.556V1420.72ZM512.722 1420.72H556.499V1375.64H512.722V1420.72ZM765.956 1375.64H736.193V1420.72H779.788V1375.64H765.956V1375.64ZM781.196 1420.72H824.976V1375.64H781.196V1420.72ZM826.385 1420.72H870.162V1375.64H826.385V1420.72ZM871.57 1420.72H915.328V1375.64H871.57V1420.72ZM916.736 1420.72H960.514V1375.64H916.736V1420.72ZM1169.97 1375.64H1140.21V1420.72H1183.8V1375.64H1169.97V1375.64ZM1185.21 1420.72H1228.99V1375.64H1185.21V1420.72ZM1230.4 1420.72H1274.18V1375.64H1230.4V1420.72ZM1275.58 1420.72H1319.34V1375.64H1275.58V1420.72ZM1320.75 1420.72H1364.53V1375.64H1320.75V1420.72ZM1573.99 1375.64H1544.22V1420.72H1587.82V1375.64H1573.99V1375.64ZM1589.23 1420.72H1633V1375.64H1589.23V1420.72ZM1634.41 1420.72H1678.19V1375.64H1634.41V1420.72ZM1679.6 1420.72H1723.36V1375.64H1679.6V1420.72ZM1724.77 1420.72H1768.54V1375.64H1724.77V1420.72ZM18.3545 1374.19H62.1328V1329.1H18.3545V1374.19ZM63.541 1374.19H107.298V1329.1H63.541V1374.19ZM108.707 1374.19H152.484V1329.1H108.707V1374.19ZM153.893 1374.19H195.209V1329.1H155.64V1329.1H153.893V1374.19ZM196.617 1374.19H240.396V1329.1H196.617V1374.19ZM241.805 1374.19H285.582V1329.1H241.805V1374.19ZM286.991 1374.19H330.586V1329.1H286.991V1374.19ZM361.941 1329.1H332.179V1374.19H375.773V1329.1H361.941V1329.1ZM377.182 1374.19H420.961V1329.1H377.182V1374.19ZM422.369 1374.19H466.147V1329.1H422.369V1374.19ZM467.556 1374.19H511.312V1329.1H467.556V1374.19ZM512.722 1374.19H556.499V1329.1H512.722V1374.19ZM557.907 1374.19H599.224V1329.1H559.654V1329.1H557.907V1374.19ZM600.632 1374.19H644.41V1329.1H600.632V1374.19ZM645.819 1374.19H689.598V1329.1H645.819V1374.19ZM691.006 1374.19H734.601V1329.1H691.006V1374.19ZM765.956 1329.1H736.193V1374.19H779.788V1329.1H765.956V1329.1ZM781.196 1374.19H824.976V1329.1H781.196V1374.19ZM826.385 1374.19H870.162V1329.1H826.385V1374.19ZM871.57 1374.19H915.328V1329.1H871.57V1374.19ZM916.736 1374.19H960.514V1329.1H916.736V1374.19ZM961.922 1374.19H1003.24V1329.1H963.669V1329.1H961.922V1374.19ZM1004.65 1374.19H1048.42V1329.1H1004.65V1374.19ZM1049.83 1374.19H1093.61V1329.1H1049.83V1374.19ZM1095.02 1374.19H1138.62V1329.1H1095.02V1374.19ZM1169.97 1329.1H1140.21V1374.19H1183.8V1329.1H1169.97V1329.1ZM1185.21 1374.19H1228.99V1329.1H1185.21V1374.19ZM1230.4 1374.19H1274.18V1329.1H1230.4V1374.19ZM1275.58 1374.19H1319.34V1329.1H1275.58V1374.19ZM1320.75 1374.19H1364.53V1329.1H1320.75V1374.19ZM1365.94 1374.19H1407.25V1329.1H1367.68V1329.1H1365.94V1374.19ZM1408.66 1374.19H1452.44V1329.1H1408.66V1374.19ZM1453.85 1374.19H1497.63V1329.1H1453.85V1374.19ZM1499.04 1374.19H1542.63V1329.1H1499.04V1374.19ZM1573.99 1329.1H1544.22V1374.19H1587.82V1329.1H1573.99V1329.1ZM1589.23 1374.19H1633V1329.1H1589.23V1374.19ZM1634.41 1374.19H1678.19V1329.1H1634.41V1374.19ZM1679.6 1374.19H1723.36V1329.1H1679.6V1374.19ZM1724.77 1374.19H1768.54V1329.1H1724.77V1374.19ZM1769.95 1374.19H1811.27V1329.1H1771.7V1329.1H1769.95V1374.19ZM1812.67 1374.19H1856.46V1329.1H1812.67V1374.19ZM1857.86 1374.19H1901.64V1329.1H1857.86V1374.19ZM153.893 1327.65H193.484V1327.65H195.209V1282.59H155.64V1282.59H153.893V1327.65ZM196.617 1327.65H240.396V1282.59H196.617V1327.65ZM241.805 1327.65H285.582V1282.59H241.805V1327.65ZM286.991 1327.65H291.015V1327.65H330.586V1282.59H286.991V1327.65ZM557.907 1327.65H597.499V1327.65H599.224V1282.59H559.654V1282.59H557.907V1327.65ZM600.632 1327.65H644.41V1282.59H600.632V1327.65ZM645.819 1327.65H689.598V1282.59H645.819V1327.65ZM691.006 1327.65H695.029V1327.65H734.601V1282.59H691.006V1327.65ZM961.922 1327.65H1001.51V1327.65H1003.24V1282.59H963.669V1282.59H961.922V1327.65ZM1004.65 1327.65H1048.42V1282.59H1004.65V1327.65ZM1049.83 1327.65H1093.61V1282.59H1049.83V1327.65ZM1095.02 1327.65H1099.04V1327.65H1138.62V1282.59H1095.02V1327.65ZM1365.94 1327.65H1405.53V1327.65H1407.25V1282.59H1367.68V1282.59H1365.94V1327.65ZM1408.66 1327.65H1452.44V1282.59H1408.66V1327.65ZM1453.85 1327.65H1497.63V1282.59H1453.85V1327.65ZM1499.04 1327.65H1503.06V1327.65H1542.63V1282.59H1499.04V1327.65ZM1769.95 1327.65H1809.54V1327.65H1811.27V1282.59H1771.7V1282.59H1769.95V1327.65ZM1812.67 1327.65H1856.46V1282.59H1812.67V1327.65ZM1857.86 1327.65H1901.64V1282.59H1857.86V1327.65ZM18.3545 1327.65H62.1328V1282.59H18.3545V1327.65ZM63.541 1327.65H107.298V1282.59H63.541V1327.65ZM108.707 1327.65H152.484V1282.59H108.707V1327.65ZM361.941 1282.59H332.179V1327.65H375.773V1282.59H361.941V1282.59ZM377.182 1327.65H420.961V1282.59H377.182V1327.65ZM422.369 1327.65H466.147V1282.59H422.369V1327.65ZM467.556 1327.65H511.312V1282.59H467.556V1327.65ZM512.722 1327.65H556.499V1282.59H512.722V1327.65ZM765.956 1282.59H736.193V1327.65H779.788V1282.59H765.956V1282.59ZM781.196 1327.65H824.976V1282.59H781.196V1327.65ZM826.385 1327.65H870.162V1282.59H826.385V1327.65ZM871.57 1327.65H915.328V1282.59H871.57V1327.65ZM916.736 1327.65H960.514V1282.59H916.736V1327.65ZM1169.97 1282.59H1140.21V1327.65H1183.8V1282.59H1169.97V1282.59ZM1185.21 1327.65H1228.99V1282.59H1185.21V1327.65ZM1230.4 1327.65H1274.18V1282.59H1230.4V1327.65ZM1275.58 1327.65H1319.34V1282.59H1275.58V1327.65ZM1320.75 1327.65H1364.53V1282.59H1320.75V1327.65ZM1573.99 1282.59H1544.22V1327.65H1587.82V1282.59H1573.99V1282.59ZM1589.23 1327.65H1633V1282.59H1589.23V1327.65ZM1634.41 1327.65H1678.19V1282.59H1634.41V1327.65ZM1679.6 1327.65H1723.36V1282.59H1679.6V1327.65ZM1724.77 1327.65H1768.54V1282.59H1724.77V1327.65ZM153.893 1281.14H193.484V1281.14H195.209V1236.06L155.64 1236.06V1236.06H153.893V1281.14ZM196.617 1281.14H240.396V1236.06H196.617V1281.14ZM241.805 1281.14H285.582V1236.06H241.805V1281.14ZM286.991 1281.14H291.015V1281.14H330.586V1236.06H286.991V1281.14ZM557.907 1281.14H597.499V1281.14H599.224V1236.06L559.654 1236.06V1236.06H557.907V1281.14ZM600.632 1281.14H644.41V1236.06H600.632V1281.14ZM645.819 1281.14H689.598V1236.06H645.819V1281.14ZM691.006 1281.14H695.029V1281.14H734.601V1236.06H691.006V1281.14ZM961.922 1281.14H1001.51V1281.14H1003.24V1236.06L963.669 1236.06V1236.06H961.922V1281.14ZM1004.65 1281.14H1048.42V1236.06H1004.65V1281.14ZM1049.83 1281.14H1093.61V1236.06H1049.83V1281.14ZM1095.02 1281.14H1099.04V1281.14H1138.62V1236.06H1095.02V1281.14ZM1365.94 1281.14H1405.53V1281.14H1407.25V1236.06L1367.68 1236.06V1236.06H1365.94V1281.14ZM1408.66 1281.14H1452.44V1236.06H1408.66V1281.14ZM1453.85 1281.14H1497.63V1236.06H1453.85V1281.14ZM1499.04 1281.14H1503.06V1281.14H1542.63V1236.06H1499.04V1281.14ZM1769.95 1281.14H1809.54V1281.14H1811.27V1236.06L1771.7 1236.06V1236.06H1769.95V1281.14ZM1812.67 1281.14H1856.46V1236.06H1812.67V1281.14ZM1857.86 1281.14H1901.64V1236.06H1857.86V1281.14ZM18.3545 1281.14H62.1328V1236.06H18.3545V1281.14ZM63.541 1281.14H107.298V1236.06H63.541V1281.14ZM108.707 1281.14H152.484V1236.06H108.707V1281.14ZM332.179 1281.14H375.773V1236.06H332.179V1281.14ZM377.182 1281.14H420.961V1236.06H377.182V1281.14ZM422.369 1281.14H466.147V1236.06H422.369V1281.14ZM467.556 1281.14H511.312V1236.06H467.556V1281.14ZM512.722 1281.14H556.499V1236.06H512.722V1281.14ZM736.193 1281.14H779.788V1236.06H736.193V1281.14ZM781.196 1281.14H824.976V1236.06H781.196V1281.14ZM826.385 1281.14H870.162V1236.06H826.385V1281.14ZM871.57 1281.14H915.328V1236.06H871.57V1281.14ZM916.736 1281.14H960.514V1236.06H916.736V1281.14ZM1140.21 1281.14H1183.8V1236.06H1140.21V1281.14ZM1185.21 1281.14H1228.99V1236.06H1185.21V1281.14ZM1230.4 1281.14H1274.18V1236.06H1230.4V1281.14ZM1275.58 1281.14H1319.34V1236.06H1275.58V1281.14ZM1320.75 1281.14H1364.53V1236.06H1320.75V1281.14ZM1544.22 1281.14H1587.82V1236.06H1544.22V1281.14ZM1589.23 1281.14H1633V1236.06H1589.23V1281.14ZM1634.41 1281.14H1678.19V1236.06H1634.41V1281.14ZM1679.6 1281.14H1723.36V1236.06H1679.6V1281.14ZM1724.77 1281.14H1768.54V1236.06H1724.77V1281.14ZM18.3545 1234.61H62.1318V1195.12H18.3545V1234.61ZM63.541 1234.61H107.298V1195.12H63.541V1234.61ZM108.707 1234.61H152.484V1195.12H108.707V1234.61ZM153.893 1234.61H195.209V1195.12H153.893V1234.61ZM196.617 1234.61H240.396V1195.12H196.617V1234.61ZM241.805 1234.61H285.583V1195.12H241.805V1234.61ZM286.991 1234.61H330.586V1195.12H286.991V1234.61ZM332.179 1234.61H375.773V1195.12H332.179V1234.61ZM377.182 1234.61H420.96V1195.12H377.182V1234.61ZM422.369 1234.61H466.147V1195.12H422.369V1234.61ZM467.556 1234.61H511.312V1195.12H467.556V1234.61ZM512.722 1234.61H556.499V1195.12H512.722V1234.61ZM557.907 1234.61H599.224V1195.12H557.907V1234.61ZM600.632 1234.61H644.41V1195.12H600.632V1234.61ZM645.819 1234.61H689.598V1195.12H645.819V1234.61ZM691.006 1234.61H734.601V1195.12H691.006V1234.61ZM736.193 1234.61H779.788V1195.12H736.193V1234.61ZM781.196 1234.61H824.975V1195.12H781.196V1234.61ZM826.385 1234.61H870.162V1195.12H826.385V1234.61ZM871.57 1234.61H915.327V1195.12H871.57V1234.61ZM916.736 1234.61H960.514V1195.12H916.736V1234.61ZM961.923 1234.61H1003.24V1195.12H961.923V1234.61ZM1004.65 1234.61H1048.43V1195.12H1004.65V1234.61ZM1049.83 1234.61H1093.61V1195.12H1049.83V1234.61ZM1095.02 1234.61H1138.62V1195.12H1095.02V1234.61ZM1140.21 1234.61H1183.8V1195.12H1140.21V1234.61ZM1185.21 1234.61H1228.99V1195.12H1185.21V1234.61ZM1230.4 1234.61H1274.18V1195.12H1230.4V1234.61ZM1275.58 1234.61H1319.34V1195.12H1275.58V1234.61ZM1320.75 1234.61H1364.53V1195.12H1320.75V1234.61ZM1365.94 1234.61H1407.25V1195.12H1365.94V1234.61ZM1408.66 1234.61H1452.44V1195.12H1408.66V1234.61ZM1453.85 1234.61H1497.63V1195.12H1453.85V1234.61ZM1499.04 1234.61H1542.63V1195.12H1499.04V1234.61ZM1544.22 1234.61H1587.82V1195.12H1544.22V1234.61ZM1589.23 1234.61H1633V1195.12H1589.23V1234.61ZM1634.41 1234.61H1678.19V1195.12H1634.41V1234.61ZM1679.6 1234.61H1723.36V1195.12H1679.6V1234.61ZM1724.77 1234.61H1768.54V1195.12H1724.77V1234.61ZM1769.95 1234.61H1811.27V1195.12H1769.95V1234.61ZM1812.68 1234.61H1856.46V1195.12H1812.68V1234.61ZM1857.86 1234.61H1901.64V1195.12H1857.86V1234.61ZM18.3545 1193.67H62.1318V1148.58H18.3545V1193.67ZM63.541 1193.67H107.298V1148.58H63.541V1193.67ZM108.706 1193.67H152.484V1148.58H108.706V1193.67ZM153.893 1193.67H195.209V1148.58H153.893V1193.67ZM196.617 1193.67H240.396V1148.58H196.617V1193.67ZM241.805 1193.67H285.583V1148.58H241.805V1193.67ZM286.991 1193.67H330.586V1148.58H286.991V1193.67ZM332.179 1193.67H375.773V1148.58H332.179V1193.67ZM377.182 1193.67H420.96V1148.58H377.182V1193.67ZM422.369 1193.67H466.147V1148.58H422.369V1193.67ZM467.556 1193.67H511.312V1148.58H467.556V1193.67ZM512.721 1193.67H556.499V1148.58H512.721V1193.67ZM557.907 1193.67H599.224V1148.58H557.907V1193.67ZM600.632 1193.67H644.41V1148.58H600.632V1193.67ZM645.819 1193.67H689.598V1148.58H645.819V1193.67ZM691.006 1193.67H734.601V1148.58H691.006V1193.67ZM736.193 1193.67H779.788V1148.58H736.193V1193.67ZM781.196 1193.67H824.975V1148.58H781.196V1193.67ZM826.384 1193.67H870.162V1148.58H826.384V1193.67ZM871.57 1193.67H915.327V1148.58H871.57V1193.67ZM916.735 1193.67H960.514V1148.58H916.735V1193.67ZM961.923 1193.67H1003.24V1148.58H961.923V1193.67ZM1004.65 1193.67H1048.43V1148.58H1004.65V1193.67ZM1049.83 1193.67H1093.61V1148.58H1049.83V1193.67ZM1095.02 1193.67H1138.62V1148.58H1095.02V1193.67ZM1140.21 1193.67H1183.8V1148.58H1140.21V1193.67ZM1185.21 1193.67H1228.99V1148.58H1185.21V1193.67ZM1230.4 1193.67H1274.18V1148.58H1230.4V1193.67ZM1275.58 1193.67H1319.34V1148.58H1275.58V1193.67ZM1320.75 1193.67H1364.53V1148.58H1320.75V1193.67ZM1365.94 1193.67H1407.25V1148.58H1365.94V1193.67ZM1408.66 1193.67H1452.44V1148.58H1408.66V1193.67ZM1453.85 1193.67H1497.63V1148.58H1453.85V1193.67ZM1499.04 1193.67H1542.63V1148.58H1499.04V1193.67ZM1544.22 1193.67H1587.82V1148.58H1544.22V1193.67ZM1589.23 1193.67H1633V1148.58H1589.23V1193.67ZM1634.41 1193.67H1678.19V1148.58H1634.41V1193.67ZM1679.6 1193.67H1723.36V1148.58H1679.6V1193.67ZM1724.76 1193.67H1768.54V1148.58H1724.76V1193.67ZM1769.95 1193.67H1811.27V1148.58H1769.95V1193.67ZM1812.68 1193.67H1856.46V1148.58H1812.68V1193.67ZM1857.86 1193.67H1901.64V1148.58H1857.86V1193.67ZM18.5127 1142.81H18.3545V1147.13H62.1318V1102.06H18.5127V1142.81ZM63.6914 1142.81H63.541V1147.13H107.298V1102.06H63.6914V1142.81ZM108.849 1142.81H108.706V1147.13H152.484V1102.06H108.849V1142.81ZM154.027 1142.81H153.893V1147.13H195.209V1102.06H154.027V1142.81ZM196.744 1142.81H196.617V1147.13H240.396V1102.06H196.744V1142.81ZM241.923 1142.81H241.805V1147.13H285.583V1102.06H241.923V1142.81ZM287.103 1142.81H286.991V1147.13H330.586V1102.06H287.103V1142.81ZM332.281 1142.81H332.179V1147.13H375.773V1102.06H332.281V1142.81ZM377.276 1142.81H377.182V1147.13H420.96V1102.06H377.276V1142.81ZM422.456 1142.81H422.369V1147.13H466.147V1102.06H422.456V1142.81ZM467.635 1142.81H467.556V1147.13H511.312V1102.06H467.635V1142.81ZM512.792 1142.81H512.721V1147.13H556.499V1102.06H512.792V1142.81ZM557.97 1142.81H557.907V1147.13H599.224V1102.06H557.97V1142.81ZM600.687 1142.81H600.632V1147.13H644.41V1102.06H600.687V1142.81ZM645.866 1142.81H645.819V1147.13H689.598V1102.06H645.866V1142.81ZM691.045 1142.81H691.006V1147.13H734.601V1102.06H691.045V1142.81ZM736.225 1142.81H736.193V1147.13H779.788V1102.06H736.225V1142.81ZM781.22 1142.81H781.196V1147.13H824.975V1102.06H781.22V1142.81ZM826.399 1142.81H826.384V1147.13H870.162V1102.06H826.399V1142.81ZM871.577 1142.81H871.57V1147.13H915.327V1102.06H871.577V1142.81ZM916.735 1147.13H960.514V1142.81H960.505V1102.06H916.735V1147.13ZM961.923 1147.13H1003.24V1142.81H1003.22V1102.06H961.923V1147.13ZM1004.65 1147.13H1048.43V1142.81H1048.4V1102.06H1004.65V1147.13ZM1049.83 1147.13H1093.61V1142.81H1093.58V1102.06H1049.83V1147.13ZM1095.02 1147.13H1138.62V1142.81H1138.58V1102.06H1095.02V1147.13ZM1140.21 1147.13H1183.8V1142.81H1183.75V1102.06H1140.21V1147.13ZM1185.21 1147.13H1228.99V1142.81H1228.93V1102.06H1185.21V1147.13ZM1230.4 1147.13H1274.18V1142.81H1274.11V1102.06H1230.4V1147.13ZM1275.58 1147.13H1319.34V1142.81H1319.27V1102.06H1275.58V1147.13ZM1320.75 1147.13H1364.53V1142.81H1364.45V1102.06H1320.75V1147.13ZM1365.94 1147.13H1407.25V1142.81H1407.17V1102.06H1365.94V1147.13ZM1408.66 1147.13H1452.44V1142.81H1452.34V1102.06H1408.66V1147.13ZM1453.85 1147.13H1497.63V1142.81H1497.52V1102.06H1453.85V1147.13ZM1499.04 1147.13H1542.63V1142.81H1542.52V1102.06H1499.04V1147.13ZM1544.22 1147.13H1587.82V1142.81H1587.7V1102.06H1544.22V1147.13ZM1589.23 1147.13H1633V1142.81H1632.88V1102.06H1589.23V1147.13ZM1634.41 1147.13H1678.19V1142.81H1678.06V1102.06H1634.41V1147.13ZM1679.6 1147.13H1723.36V1142.81H1723.21V1102.06H1679.6V1147.13ZM1724.76 1147.13H1768.54V1142.81H1768.39V1102.06H1724.76V1147.13ZM1769.95 1147.13H1811.27V1142.81H1811.11V1102.06H1769.95V1147.13ZM1812.68 1147.13H1856.46V1142.81H1856.29V1102.06H1812.68V1147.13ZM1857.86 1147.13H1901.64V1142.81H1901.47V1102.06H1857.86V1147.13ZM154.027 1100.6H193.611V1100.61H195.335V1055.51H154.027V1100.6ZM196.744 1100.61H240.515V1055.51H196.744V1100.61ZM241.923 1100.61H285.694V1055.51H241.923V1100.61ZM287.103 1100.61H291.125V1100.6H330.688V1055.51H287.103V1100.61ZM557.97 1100.6H597.555V1100.61H599.278V1055.51H557.97V1100.6ZM600.687 1100.61H644.458V1055.51H600.687V1100.61ZM645.866 1100.61H689.637V1055.51H645.866V1100.61ZM691.045 1100.61H695.067V1100.6H734.632V1055.51H691.045V1100.61ZM961.913 1100.6H1001.5V1100.61H1003.22V1055.51H961.913V1100.6ZM1004.63 1100.61H1048.4V1055.51H1004.63V1100.61ZM1049.81 1100.61H1093.58V1055.51H1049.81V1100.61ZM1094.99 1100.61H1099.01V1100.6H1138.58V1055.51H1094.99V1100.61ZM1365.86 1100.6H1405.44V1100.61H1407.17V1055.51H1365.86V1100.6ZM1408.57 1100.61H1452.34V1055.51H1408.57V1100.61ZM1453.75 1100.61H1497.52V1055.51H1453.75V1100.61ZM1498.93 1100.61H1502.95V1100.6H1542.52V1055.51H1498.93V1100.61ZM1769.8 1100.6H1809.38V1100.61H1811.11V1055.51H1769.8V1100.6ZM1812.52 1100.61H1856.29V1055.51H1812.52V1100.61ZM1857.7 1100.61H1901.47V1055.51H1857.7V1100.61ZM18.5127 1100.6H62.2832V1055.51H18.5127V1100.6ZM63.6914 1100.6H107.44V1055.51H63.6914V1100.6ZM108.849 1100.6H152.619V1055.51H108.849V1100.6ZM332.281 1100.6H375.868V1055.51H332.281V1100.6ZM377.276 1100.6H421.048V1055.51H377.276V1100.6ZM422.456 1100.6H466.226V1055.51H422.456V1100.6ZM467.635 1100.6H511.384V1055.51H467.635V1100.6ZM512.792 1100.6H556.562V1055.51H512.792V1100.6ZM736.225 1100.6H779.812V1055.51H736.225V1100.6ZM781.22 1100.6H824.991V1055.51H781.22V1100.6ZM826.399 1100.6H870.169V1055.51H826.399V1100.6ZM871.577 1100.6H915.327V1055.51H871.577V1100.6ZM916.735 1100.6H960.505V1055.51H916.735V1100.6ZM1140.17 1100.6H1183.75V1055.51H1140.17V1100.6ZM1185.16 1100.6H1228.93V1055.51H1185.16V1100.6ZM1230.34 1100.6H1274.11V1055.51H1230.34V1100.6ZM1275.52 1100.6H1319.27V1055.51H1275.52V1100.6ZM1320.68 1100.6H1364.45V1055.51H1320.68V1100.6ZM1544.11 1100.6H1587.7V1055.51H1544.11V1100.6ZM1589.11 1100.6H1632.88V1055.51H1589.11V1100.6ZM1634.29 1100.6H1678.06V1055.51H1634.29V1100.6ZM1679.46 1100.6H1723.21V1055.51H1679.46V1100.6ZM1724.62 1100.6H1768.39V1055.51H1724.62V1100.6ZM18.5127 1054.06H62.2832V1008.98H18.5127V1054.06ZM63.6914 1054.06H107.44V1008.98H63.6914V1054.06ZM108.849 1054.06H152.619V1008.98H108.849V1054.06ZM154.027 1054.06H195.335V1008.98H154.027V1054.06ZM196.744 1054.06H240.515V1008.98H196.744V1054.06ZM241.923 1054.06H285.694V1008.98H241.923V1054.06ZM287.103 1054.06H330.688V1008.98H287.103V1054.06ZM332.281 1054.06H375.868V1008.98H332.281V1054.06ZM377.276 1054.06H421.048V1008.98H377.276V1054.06ZM422.456 1054.06H466.226V1008.98H422.456V1054.06ZM467.635 1054.06H511.384V1008.98H467.635V1054.06ZM512.792 1054.06H556.562V1008.98H512.792V1054.06ZM557.97 1054.06H599.278V1008.98H557.97V1054.06ZM600.687 1054.06H644.458V1008.98H600.687V1054.06ZM645.866 1054.06H689.637V1008.98H645.866V1054.06ZM691.045 1054.06H734.632V1008.98H691.045V1054.06ZM736.225 1054.06H779.812V1008.98H736.225V1054.06ZM781.22 1054.06H824.991V1008.98H781.22V1054.06ZM826.399 1054.06H870.169V1008.98H826.399V1054.06ZM871.577 1054.06H915.327V1008.98H871.577V1054.06ZM916.735 1054.06H960.505V1008.98H916.735V1054.06ZM961.913 1054.06H1003.22V1008.98H961.913V1054.06ZM1004.63 1054.06H1048.4V1008.98H1004.63V1054.06ZM1049.81 1054.06H1093.58V1008.98H1049.81V1054.06ZM1094.99 1054.06H1138.58V1008.98H1094.99V1054.06ZM1140.17 1054.06H1183.75V1008.98H1140.17V1054.06ZM1185.16 1054.06H1228.93V1008.98H1185.16V1054.06ZM1230.34 1054.06H1274.11V1008.98H1230.34V1054.06ZM1275.52 1054.06H1319.27V1008.98H1275.52V1054.06ZM1320.68 1054.06H1364.45V1008.98H1320.68V1054.06ZM1365.86 1054.06H1407.17V1008.98H1365.86V1054.06ZM1408.57 1054.06H1452.34V1008.98H1408.57V1054.06ZM1453.75 1054.06H1497.52V1008.98H1453.75V1054.06ZM1498.93 1054.06H1542.52V1008.98H1498.93V1054.06ZM1544.11 1054.06H1587.7V1008.98H1544.11V1054.06ZM1589.11 1054.06H1632.88V1008.98H1589.11V1054.06ZM1634.29 1054.06H1678.06V1008.98H1634.29V1054.06ZM1679.46 1054.06H1723.21V1008.98H1679.46V1054.06ZM1724.62 1054.06H1768.39V1008.98H1724.62V1054.06ZM1769.8 1054.06H1811.11V1008.98H1769.8V1054.06ZM1812.52 1054.06H1856.29V1008.98H1812.52V1054.06ZM1857.7 1054.06H1901.47V1008.98H1857.7V1054.06ZM18.5127 1007.53H62.2832V962.432H18.5127V1007.53ZM63.6914 1007.53H107.44V962.432H63.6914V1007.53ZM108.849 1007.53H152.619V962.432H108.849V1007.53ZM154.027 1007.53H195.335V962.433H155.773V962.432H154.027V1007.53ZM196.744 1007.53H240.515V962.433H196.744V1007.53ZM241.923 1007.53H285.694V962.433H241.923V1007.53ZM287.103 1007.53H330.688V962.433H287.103V1007.53ZM362.038 962.433H332.281V1007.53H375.868V962.432H362.038V962.433ZM377.276 1007.53H421.048V962.432H377.276V1007.53ZM422.456 1007.53H466.226V962.432H422.456V1007.53ZM467.635 1007.53H511.384V962.432H467.635V1007.53ZM512.792 1007.53H556.562V962.432H512.792V1007.53ZM557.97 1007.53H599.278V962.433H559.716V962.432H557.97V1007.53ZM600.687 1007.53H644.458V962.433H600.687V1007.53ZM645.866 1007.53H689.637V962.433H645.866V1007.53ZM691.045 1007.53H734.632V962.433H691.045V1007.53ZM765.981 962.433H736.225V1007.53H779.812V962.432H765.981V962.433ZM781.22 1007.53H824.991V962.432H781.22V1007.53ZM826.399 1007.53H870.169V962.432H826.399V1007.53ZM871.577 1007.53H915.327V962.432H871.577V1007.53ZM916.735 1007.53H960.505V962.432H916.735V1007.53ZM961.913 1007.53H1003.22V962.433H963.659V962.432H961.913V1007.53ZM1004.63 1007.53H1048.4V962.433H1004.63V1007.53ZM1049.81 1007.53H1093.58V962.433H1049.81V1007.53ZM1094.99 1007.53H1138.58V962.433H1094.99V1007.53ZM1169.92 962.433H1140.17V1007.53H1183.75V962.432H1169.92V962.433ZM1185.16 1007.53H1228.93V962.432H1185.16V1007.53ZM1230.34 1007.53H1274.11V962.432H1230.34V1007.53ZM1275.52 1007.53H1319.27V962.432H1275.52V1007.53ZM1320.68 1007.53H1364.45V962.432H1320.68V1007.53ZM1365.86 1007.53H1407.17V962.433H1367.6V962.432H1365.86V1007.53ZM1408.57 1007.53H1452.34V962.433H1408.57V1007.53ZM1453.75 1007.53H1497.52V962.433H1453.75V1007.53ZM1498.93 1007.53H1542.52V962.433H1498.93V1007.53ZM1573.87 962.433H1544.11V1007.53H1587.7V962.432H1573.87V962.433ZM1589.11 1007.53H1632.88V962.432H1589.11V1007.53ZM1634.29 1007.53H1678.06V962.432H1634.29V1007.53ZM1679.46 1007.53H1723.21V962.432H1679.46V1007.53ZM1724.62 1007.53H1768.39V962.432H1724.62V1007.53ZM1769.8 1007.53H1811.11V962.433H1771.55V962.432H1769.8V1007.53ZM1812.52 1007.53H1856.29V962.433H1812.52V1007.53ZM1857.7 1007.53H1901.47V962.433H1857.7V1007.53ZM154.027 960.98H193.611V960.981H195.335V915.915H155.773V915.914H154.027V960.98ZM196.744 960.981H240.515V915.915H196.744V960.981ZM241.923 960.981H285.694V915.915H241.923V960.981ZM287.103 960.981H291.125V960.98H330.688V915.915H287.103V960.981ZM557.97 960.98H597.555V960.981H599.278V915.915H559.716V915.914H557.97V960.98ZM600.687 960.981H644.458V915.915H600.687V960.981ZM645.866 960.981H689.637V915.915H645.866V960.981ZM691.045 960.981H695.067V960.98H734.632V915.915H691.045V960.981ZM961.913 960.98H1001.5V960.981H1003.22V915.915H963.659V915.914H961.913V960.98ZM1004.63 960.981H1048.4V915.915H1004.63V960.981ZM1049.81 960.981H1093.58V915.915H1049.81V960.981ZM1094.99 960.981H1099.01V960.98H1138.58V915.915H1094.99V960.981ZM1365.86 960.98H1405.44V960.981H1407.17V915.915H1367.6V915.914H1365.86V960.98ZM1408.57 960.981H1452.34V915.915H1408.57V960.981ZM1453.75 960.981H1497.52V915.915H1453.75V960.981ZM1498.93 960.981H1502.95V960.98H1542.52V915.915H1498.93V960.981ZM1769.8 960.98H1809.38V960.981H1811.11V915.915H1771.55V915.914H1769.8V960.98ZM1812.52 960.981H1856.29V915.915H1812.52V960.981ZM1857.7 960.981H1901.47V915.915H1857.7V960.981ZM18.5127 960.98H62.2832V915.914H18.5127V960.98ZM63.6914 960.98H107.44V915.914H63.6914V960.98ZM108.849 960.98H152.619V915.914H108.849V960.98ZM362.038 915.915H332.281V960.98H375.868V915.914H362.038V915.915ZM377.276 960.98H421.048V915.914H377.276V960.98ZM422.456 960.98H466.226V915.914H422.456V960.98ZM467.635 960.98H511.384V915.914H467.635V960.98ZM512.792 960.98H556.562V915.914H512.792V960.98ZM765.981 915.915H736.225V960.98H779.812V915.914H765.981V915.915ZM781.22 960.98H824.991V915.914H781.22V960.98ZM826.399 960.98H870.169V915.914H826.399V960.98ZM871.577 960.98H915.327V915.914H871.577V960.98ZM916.735 960.98H960.505V915.914H916.735V960.98ZM1169.92 915.915H1140.17V960.98H1183.75V915.914H1169.92V915.915ZM1185.16 960.98H1228.93V915.914H1185.16V960.98ZM1230.34 960.98H1274.11V915.914H1230.34V960.98ZM1275.52 960.98H1319.27V915.914H1275.52V960.98ZM1320.68 960.98H1364.45V915.914H1320.68V960.98ZM1573.87 915.915H1544.11V960.98H1587.7V915.914H1573.87V915.915ZM1589.11 960.98H1632.88V915.914H1589.11V960.98ZM1634.29 960.98H1678.06V915.914H1634.29V960.98ZM1679.46 960.98H1723.21V915.914H1679.46V960.98ZM1724.62 960.98H1768.39V915.914H1724.62V960.98ZM154.027 914.463H193.611V914.464H195.335V869.378H155.773V869.377H154.027V914.463ZM196.744 914.464H240.515V869.378H196.744V914.464ZM241.923 914.464H285.694V869.378H241.923V914.464ZM287.103 914.464H291.125V914.463H330.688V869.378H287.103V914.464ZM557.97 914.463H597.555V914.464H599.278V869.378H559.716V869.377H557.97V914.463ZM600.687 914.464H644.458V869.378H600.687V914.464ZM645.866 914.464H689.637V869.378H645.866V914.464ZM691.045 914.464H695.067V914.463H734.632V869.378H691.045V914.464ZM961.913 914.463H1001.5V914.464H1003.22V869.378H963.659V869.377H961.913V914.463ZM1004.63 914.464H1048.4V869.378H1004.63V914.464ZM1049.81 914.464H1093.58V869.378H1049.81V914.464ZM1094.99 914.464H1099.01V914.463H1138.58V869.378H1094.99V914.464ZM1365.86 914.463H1405.44V914.464H1407.17V869.378H1367.6V869.377H1365.86V914.463ZM1408.57 914.464H1452.34V869.378H1408.57V914.464ZM1453.75 914.464H1497.52V869.378H1453.75V914.464ZM1498.93 914.464H1502.95V914.463H1542.52V869.378H1498.93V914.464ZM1769.8 914.463H1809.38V914.464H1811.11V869.378H1771.55V869.377H1769.8V914.463ZM1812.52 914.464H1856.29V869.378H1812.52V914.464ZM1857.7 914.464H1901.47V869.378H1857.7V914.464ZM18.5127 914.463H62.2832V869.377H18.5127V914.463ZM63.6914 914.463H107.44V869.377H63.6914V914.463ZM108.849 914.463H152.619V869.377H108.849V914.463ZM362.038 869.378H332.281V914.463H375.868V869.377H362.038V869.378ZM377.276 914.463H421.048V869.377H377.276V914.463ZM422.456 914.463H466.226V869.377H422.456V914.463ZM467.635 914.463H511.384V869.377H467.635V914.463ZM512.792 914.463H556.562V869.377H512.792V914.463ZM765.981 869.378H736.225V914.463H779.812V869.377H765.981V869.378ZM781.22 914.463H824.991V869.377H781.22V914.463ZM826.399 914.463H870.169V869.377H826.399V914.463ZM871.577 914.463H915.327V869.377H871.577V914.463ZM916.735 914.463H960.505V869.377H916.735V914.463ZM1169.92 869.378H1140.17V914.463H1183.75V869.377H1169.92V869.378ZM1185.16 914.463H1228.93V869.377H1185.16V914.463ZM1230.34 914.463H1274.11V869.377H1230.34V914.463ZM1275.52 914.463H1319.27V869.377H1275.52V914.463ZM1320.68 914.463H1364.45V869.377H1320.68V914.463ZM1573.87 869.378H1544.11V914.463H1587.7V869.377H1573.87V869.378ZM1589.11 914.463H1632.88V869.377H1589.11V914.463ZM1634.29 914.463H1678.06V869.377H1634.29V914.463ZM1679.46 914.463H1723.21V869.377H1679.46V914.463ZM1724.62 914.463H1768.39V869.377H1724.62V914.463ZM18.5127 867.927H62.2822V828.436H18.5127V867.927ZM63.6914 867.927H107.44V828.436H63.6914V867.927ZM108.849 867.927H152.619V828.436H108.849V867.927ZM154.027 867.927H195.335V828.436H154.027V867.927ZM196.744 867.927H240.515V828.436H196.744V867.927ZM241.923 867.927H285.694V828.436H241.923V867.927ZM287.103 867.927H330.688V828.436H287.103V867.927ZM332.281 867.927H375.868V828.436H332.281V867.927ZM377.276 867.927H421.047V828.436H377.276V867.927ZM422.456 867.927H466.226V828.436H422.456V867.927ZM467.635 867.927H511.384V828.436H467.635V867.927ZM512.792 867.927H556.562V828.436H512.792V867.927ZM557.971 867.927H599.278V828.436H557.971V867.927ZM600.687 867.927H644.458V828.436H600.687V867.927ZM645.866 867.927H689.637V828.436H645.866V867.927ZM691.045 867.927H734.632V828.436H691.045V867.927ZM736.225 867.927H779.811V828.436H736.225V867.927ZM781.22 867.927H824.99V828.436H781.22V867.927ZM826.399 867.927H870.169V828.436H826.399V867.927ZM871.577 867.927H915.326V828.436H871.577V867.927ZM916.735 867.927H960.505V828.436H916.735V867.927ZM961.913 867.927H1003.22V828.436H961.913V867.927ZM1004.63 867.927H1048.4V828.436H1004.63V867.927ZM1049.81 867.927H1093.58V828.436H1049.81V867.927ZM1094.99 867.927H1138.58V828.436H1094.99V867.927ZM1140.17 867.927H1183.75V828.436H1140.17V867.927ZM1185.16 867.927H1228.93V828.436H1185.16V867.927ZM1230.34 867.927H1274.11V828.436H1230.34V867.927ZM1275.52 867.927H1319.27V828.436H1275.52V867.927ZM1320.68 867.927H1364.45V828.436H1320.68V867.927ZM1365.86 867.927H1407.17V828.436H1365.86V867.927ZM1408.57 867.927H1452.34V828.436H1408.57V867.927ZM1453.75 867.927H1497.52V828.436H1453.75V867.927ZM1498.93 867.927H1542.52V828.436H1498.93V867.927ZM1544.11 867.927H1587.7V828.436H1544.11V867.927ZM1589.11 867.927H1632.88V828.436H1589.11V867.927ZM1634.29 867.927H1678.06V828.436H1634.29V867.927ZM1679.46 867.927H1723.21V828.436H1679.46V867.927ZM1724.62 867.927H1768.39V828.436H1724.62V867.927ZM1769.8 867.927H1811.11V828.436H1769.8V867.927ZM1812.52 867.927H1856.29V828.436H1812.52V867.927ZM1857.7 867.927H1901.47V828.436H1857.7V867.927ZM18.5117 826.985H62.2822V781.891H18.5117V826.985ZM63.6904 826.985H107.44V781.891H63.6904V826.985ZM108.849 826.985H152.619V781.891H108.849V826.985ZM154.027 826.985H195.335V781.891H154.027V826.985ZM196.744 826.985H240.515V781.891H196.744V826.985ZM241.923 826.985H285.694V781.891H241.923V826.985ZM287.103 826.985H330.688V781.891H287.103V826.985ZM332.281 826.985H375.868V781.891H332.281V826.985ZM377.276 826.985H421.047V781.891H377.276V826.985ZM422.455 826.985H466.226V781.891H422.455V826.985ZM467.634 826.985H511.384V781.891H467.634V826.985ZM512.792 826.985H556.562V781.891H512.792V826.985ZM557.971 826.985H599.278V781.891H557.971V826.985ZM600.687 826.985H644.458V781.891H600.687V826.985ZM645.866 826.985H689.637V781.891H645.866V826.985ZM691.045 826.985H734.632V781.891H691.045V826.985ZM736.225 826.985H779.811V781.891H736.225V826.985ZM781.22 826.985H824.99V781.891H781.22V826.985ZM826.398 826.985H870.169V781.891H826.398V826.985ZM871.577 826.985H915.326V781.891H871.577V826.985ZM916.734 826.985H960.505V781.891H916.734V826.985ZM961.913 826.985H1003.22V781.891H961.913V826.985ZM1004.63 826.985H1048.4V781.891H1004.63V826.985ZM1049.81 826.985H1093.58V781.891H1049.81V826.985ZM1094.99 826.985H1138.58V781.891H1094.99V826.985ZM1140.17 826.985H1183.75V781.891H1140.17V826.985ZM1185.16 826.985H1228.93V781.891H1185.16V826.985ZM1230.34 826.985H1274.11V781.891H1230.34V826.985ZM1275.52 826.985H1319.27V781.891H1275.52V826.985ZM1320.68 826.985H1364.45V781.891H1320.68V826.985ZM1365.86 826.985H1407.17V781.891H1365.86V826.985ZM1408.57 826.985H1452.34V781.891H1408.57V826.985ZM1453.75 826.985H1497.52V781.891H1453.75V826.985ZM1498.93 826.985H1542.52V781.891H1498.93V826.985ZM1544.11 826.985H1587.7V781.891H1544.11V826.985ZM1589.11 826.985H1632.88V781.891H1589.11V826.985ZM1634.29 826.985H1678.06V781.891H1634.29V826.985ZM1679.46 826.985H1723.21V781.891H1679.46V826.985ZM1724.62 826.985H1768.39V781.891H1724.62V826.985ZM1769.8 826.985H1811.11V781.891H1769.8V826.985ZM1812.52 826.985H1856.29V781.891H1812.52V826.985ZM1857.7 826.985H1901.47V781.891H1857.7V826.985ZM18.5117 780.439H62.2822V776.359H62.1328V735.611H18.5117V780.439ZM63.6904 780.439H107.44V776.359H107.298V735.611H63.6904V780.439ZM108.849 780.439H152.619V776.359H152.484V735.611H108.849V780.439ZM154.027 780.439H195.335V776.36H195.209V735.612H155.64V735.611H154.027V780.439ZM196.744 780.439H240.515V776.36H240.396V735.612H196.744V780.439ZM241.923 780.439H285.694V776.36H285.583V735.612H241.923V780.439ZM287.103 780.439H330.688V776.359H330.586V735.612H287.103V780.439ZM361.941 735.612H332.281V780.439H375.868V776.359H375.773V735.611H361.941V735.612ZM377.276 780.439H421.047V776.359H420.961V735.611H377.276V780.439ZM422.455 780.439H466.226V776.359H466.147V735.611H422.455V780.439ZM467.634 780.439H511.384V776.359H511.312V735.611H467.634V780.439ZM512.792 780.439H556.562V776.359H556.499V735.611H512.792V780.439ZM557.971 780.439H599.278V776.36H599.224V735.612H559.654V735.611H557.971V780.439ZM600.687 780.439H644.458V776.36H644.41V735.612H600.687V780.439ZM645.866 780.439H689.637V776.36H689.598V735.612H645.866V780.439ZM691.045 780.439H734.632V776.359H734.601V735.612H691.045V780.439ZM765.956 735.612H736.225V780.439H779.811V776.359H779.788V735.611H765.956V735.612ZM781.22 780.439H824.99V776.359H824.976V735.611H781.22V780.439ZM826.398 780.439H870.169V776.359H870.162V735.611H826.398V780.439ZM871.577 780.439H915.326V735.611H871.577V780.439ZM916.736 776.359H916.734V780.439H960.505V735.611H916.736V776.359ZM961.922 776.359H961.913V780.439H1003.22V735.612H963.669V735.611H961.922V776.359ZM1004.65 776.36H1004.63V780.439H1048.4V735.612H1004.65V776.36ZM1049.83 776.36H1049.81V780.439H1093.58V735.612H1049.83V776.36ZM1095.02 776.36H1094.99V780.439H1138.58V735.612H1095.02V776.36ZM1169.97 735.612H1140.21V776.36H1140.17V780.439H1183.75V735.611H1169.97V735.612ZM1185.21 776.359H1185.16V780.439H1228.93V735.611H1185.21V776.359ZM1230.4 776.359H1230.34V780.439H1274.11V735.611H1230.4V776.359ZM1275.58 776.359H1275.52V780.439H1319.27V735.611H1275.58V776.359ZM1320.75 776.359H1320.68V780.439H1364.45V735.611H1320.75V776.359ZM1365.94 776.359H1365.86V780.439H1407.17V735.612H1367.68V735.611H1365.94V776.359ZM1408.66 776.36H1408.57V780.439H1452.34V735.612H1408.66V776.36ZM1453.85 776.36H1453.75V780.439H1497.52V735.612H1453.85V776.36ZM1499.04 776.36H1498.93V780.439H1542.52V735.612H1499.04V776.36ZM1573.99 735.612H1544.22V776.36H1544.11V780.439H1587.7V735.611H1573.99V735.612ZM1589.23 776.359H1589.11V780.439H1632.88V735.611H1589.23V776.359ZM1634.41 776.359H1634.29V780.439H1678.06V735.611H1634.41V776.359ZM1679.6 776.359H1679.46V780.439H1723.21V735.611H1679.6V776.359ZM1724.77 776.359H1724.62V780.439H1768.39V735.611H1724.77V776.359ZM1769.95 776.359H1769.8V780.439H1811.11V735.612H1771.7V735.611H1769.95V776.359ZM1812.68 776.36H1812.52V780.439H1856.29V735.612H1812.68V776.36ZM1857.86 776.36H1857.7V780.439H1901.47V735.612H1857.86V776.36ZM18.3545 733.906H62.1328V689.072H18.3545V733.906ZM63.541 733.906H107.298V689.072H63.541V733.906ZM108.707 733.906H152.484V689.072H108.707V733.906ZM153.893 733.906H195.209V689.072H153.893V733.906ZM196.617 733.906H240.396V689.072H196.617V733.906ZM241.805 733.906H285.583V689.072H241.805V733.906ZM286.991 733.906H330.586V689.072H286.991V733.906ZM332.179 733.906H375.773V689.072H332.179V733.906ZM377.182 733.906H420.961V689.072H377.182V733.906ZM422.369 733.906H466.147V689.072H422.369V733.906ZM467.556 733.906H511.312V689.072H467.556V733.906ZM512.722 733.906H556.499V689.072H512.722V733.906ZM557.907 733.906H599.224V689.072H557.907V733.906ZM600.632 733.906H644.41V689.072H600.632V733.906ZM645.819 733.906H689.598V689.072H645.819V733.906ZM691.006 733.906H734.601V689.072H691.006V733.906ZM736.193 733.906H779.788V689.072H736.193V733.906ZM781.196 733.906H824.976V689.072H781.196V733.906ZM826.385 733.906H870.162V689.072H826.385V733.906ZM871.57 733.906H915.328V689.072H871.57V733.906ZM916.736 733.906H960.514V689.072H916.736V733.906ZM961.922 733.906H1003.24V689.072H961.922V733.906ZM1004.65 733.906H1048.43V689.072H1004.65V733.906ZM1049.83 733.906H1093.61V689.072H1049.83V733.906ZM1095.02 733.906H1138.62V689.072H1095.02V733.906ZM1140.21 733.906H1183.8V689.072H1140.21V733.906ZM1185.21 733.906H1228.99V689.072H1185.21V733.906ZM1230.4 733.906H1274.18V689.072H1230.4V733.906ZM1275.58 733.906H1319.34V689.072H1275.58V733.906ZM1320.75 733.906H1364.53V689.072H1320.75V733.906ZM1365.94 733.906H1407.25V689.072H1365.94V733.906ZM1408.66 733.906H1452.44V689.072H1408.66V733.906ZM1453.85 733.906H1497.63V689.072H1453.85V733.906ZM1499.04 733.906H1542.63V689.072H1499.04V733.906ZM1544.22 733.906H1587.82V689.072H1544.22V733.906ZM1589.23 733.906H1633V689.072H1589.23V733.906ZM1634.41 733.906H1678.19V689.072H1634.41V733.906ZM1679.6 733.906H1723.36V689.072H1679.6V733.906ZM1724.77 733.906H1768.54V689.072H1724.77V733.906ZM1769.95 733.906H1811.27V689.072H1769.95V733.906ZM1812.68 733.906H1856.46V689.072H1812.68V733.906ZM1857.86 733.906H1901.64V689.072H1857.86V733.906ZM18.3545 687.622H62.1328V642.545H18.3545V687.622ZM63.541 687.622H107.298V642.545H63.541V687.622ZM108.707 687.622H152.484V642.545H108.707V687.622ZM153.893 687.622H195.209V642.545H153.893V687.622ZM196.617 687.622H240.396V642.545H196.617V687.622ZM241.805 687.622H285.583V642.545H241.805V687.622ZM286.991 687.622H330.586V642.545H286.991V687.622ZM332.179 687.622H375.773V642.545H332.179V687.622ZM377.182 687.622H420.961V642.545H377.182V687.622ZM422.369 687.622H466.147V642.545H422.369V687.622ZM467.556 687.622H511.312V642.545H467.556V687.622ZM512.722 687.622H556.499V642.545H512.722V687.622ZM557.907 687.622H599.224V642.545H557.907V687.622ZM600.632 687.622H644.41V642.545H600.632V687.622ZM645.819 687.622H689.598V642.545H645.819V687.622ZM691.006 687.622H734.601V642.545H691.006V687.622ZM736.193 687.622H779.788V642.545H736.193V687.622ZM781.196 687.622H824.976V642.545H781.196V687.622ZM826.385 687.622H870.162V642.545H826.385V687.622ZM871.57 687.622H915.328V642.545H871.57V687.622ZM916.736 687.622H960.514V642.545H916.736V687.622ZM961.922 687.622H1003.24V642.545H961.922V687.622ZM1004.65 687.622H1048.43V642.545H1004.65V687.622ZM1049.83 687.622H1093.61V642.545H1049.83V687.622ZM1095.02 687.622H1138.62V642.545H1095.02V687.622ZM1140.21 687.622H1183.8V642.545H1140.21V687.622ZM1185.21 687.622H1228.99V642.545H1185.21V687.622ZM1230.4 687.622H1274.18V642.545H1230.4V687.622ZM1275.58 687.622H1319.34V642.545H1275.58V687.622ZM1320.75 687.622H1364.53V642.545H1320.75V687.622ZM1365.94 687.622H1407.25V642.545H1365.94V687.622ZM1408.66 687.622H1452.44V642.545H1408.66V687.622ZM1453.85 687.622H1497.63V642.545H1453.85V687.622ZM1499.04 687.622H1542.63V642.545H1499.04V687.622ZM1544.22 687.622H1587.82V642.545H1544.22V687.622ZM1589.23 687.622H1633V642.545H1589.23V687.622ZM1634.41 687.622H1678.19V642.545H1634.41V687.622ZM1679.6 687.622H1723.36V642.545H1679.6V687.622ZM1724.77 687.622H1768.54V642.545H1724.77V687.622ZM1769.95 687.622H1811.27V642.545H1769.95V687.622ZM1812.68 687.622H1856.46V642.545H1812.68V687.622ZM1857.86 687.622H1901.64V642.545H1857.86V687.622ZM153.893 641.094H193.484V641.095H195.209V596.005H153.893V641.094ZM196.617 641.095H240.396V596.005H196.617V641.095ZM241.805 641.095H285.583V596.005H241.805V641.095ZM286.991 641.095H291.015V641.094H330.586V596.005H286.991V641.095ZM557.907 641.094H597.499V641.095H599.224V596.005H557.907V641.094ZM600.632 641.095H644.41V596.005H600.632V641.095ZM645.819 641.095H689.598V596.005H645.819V641.095ZM691.006 641.095H695.029V641.094H734.601V596.005H691.006V641.095ZM961.922 641.094H1001.51V641.095H1003.24V596.005H961.922V641.094ZM1004.65 641.095H1048.43V596.005H1004.65V641.095ZM1049.83 641.095H1093.61V596.005H1049.83V641.095ZM1095.02 641.095H1099.04V641.094H1138.62V596.005H1095.02V641.095ZM1365.94 641.094H1405.53V641.095H1407.25V596.005H1365.94V641.094ZM1408.66 641.095H1452.44V596.005H1408.66V641.095ZM1453.85 641.095H1497.63V596.005H1453.85V641.095ZM1499.04 641.095H1503.06V641.094H1542.63V596.005H1499.04V641.095ZM1769.95 641.094H1809.54V641.095H1811.27V596.005H1769.95V641.094ZM1812.68 641.095H1856.46V596.005H1812.68V641.095ZM1857.86 641.095H1901.64V596.005H1857.86V641.095ZM18.3545 641.094H62.1328V596.005H18.3545V641.094ZM63.541 641.094H107.298V596.005H63.541V641.094ZM108.707 641.094H152.484V596.005H108.707V641.094ZM332.179 641.094H375.773V596.005H332.179V641.094ZM377.182 641.094H420.961V596.005H377.182V641.094ZM422.369 641.094H466.147V596.005H422.369V641.094ZM467.556 641.094H511.312V596.005H467.556V641.094ZM512.722 641.094H556.499V596.005H512.722V641.094ZM736.193 641.094H779.788V596.005H736.193V641.094ZM781.196 641.094H824.976V596.005H781.196V641.094ZM826.385 641.094H870.162V596.005H826.385V641.094ZM871.57 641.094H915.328V596.005H871.57V641.094ZM916.736 641.094H960.514V596.005H916.736V641.094ZM1140.21 641.094H1183.8V596.005H1140.21V641.094ZM1185.21 641.094H1228.99V596.005H1185.21V641.094ZM1230.4 641.094H1274.18V596.005H1230.4V641.094ZM1275.58 641.094H1319.34V596.005H1275.58V641.094ZM1320.75 641.094H1364.53V596.005H1320.75V641.094ZM1544.22 641.094H1587.82V596.005H1544.22V641.094ZM1589.23 641.094H1633V596.005H1589.23V641.094ZM1634.41 641.094H1678.19V596.005H1634.41V641.094ZM1679.6 641.094H1723.36V596.005H1679.6V641.094ZM1724.77 641.094H1768.54V596.005H1724.77V641.094ZM153.893 594.554H193.484V594.555H195.209V549.493H155.64V549.492H153.893V594.554ZM196.617 594.555H240.396V549.493H196.617V594.555ZM241.805 594.555H285.583V549.493H241.805V594.555ZM286.991 594.555H291.015V594.554H330.586V549.493H286.991V594.555ZM557.907 594.554H597.499V594.555H599.224V549.493H559.654V549.492H557.907V594.554ZM600.632 594.555H644.41V549.493H600.632V594.555ZM645.819 594.555H689.598V549.493H645.819V594.555ZM691.006 594.555H695.029V594.554H734.601V549.493H691.006V594.555ZM961.922 594.554H1001.51V594.555H1003.24V549.493H963.669V549.492H961.922V594.554ZM1004.65 594.555H1048.43V549.493H1004.65V594.555ZM1049.83 594.555H1093.61V549.493H1049.83V594.555ZM1095.02 594.555H1099.04V594.554H1138.62V549.493H1095.02V594.555ZM1365.94 594.554H1405.53V594.555H1407.25V549.493H1367.68V549.492H1365.94V594.554ZM1408.66 594.555H1452.44V549.493H1408.66V594.555ZM1453.85 594.555H1497.63V549.493H1453.85V594.555ZM1499.04 594.555H1503.06V594.554H1542.63V549.493H1499.04V594.555ZM1769.95 594.554H1809.54V594.555H1811.27V549.493H1771.7V549.492H1769.95V594.554ZM1812.68 594.555H1856.46V549.493H1812.68V594.555ZM1857.86 594.555H1901.64V549.493H1857.86V594.555ZM18.3545 594.554H62.1328V549.492H18.3545V594.554ZM63.541 594.554H107.298V549.492H63.541V594.554ZM108.707 594.554H152.484V549.492H108.707V594.554ZM361.941 549.493H332.179V594.554H375.773V549.492H361.941V549.493ZM377.182 594.554H420.961V549.492H377.182V594.554ZM422.369 594.554H466.147V549.492H422.369V594.554ZM467.556 594.554H511.312V549.492H467.556V594.554ZM512.722 594.554H556.499V549.492H512.722V594.554ZM765.956 549.493H736.193V594.554H779.788V549.492H765.956V549.493ZM781.196 594.554H824.976V549.492H781.196V594.554ZM826.385 594.554H870.162V549.492H826.385V594.554ZM871.57 594.554H915.328V549.492H871.57V594.554ZM916.736 594.554H960.514V549.492H916.736V594.554ZM1169.97 549.493H1140.21V594.554H1183.8V549.492H1169.97V549.493ZM1185.21 594.554H1228.99V549.492H1185.21V594.554ZM1230.4 594.554H1274.18V549.492H1230.4V594.554ZM1275.58 594.554H1319.34V549.492H1275.58V594.554ZM1320.75 594.554H1364.53V549.492H1320.75V594.554ZM1573.99 549.493H1544.22V594.554H1587.82V549.492H1573.99V549.493ZM1589.23 594.554H1633V549.492H1589.23V594.554ZM1634.41 594.554H1678.19V549.492H1634.41V594.554ZM1679.6 594.554H1723.36V549.492H1679.6V594.554ZM1724.77 594.554H1768.54V549.492H1724.77V594.554ZM153.893 548.042H193.484V548.043H195.209V502.962H155.64V502.961H153.893V548.042ZM196.617 548.043H240.396V502.962H196.617V548.043ZM241.805 548.043H285.583V502.962H241.805V548.043ZM286.991 548.043H291.015V548.042H330.586V502.962H286.991V548.043ZM557.907 548.042H597.499V548.043H599.224V502.962H559.654V502.961H557.907V548.042ZM600.632 548.043H644.41V502.962H600.632V548.043ZM645.819 548.043H689.598V502.962H645.819V548.043ZM691.006 548.043H695.029V548.042H734.601V502.962H691.006V548.043ZM961.922 548.042H1001.51V548.043H1003.24V502.962H963.669V502.961H961.922V548.042ZM1004.65 548.043H1048.43V502.962H1004.65V548.043ZM1049.83 548.043H1093.61V502.962H1049.83V548.043ZM1095.02 548.043H1099.04V548.042H1138.62V502.962H1095.02V548.043ZM1365.94 548.042H1405.53V548.043H1407.25V502.962H1367.68V502.961H1365.94V548.042ZM1408.66 548.043H1452.44V502.962H1408.66V548.043ZM1453.85 548.043H1497.63V502.962H1453.85V548.043ZM1499.04 548.043H1503.06V548.042H1542.63V502.962H1499.04V548.043ZM1769.95 548.042H1809.54V548.043H1811.27V502.962H1771.7V502.961H1769.95V548.042ZM1812.68 548.043H1856.46V502.962H1812.68V548.043ZM1857.86 548.043H1901.64V502.962H1857.86V548.043ZM18.3545 548.042H62.1328V502.961H18.3545V548.042ZM63.541 548.042H107.298V502.961H63.541V548.042ZM108.707 548.042H152.484V502.961H108.707V548.042ZM361.941 502.962H332.179V548.042H375.773V502.961H361.941V502.962ZM377.182 548.042H420.961V502.961H377.182V548.042ZM422.369 548.042H466.147V502.961H422.369V548.042ZM467.556 548.042H511.312V502.961H467.556V548.042ZM512.722 548.042H556.499V502.961H512.722V548.042ZM765.956 502.962H736.193V548.042H779.788V502.961H765.956V502.962ZM781.196 548.042H824.976V502.961H781.196V548.042ZM826.385 548.042H870.162V502.961H826.385V548.042ZM871.57 548.042H915.328V502.961H871.57V548.042ZM916.736 548.042H960.514V502.961H916.736V548.042ZM1169.97 502.962H1140.21V548.042H1183.8V502.961H1169.97V502.962ZM1185.21 548.042H1228.99V502.961H1185.21V548.042ZM1230.4 548.042H1274.18V502.961H1230.4V548.042ZM1275.58 548.042H1319.34V502.961H1275.58V548.042ZM1320.75 548.042H1364.53V502.961H1320.75V548.042ZM1573.99 502.962H1544.22V548.042H1587.82V502.961H1573.99V502.962ZM1589.23 548.042H1633V502.961H1589.23V548.042ZM1634.41 548.042H1678.19V502.961H1634.41V548.042ZM1679.6 548.042H1723.36V502.961H1679.6V548.042ZM1724.77 548.042H1768.54V502.961H1724.77V548.042ZM18.3545 501.511H62.1318V462.024H18.3545V501.511ZM63.541 501.511H107.298V462.024H63.541V501.511ZM108.707 501.511H152.484V462.024H108.707V501.511ZM153.893 501.511H195.209V462.024H153.893V501.511ZM196.617 501.511H240.396V462.024H196.617V501.511ZM241.805 501.511H285.583V462.024H241.805V501.511ZM286.991 501.511H330.586V462.024H286.991V501.511ZM332.179 501.511H375.773V462.024H332.179V501.511ZM377.182 501.511H420.96V462.024H377.182V501.511ZM422.369 501.511H466.147V462.024H422.369V501.511ZM467.556 501.511H511.312V462.024H467.556V501.511ZM512.722 501.511H556.499V462.024H512.722V501.511ZM557.907 501.511H599.224V462.024H557.907V501.511ZM600.632 501.511H644.41V462.024H600.632V501.511ZM645.819 501.511H689.598V462.024H645.819V501.511ZM691.006 501.511H734.601V462.024H691.006V501.511ZM736.193 501.511H779.788V462.024H736.193V501.511ZM781.196 501.511H824.975V462.024H781.196V501.511ZM826.385 501.511H870.162V462.024H826.385V501.511ZM871.57 501.511H915.327V462.024H871.57V501.511ZM916.736 501.511H960.514V462.024H916.736V501.511ZM961.923 501.511H1003.24V462.024H961.923V501.511ZM1004.65 501.511H1048.43V462.024H1004.65V501.511ZM1049.83 501.511H1093.61V462.024H1049.83V501.511ZM1095.02 501.511H1138.62V462.024H1095.02V501.511ZM1140.21 501.511H1183.8V462.024H1140.21V501.511ZM1185.21 501.511H1228.99V462.024H1185.21V501.511ZM1230.4 501.511H1274.18V462.024H1230.4V501.511ZM1275.58 501.511H1319.34V462.024H1275.58V501.511ZM1320.75 501.511H1364.53V462.024H1320.75V501.511ZM1365.94 501.511H1407.25V462.024H1365.94V501.511ZM1408.66 501.511H1452.44V462.024H1408.66V501.511ZM1453.85 501.511H1497.63V462.024H1453.85V501.511ZM1499.04 501.511H1542.63V462.024H1499.04V501.511ZM1544.22 501.511H1587.82V462.024H1544.22V501.511ZM1589.23 501.511H1633V462.024H1589.23V501.511ZM1634.41 501.511H1678.19V462.024H1634.41V501.511ZM1679.6 501.511H1723.36V462.024H1679.6V501.511ZM1724.77 501.511H1768.54V462.024H1724.77V501.511ZM1769.95 501.511H1811.27V462.024H1769.95V501.511ZM1812.68 501.511H1856.46V462.024H1812.68V501.511ZM1857.86 501.511H1901.64V462.024H1857.86V501.511ZM18.3545 460.574H62.1318V415.485H18.3545V460.574ZM63.541 460.574H107.298V415.485H63.541V460.574ZM108.706 460.574H152.484V415.485H108.706V460.574ZM153.893 460.574H195.209V415.485H153.893V460.574ZM196.617 460.574H240.396V415.485H196.617V460.574ZM241.805 460.574H285.583V415.485H241.805V460.574ZM286.991 460.574H330.586V415.485H286.991V460.574ZM332.179 460.574H375.773V415.485H332.179V460.574ZM377.182 460.574H420.96V415.485H377.182V460.574ZM422.369 460.574H466.147V415.485H422.369V460.574ZM467.556 460.574H511.312V415.485H467.556V460.574ZM512.721 460.574H556.499V415.485H512.721V460.574ZM557.907 460.574H599.224V415.485H557.907V460.574ZM600.632 460.574H644.41V415.485H600.632V460.574ZM645.819 460.574H689.598V415.485H645.819V460.574ZM691.006 460.574H734.601V415.485H691.006V460.574ZM736.193 460.574H779.788V415.485H736.193V460.574ZM781.196 460.574H824.975V415.485H781.196V460.574ZM826.384 460.574H870.162V415.485H826.384V460.574ZM871.57 460.574H915.327V415.485H871.57V460.574ZM916.735 460.574H960.514V415.485H916.735V460.574ZM961.923 460.574H1003.24V415.485H961.923V460.574ZM1004.65 460.574H1048.43V415.485H1004.65V460.574ZM1049.83 460.574H1093.61V415.485H1049.83V460.574ZM1095.02 460.574H1138.62V415.485H1095.02V460.574ZM1140.21 460.574H1183.8V415.485H1140.21V460.574ZM1185.21 460.574H1228.99V415.485H1185.21V460.574ZM1230.4 460.574H1274.18V415.485H1230.4V460.574ZM1275.58 460.574H1319.34V415.485H1275.58V460.574ZM1320.75 460.574H1364.53V415.485H1320.75V460.574ZM1365.94 460.574H1407.25V415.485H1365.94V460.574ZM1408.66 460.574H1452.44V415.485H1408.66V460.574ZM1453.85 460.574H1497.63V415.485H1453.85V460.574ZM1499.04 460.574H1542.63V415.485H1499.04V460.574ZM1544.22 460.574H1587.82V415.485H1544.22V460.574ZM1589.23 460.574H1633V415.485H1589.23V460.574ZM1634.41 460.574H1678.19V415.485H1634.41V460.574ZM1679.6 460.574H1723.36V415.485H1679.6V460.574ZM1724.76 460.574H1768.54V415.485H1724.76V460.574ZM1769.95 460.574H1811.27V415.485H1769.95V460.574ZM1812.68 460.574H1856.46V415.485H1812.68V460.574ZM1857.86 460.574H1901.64V415.485H1857.86V460.574ZM18.5127 409.709H18.3545V414.034H62.1318V368.957H18.5127V409.709ZM63.6914 409.709H63.541V414.034H107.298V368.957H63.6914V409.709ZM108.849 409.709H108.706V414.034H152.484V368.957H108.849V409.709ZM154.027 409.709H153.893V414.034H195.209V368.957H154.027V409.709ZM196.744 409.709H196.617V414.034H240.396V368.957H196.744V409.709ZM241.923 409.709H241.805V414.034H285.583V368.957H241.923V409.709ZM287.103 409.709H286.991V414.034H330.586V368.957H287.103V409.709ZM332.281 409.709H332.179V414.034H375.773V368.957H332.281V409.709ZM377.276 409.709H377.182V414.034H420.96V368.957H377.276V409.709ZM422.456 409.709H422.369V414.034H466.147V368.957H422.456V409.709ZM467.635 409.709H467.556V414.034H511.312V368.957H467.635V409.709ZM512.792 409.709H512.721V414.034H556.499V368.957H512.792V409.709ZM557.97 409.709H557.907V414.034H599.224V368.957H557.97V409.709ZM600.687 409.709H600.632V414.034H644.41V368.957H600.687V409.709ZM645.866 409.709H645.819V414.034H689.598V368.957H645.866V409.709ZM691.045 409.709H691.006V414.034H734.601V368.957H691.045V409.709ZM736.225 409.709H736.193V414.034H779.788V368.957H736.225V409.709ZM781.22 409.709H781.196V414.034H824.975V368.957H781.22V409.709ZM826.399 409.709H826.384V414.034H870.162V368.957H826.399V409.709ZM871.577 409.709H871.57V414.034H915.327V368.957H871.577V409.709ZM916.735 414.034H960.514V409.709H960.505V368.957H916.735V414.034ZM961.923 414.034H1003.24V409.709H1003.22V368.957H961.923V414.034ZM1004.65 414.034H1048.43V409.709H1048.4V368.957H1004.65V414.034ZM1049.83 414.034H1093.61V409.709H1093.58V368.957H1049.83V414.034ZM1095.02 414.034H1138.62V409.709H1138.58V368.957H1095.02V414.034ZM1140.21 414.034H1183.8V409.709H1183.75V368.957H1140.21V414.034ZM1185.21 414.034H1228.99V409.709H1228.93V368.957H1185.21V414.034ZM1230.4 414.034H1274.18V409.709H1274.11V368.957H1230.4V414.034ZM1275.58 414.034H1319.34V409.709H1319.27V368.957H1275.58V414.034ZM1320.75 414.034H1364.53V409.709H1364.45V368.957H1320.75V414.034ZM1365.94 414.034H1407.25V409.709H1407.17V368.957H1365.94V414.034ZM1408.66 414.034H1452.44V409.709H1452.34V368.957H1408.66V414.034ZM1453.85 414.034H1497.63V409.709H1497.52V368.957H1453.85V414.034ZM1499.04 414.034H1542.63V409.709H1542.52V368.957H1499.04V414.034ZM1544.22 414.034H1587.82V409.709H1587.7V368.957H1544.22V414.034ZM1589.23 414.034H1633V409.709H1632.88V368.957H1589.23V414.034ZM1634.41 414.034H1678.19V409.709H1678.06V368.957H1634.41V414.034ZM1679.6 414.034H1723.36V409.709H1723.21V368.957H1679.6V414.034ZM1724.76 414.034H1768.54V409.709H1768.39V368.957H1724.76V414.034ZM1769.95 414.034H1811.27V409.709H1811.11V368.957H1769.95V414.034ZM1812.68 414.034H1856.46V409.709H1856.29V368.957H1812.68V414.034ZM1857.86 414.034H1901.64V409.709H1901.47V368.957H1857.86V414.034ZM18.5127 367.506H62.2832V322.411H18.5127V367.506ZM63.6914 367.506H107.44V322.411H63.6914V367.506ZM108.849 367.506H152.619V322.411H108.849V367.506ZM154.027 367.506H195.335V322.411H154.027V367.506ZM196.744 367.506H240.515V322.411H196.744V367.506ZM241.923 367.506H285.694V322.411H241.923V367.506ZM287.103 367.506H330.688V322.411H287.103V367.506ZM332.281 367.506H375.868V322.411H332.281V367.506ZM377.276 367.506H421.048V322.411H377.276V367.506ZM422.456 367.506H466.226V322.411H422.456V367.506ZM467.635 367.506H511.384V322.411H467.635V367.506ZM512.792 367.506H556.562V322.411H512.792V367.506ZM557.97 367.506H599.278V322.411H557.97V367.506ZM600.687 367.506H644.458V322.411H600.687V367.506ZM645.866 367.506H689.637V322.411H645.866V367.506ZM691.045 367.506H734.632V322.411H691.045V367.506ZM736.225 367.506H779.812V322.411H736.225V367.506ZM781.22 367.506H824.991V322.411H781.22V367.506ZM826.399 367.506H870.169V322.411H826.399V367.506ZM871.577 367.506H915.327V322.411H871.577V367.506ZM916.735 367.506H960.505V322.411H916.735V367.506ZM961.913 367.506H1003.22V322.411H961.913V367.506ZM1004.63 367.506H1048.4V322.411H1004.63V367.506ZM1049.81 367.506H1093.58V322.411H1049.81V367.506ZM1094.99 367.506H1138.58V322.411H1094.99V367.506ZM1140.17 367.506H1183.75V322.411H1140.17V367.506ZM1185.16 367.506H1228.93V322.411H1185.16V367.506ZM1230.34 367.506H1274.11V322.411H1230.34V367.506ZM1275.52 367.506H1319.27V322.411H1275.52V367.506ZM1320.68 367.506H1364.45V322.411H1320.68V367.506ZM1365.86 367.506H1407.17V322.411H1365.86V367.506ZM1408.57 367.506H1452.34V322.411H1408.57V367.506ZM1453.75 367.506H1497.52V322.411H1453.75V367.506ZM1498.93 367.506H1542.52V322.411H1498.93V367.506ZM1544.11 367.506H1587.7V322.411H1544.11V367.506ZM1589.11 367.506H1632.88V322.411H1589.11V367.506ZM1634.29 367.506H1678.06V322.411H1634.29V367.506ZM1679.46 367.506H1723.21V322.411H1679.46V367.506ZM1724.62 367.506H1768.39V322.411H1724.62V367.506ZM1769.8 367.506H1811.11V322.411H1769.8V367.506ZM1812.52 367.506H1856.29V322.411H1812.52V367.506ZM1857.7 367.506H1901.47V322.411H1857.7V367.506ZM154.027 320.96H193.611V320.961H195.335V275.878H154.027V320.96ZM196.744 320.961H240.515V275.878H196.744V320.961ZM241.923 320.961H285.694V275.878H241.923V320.961ZM287.103 320.961H291.125V320.96H330.688V275.878H287.103V320.961ZM557.97 320.96H597.555V320.961H599.278V275.878H557.97V320.96ZM600.687 320.961H644.458V275.878H600.687V320.961ZM645.866 320.961H689.637V275.878H645.866V320.961ZM691.045 320.961H695.067V320.96H734.632V275.878H691.045V320.961ZM961.913 320.96H1001.5V320.961H1003.22V275.878H961.913V320.96ZM1004.63 320.961H1048.4V275.878H1004.63V320.961ZM1049.81 320.961H1093.58V275.878H1049.81V320.961ZM1094.99 320.961H1099.01V320.96H1138.58V275.878H1094.99V320.961ZM1365.86 320.96H1405.44V320.961H1407.17V275.878H1365.86V320.96ZM1408.57 320.961H1452.34V275.878H1408.57V320.961ZM1453.75 320.961H1497.52V275.878H1453.75V320.961ZM1498.93 320.961H1502.95V320.96H1542.52V275.878H1498.93V320.961ZM1769.8 320.96H1809.38V320.961H1811.11V275.878H1769.8V320.96ZM1812.52 320.961H1856.29V275.878H1812.52V320.961ZM1857.7 320.961H1901.47V275.878H1857.7V320.961ZM18.5127 320.96H62.2832V275.878H18.5127V320.96ZM63.6914 320.96H107.44V275.878H63.6914V320.96ZM108.849 320.96H152.619V275.878H108.849V320.96ZM332.281 320.96H375.868V275.878H332.281V320.96ZM377.276 320.96H421.048V275.878H377.276V320.96ZM422.456 320.96H466.226V275.878H422.456V320.96ZM467.635 320.96H511.384V275.878H467.635V320.96ZM512.792 320.96H556.562V275.878H512.792V320.96ZM736.225 320.96H779.812V275.878H736.225V320.96ZM781.22 320.96H824.991V275.878H781.22V320.96ZM826.399 320.96H870.169V275.878H826.399V320.96ZM871.577 320.96H915.327V275.878H871.577V320.96ZM916.735 320.96H960.505V275.878H916.735V320.96ZM1140.17 320.96H1183.75V275.878H1140.17V320.96ZM1185.16 320.96H1228.93V275.878H1185.16V320.96ZM1230.34 320.96H1274.11V275.878H1230.34V320.96ZM1275.52 320.96H1319.27V275.878H1275.52V320.96ZM1320.68 320.96H1364.45V275.878H1320.68V320.96ZM1544.11 320.96H1587.7V275.878H1544.11V320.96ZM1589.11 320.96H1632.88V275.878H1589.11V320.96ZM1634.29 320.96H1678.06V275.878H1634.29V320.96ZM1679.46 320.96H1723.21V275.878H1679.46V320.96ZM1724.62 320.96H1768.39V275.878H1724.62V320.96ZM154.027 274.427H193.611V274.428H195.335V229.333H155.773V229.332H154.027V274.427ZM196.744 274.428H240.515V229.333H196.744V274.428ZM241.923 274.428H285.694V229.333H241.923V274.428ZM287.103 274.428H291.125V274.427H330.688V229.333H287.103V274.428ZM557.97 274.427H597.555V274.428H599.278V229.333H559.716V229.332H557.97V274.427ZM600.687 274.428H644.458V229.333H600.687V274.428ZM645.866 274.428H689.637V229.333H645.866V274.428ZM691.045 274.428H695.067V274.427H734.632V229.333H691.045V274.428ZM961.913 274.427H1001.5V274.428H1003.22V229.333H963.659V229.332H961.913V274.427ZM1004.63 274.428H1048.4V229.333H1004.63V274.428ZM1049.81 274.428H1093.58V229.333H1049.81V274.428ZM1094.99 274.428H1099.01V274.427H1138.58V229.333H1094.99V274.428ZM1365.86 274.427H1405.44V274.428H1407.17V229.333H1367.6V229.332H1365.86V274.427ZM1408.57 274.428H1452.34V229.333H1408.57V274.428ZM1453.75 274.428H1497.52V229.333H1453.75V274.428ZM1498.93 274.428H1502.95V274.427H1542.52V229.333H1498.93V274.428ZM1769.8 274.427H1809.38V274.428H1811.11V229.333H1771.55V229.332H1769.8V274.427ZM1812.52 274.428H1856.29V229.333H1812.52V274.428ZM1857.7 274.428H1901.47V229.333H1857.7V274.428ZM18.5127 274.427H62.2832V229.332H18.5127V274.427ZM63.6914 274.427H107.44V229.332H63.6914V274.427ZM108.849 274.427H152.619V229.332H108.849V274.427ZM362.038 229.333H332.281V274.427H375.868V229.332H362.038V229.333ZM377.276 274.427H421.048V229.332H377.276V274.427ZM422.456 274.427H466.226V229.332H422.456V274.427ZM467.635 274.427H511.384V229.332H467.635V274.427ZM512.792 274.427H556.562V229.332H512.792V274.427ZM765.981 229.333H736.225V274.427H779.812V229.332H765.981V229.333ZM781.22 274.427H824.991V229.332H781.22V274.427ZM826.399 274.427H870.169V229.332H826.399V274.427ZM871.577 274.427H915.327V229.332H871.577V274.427ZM916.735 274.427H960.505V229.332H916.735V274.427ZM1169.92 229.333H1140.17V274.427H1183.75V229.332H1169.92V229.333ZM1185.16 274.427H1228.93V229.332H1185.16V274.427ZM1230.34 274.427H1274.11V229.332H1230.34V274.427ZM1275.52 274.427H1319.27V229.332H1275.52V274.427ZM1320.68 274.427H1364.45V229.332H1320.68V274.427ZM1573.87 229.333H1544.11V274.427H1587.7V229.332H1573.87V229.333ZM1589.11 274.427H1632.88V229.332H1589.11V274.427ZM1634.29 274.427H1678.06V229.332H1634.29V274.427ZM1679.46 274.427H1723.21V229.332H1679.46V274.427ZM1724.62 274.427H1768.39V229.332H1724.62V274.427ZM18.5127 227.882H62.2832V182.814H18.5127V227.882ZM63.6914 227.882H107.44V182.814H63.6914V227.882ZM108.849 227.882H152.619V182.814H108.849V227.882ZM154.027 227.882H195.335V182.815H155.773V182.814H154.027V227.882ZM196.744 227.882H240.515V182.815H196.744V227.882ZM241.923 227.882H285.694V182.815H241.923V227.882ZM287.103 227.882H330.688V182.815H287.103V227.882ZM362.038 182.815H332.281V227.882H375.868V182.814H362.038V182.815ZM377.276 227.882H421.048V182.814H377.276V227.882ZM422.456 227.882H466.226V182.814H422.456V227.882ZM467.635 227.882H511.384V182.814H467.635V227.882ZM512.792 227.882H556.562V182.814H512.792V227.882ZM557.97 227.882H599.278V182.815H559.716V182.814H557.97V227.882ZM600.687 227.882H644.458V182.815H600.687V227.882ZM645.866 227.882H689.637V182.815H645.866V227.882ZM691.045 227.882H734.632V182.815H691.045V227.882ZM765.981 182.815H736.225V227.882H779.812V182.814H765.981V182.815ZM781.22 227.882H824.991V182.814H781.22V227.882ZM826.399 227.882H870.169V182.814H826.399V227.882ZM871.577 227.882H915.327V182.814H871.577V227.882ZM916.735 227.882H960.505V182.814H916.735V227.882ZM961.913 227.882H1003.22V182.815H963.659V182.814H961.913V227.882ZM1004.63 227.882H1048.4V182.815H1004.63V227.882ZM1049.81 227.882H1093.58V182.815H1049.81V227.882ZM1094.99 227.882H1138.58V182.815H1094.99V227.882ZM1169.92 182.815H1140.17V227.882H1183.75V182.814H1169.92V182.815ZM1185.16 227.882H1228.93V182.814H1185.16V227.882ZM1230.34 227.882H1274.11V182.814H1230.34V227.882ZM1275.52 227.882H1319.27V182.814H1275.52V227.882ZM1320.68 227.882H1364.45V182.814H1320.68V227.882ZM1365.86 227.882H1407.17V182.815H1367.6V182.814H1365.86V227.882ZM1408.57 227.882H1452.34V182.815H1408.57V227.882ZM1453.75 227.882H1497.52V182.815H1453.75V227.882ZM1498.93 227.882H1542.52V182.815H1498.93V227.882ZM1573.87 182.815H1544.11V227.882H1587.7V182.814H1573.87V182.815ZM1589.11 227.882H1632.88V182.814H1589.11V227.882ZM1634.29 227.882H1678.06V182.814H1634.29V227.882ZM1679.46 227.882H1723.21V182.814H1679.46V227.882ZM1724.62 227.882H1768.39V182.814H1724.62V227.882ZM1769.8 227.882H1811.11V182.815H1771.55V182.814H1769.8V227.882ZM1812.52 227.882H1856.29V182.815H1812.52V227.882ZM1857.7 227.882H1901.47V182.815H1857.7V227.882ZM18.5127 181.364H62.2832V136.277H18.5127V181.364ZM63.6914 181.364H107.44V136.277H63.6914V181.364ZM108.849 181.364H152.619V136.277H108.849V181.364ZM154.027 181.364H195.334L195.335 136.278H155.773V136.277H154.027V181.364ZM196.744 181.364H240.514L240.515 136.278H196.744V181.364ZM241.923 181.364H285.694V136.278H241.923V181.364ZM287.103 181.364H330.688V136.278H287.103V181.364ZM362.038 136.278H332.281V181.364H375.868V136.277H362.038V136.278ZM377.276 181.364H421.048V136.277H377.276V181.364ZM422.456 181.364H466.226V136.277H422.456V181.364ZM467.635 181.364H511.384V136.277H467.635V181.364ZM512.792 181.364H556.562V136.277H512.792V181.364ZM557.97 181.364H599.278V136.278H559.716V136.277H557.97V181.364ZM600.687 181.364H644.458V136.278H600.687V181.364ZM645.866 181.364H689.637V136.278H645.866V181.364ZM691.045 181.364H734.632V136.278H691.045V181.364ZM765.981 136.278H736.225V181.364H779.812V136.277H765.981V136.278ZM781.22 181.364H824.991V136.277H781.22V181.364ZM826.399 181.364H870.169V136.277H826.399V181.364ZM871.577 181.364H915.327V136.277H871.577V181.364ZM916.735 181.364H960.505V136.277H916.735V181.364ZM961.913 181.364H1003.22V136.278H963.659V136.277H961.913V181.364ZM1004.63 181.364H1048.4V136.278H1004.63V181.364ZM1049.81 181.364H1093.58V136.278H1049.81V181.364ZM1094.99 181.364H1138.58V136.278H1094.99V181.364ZM1169.92 136.278H1140.17V181.364H1183.75V136.277H1169.92V136.278ZM1185.16 181.364H1228.93V136.277H1185.16V181.364ZM1230.34 181.364H1274.11V136.277H1230.34V181.364ZM1275.52 181.364H1319.27V136.277H1275.52V181.364ZM1320.68 181.364H1364.45V136.277H1320.68V181.364ZM1365.86 181.364H1407.17V136.278H1367.6V136.277H1365.86V181.364ZM1408.57 181.364H1452.34V136.278H1408.57V181.364ZM1453.75 181.364H1497.52V136.278H1453.75V181.364ZM1498.93 181.364H1542.52V136.278H1498.93V181.364ZM1573.87 136.278H1544.11V181.364H1587.7V136.277H1573.87V136.278ZM1589.11 181.364H1632.88V136.277H1589.11V181.364ZM1634.29 181.364H1678.06V136.277H1634.29V181.364ZM1679.46 181.364H1723.21V136.277H1679.46V181.364ZM1724.62 181.364H1768.39V136.277H1724.62V181.364ZM1769.8 181.364H1811.11V136.278H1771.55V136.277H1769.8V181.364ZM1812.52 181.364H1856.29V136.278H1812.52V181.364ZM1857.7 181.364H1901.47V136.278H1857.7V181.364ZM18.5127 134.827H62.2822V95.3359H18.5127V134.827ZM63.6914 134.827H107.44V95.3359H63.6914V134.827ZM108.849 134.827H152.619V95.3359H108.849V134.827ZM154.027 134.827H195.335V95.3359H154.027V134.827ZM196.744 134.827H240.515V95.3359H196.744V134.827ZM241.923 134.827H285.694V95.3359H241.923V134.827ZM287.103 134.827H330.688V95.3359H287.103V134.827ZM332.281 134.827H375.868V95.3359H332.281V134.827ZM377.276 134.827H421.047V95.3359H377.276V134.827ZM422.456 134.827H466.226V95.3359H422.456V134.827ZM467.635 134.827H511.384V95.3359H467.635V134.827ZM512.792 134.827H556.562V95.3359H512.792V134.827ZM557.971 134.827H599.278V95.3359H557.971V134.827ZM600.687 134.827H644.458V95.3359H600.687V134.827ZM645.866 134.827H689.637V95.3359H645.866V134.827ZM691.045 134.827H734.632V95.3359H691.045V134.827ZM736.225 134.827H779.811V95.3359H736.225V134.827ZM781.22 134.827H824.99V95.3359H781.22V134.827ZM826.399 134.827H870.169V95.3359H826.399V134.827ZM871.577 134.827H915.326V95.3359H871.577V134.827ZM916.735 134.827H960.505V95.3359H916.735V134.827ZM961.913 134.827H1003.22V95.3359H961.913V134.827ZM1004.63 134.827H1048.4V95.3359H1004.63V134.827ZM1049.81 134.827H1093.58V95.3359H1049.81V134.827ZM1094.99 134.827H1138.58V95.3359H1094.99V134.827ZM1140.17 134.827H1183.75V95.3359H1140.17V134.827ZM1185.16 134.827H1228.93V95.3359H1185.16V134.827ZM1230.34 134.827H1274.11V95.3359H1230.34V134.827ZM1275.52 134.827H1319.27V95.3359H1275.52V134.827ZM1320.68 134.827H1364.45V95.3359H1320.68V134.827ZM1365.86 134.827H1407.17V95.3359H1365.86V134.827ZM1408.57 134.827H1452.34V95.3359H1408.57V134.827ZM1453.75 134.827H1497.52V95.3359H1453.75V134.827ZM1498.93 134.827H1542.52V95.3359H1498.93V134.827ZM1544.11 134.827H1587.7V95.3359H1544.11V134.827ZM1589.11 134.827H1632.88V95.3359H1589.11V134.827ZM1634.29 134.827H1678.06V95.3359H1634.29V134.827ZM1679.46 134.827H1723.21V95.3359H1679.46V134.827ZM1724.62 134.827H1768.39V95.3359H1724.62V134.827ZM1769.8 134.827H1811.11V95.3359H1769.8V134.827ZM1812.52 134.827H1856.29V95.3359H1812.52V134.827ZM1857.7 134.827H1901.47V95.3359H1857.7V134.827ZM18.5117 93.8857H62.2822V48.791H18.5117V93.8857ZM63.6904 93.8857H107.44V48.791H63.6904V93.8857ZM108.849 93.8857H152.619V48.791H108.849V93.8857ZM154.027 93.8857H195.335V48.791H154.027V93.8857ZM196.744 93.8857H240.515V48.791H196.744V93.8857ZM241.923 93.8857H285.694V48.791H241.923V93.8857ZM287.103 93.8857H330.688V48.791H287.103V93.8857ZM332.281 93.8857H375.868V48.791H332.281V93.8857ZM377.276 93.8857H421.047V48.791H377.276V93.8857ZM422.455 93.8857H466.226V48.791H422.455V93.8857ZM467.634 93.8857H511.384V48.791H467.634V93.8857ZM512.792 93.8857H556.562V48.791H512.792V93.8857ZM557.971 93.8857H599.278V48.791H557.971V93.8857ZM600.687 93.8857H644.458V48.791H600.687V93.8857ZM645.866 93.8857H689.637V48.791H645.866V93.8857ZM691.045 93.8857H734.632V48.791H691.045V93.8857ZM736.225 93.8857H779.811V48.791H736.225V93.8857ZM781.22 93.8857H824.99V48.791H781.22V93.8857ZM826.398 93.8857H870.169V48.791H826.398V93.8857ZM871.577 93.8857H915.326V48.791H871.577V93.8857ZM916.734 93.8857H960.505V48.791H916.734V93.8857ZM961.913 93.8857H1003.22V48.791H961.913V93.8857ZM1004.63 93.8857H1048.4V48.791H1004.63V93.8857ZM1049.81 93.8857H1093.58V48.791H1049.81V93.8857ZM1094.99 93.8857H1138.58V48.791H1094.99V93.8857ZM1140.17 93.8857H1183.75V48.791H1140.17V93.8857ZM1185.16 93.8857H1228.93V48.791H1185.16V93.8857ZM1230.34 93.8857H1274.11V48.791H1230.34V93.8857ZM1275.52 93.8857H1319.27V48.791H1275.52V93.8857ZM1320.68 93.8857H1364.45V48.791H1320.68V93.8857ZM1365.86 93.8857H1407.17V48.791H1365.86V93.8857ZM1408.57 93.8857H1452.34V48.791H1408.57V93.8857ZM1453.75 93.8857H1497.52V48.791H1453.75V93.8857ZM1498.93 93.8857H1542.52V48.791H1498.93V93.8857ZM1544.11 93.8857H1587.7V48.791H1544.11V93.8857ZM1589.11 93.8857H1632.88V48.791H1589.11V93.8857ZM1634.29 93.8857H1678.06V48.791H1634.29V93.8857ZM1679.46 93.8857H1723.21V48.791H1679.46V93.8857ZM1724.62 93.8857H1768.39V48.791H1724.62V93.8857ZM1769.8 93.8857H1811.11V48.791H1769.8V93.8857ZM1812.52 93.8857H1856.29V48.791H1812.52V93.8857ZM1857.7 93.8857H1901.47V48.791H1857.7V93.8857ZM18.5117 47.3408H62.2822V2.25781H18.5117V47.3408ZM63.6904 47.3408H107.44V2.25781H63.6904V47.3408ZM108.849 47.3408H152.619V2.25781H108.849V47.3408ZM154.027 47.3408H195.335V2.25781H154.027V47.3408ZM196.744 47.3408H240.515V2.25781H196.744V47.3408ZM241.923 47.3408H285.694V2.25781H241.923V47.3408ZM287.103 47.3408H330.688V2.25781H287.103V47.3408ZM332.281 47.3408H375.868V2.25781H332.281V47.3408ZM377.276 47.3408H421.047V2.25781H377.276V47.3408ZM422.455 47.3408H466.226V2.25781H422.455V47.3408ZM467.634 47.3408H511.384V2.25781H467.634V47.3408ZM512.792 47.3408H556.562V2.25781H512.792V47.3408ZM557.971 47.3408H599.278V2.25781H557.971V47.3408ZM600.687 47.3408H644.458V2.25781H600.687V47.3408ZM645.866 47.3408H689.637V2.25781H645.866V47.3408ZM691.045 47.3408H734.632V2.25781H691.045V47.3408ZM736.225 47.3408H779.811V2.25781H736.225V47.3408ZM781.22 47.3408H824.99V2.25781H781.22V47.3408ZM826.398 47.3408H870.169V2.25781H826.398V47.3408ZM871.577 47.3408H915.326V2.25781H871.577V47.3408ZM916.734 47.3408H960.505V2.25781H916.734V47.3408ZM961.913 47.3408H1003.22V2.25781H961.913V47.3408ZM1004.63 47.3408H1048.4V2.25781H1004.63V47.3408ZM1049.81 47.3408H1093.58V2.25781H1049.81V47.3408ZM1094.99 47.3408H1138.58V2.25781H1094.99V47.3408ZM1140.17 47.3408H1183.75V2.25781H1140.17V47.3408ZM1185.16 47.3408H1228.93V2.25781H1185.16V47.3408ZM1230.34 47.3408H1274.11V2.25781H1230.34V47.3408ZM1275.52 47.3408H1319.27V2.25781H1275.52V47.3408ZM1320.68 47.3408H1364.45V2.25781H1320.68V47.3408ZM1365.86 47.3408H1407.17V2.25781H1365.86V47.3408ZM1408.57 47.3408H1452.34V2.25781H1408.57V47.3408ZM1453.75 47.3408H1497.52V2.25781H1453.75V47.3408ZM1498.93 47.3408H1542.52V2.25781H1498.93V47.3408ZM1544.11 47.3408H1587.7V2.25781H1544.11V47.3408ZM1589.11 47.3408H1632.88V2.25781H1589.11V47.3408ZM1634.29 47.3408H1678.06V2.25781H1634.29V47.3408ZM1679.46 47.3408H1723.21V2.25781H1679.46V47.3408ZM1724.62 47.3408H1768.39V2.25781H1724.62V47.3408ZM1769.8 47.3408H1811.11V2.25781H1769.8V47.3408ZM1812.52 47.3408H1856.29V2.25781H1812.52V47.3408ZM1857.7 47.3408H1901.47V2.25781H1857.7V47.3408Z" fill="url(#paint0_linear_1463_27891)"/>
<defs>
<linearGradient id="paint0_linear_1463_27891" x1="932.5" y1="0.807129" x2="932.5" y2="1509.46" gradientUnits="userSpaceOnUse">
<stop stop-color="#B7D1FF"/>
<stop offset="1" stop-color="#B7D1FF" stop-opacity="0"/>
</linearGradient>
</defs>
</svg>
