<svg width="1366" height="1177" viewBox="0 0 1366 1177" fill="none" xmlns="http://www.w3.org/2000/svg">
<path d="M1366 1.13184H1351.26V36.3037H1366V37.4355H1351.26V72.6162H1366V73.748H1351.26V104.558H1366V105.689H1351.26V140.864H1366V141.996H1351.26V177.155H1366V178.287H1351.26V213.469H1366V214.601H1351.26V249.772H1366V250.904H1351.26V286.086H1366V287.218H1351.38V322.386H1366V323.518H1351.38V358.694H1366V359.826H1351.38V390.632H1366V391.764H1351.38V426.935H1366V428.065H1351.38V463.221H1366V464.353H1351.38V499.53H1366V500.662H1351.38V535.829H1366V536.961H1351.38V571.939H1366V573.27H1351.38V605.06H1351.26V608.243H1366V609.375H1351.26V644.556H1366V645.688H1351.26V676.497H1366V677.629H1351.26V712.804H1366V713.936H1351.26V749.095H1366V750.227H1351.26V785.408H1366V786.54H1351.26V821.712H1366V822.844H1351.26V858.025H1366V859.158H1351.38V894.325H1366V895.457H1351.38V930.634H1366V931.766H1351.38V962.571H1366V963.703H1351.38V998.874H1366V1000H1351.38V1035.16H1366V1036.29H1351.38V1071.47H1366V1072.6H1351.38V1107.77H1366V1108.9H1351.38V1144.08H1366V1145.21H1351.38V1177H1350.25V1145.21H1315.11V1177H1313.98V1145.21H1278.83V1177H1277.7V1145.21H1242.54V1177H1241.41V1145.21H1230.31V1145.21H1206.41V1177H1205.28V1177H1205.13V1145.21H1170.12V1177H1168.99V1145.21H1133.84V1177H1132.71V1145.21H1097.56V1177H1096.43V1145.21H1064.65V1145.21H1063.25V1177H1062.12V1145.21H1026.97V1177H1025.84V1145.21H990.702V1177H989.571V1145.21H954.419V1177H953.288V1145.21H918.136V1177H917.004V1145.21H905.897V1145.21H881.999V1177H880.868V1177H880.721V1145.21H845.716V1177H844.584V1145.21H809.432V1177H808.301V1145.21H773.147V1177H772.017V1145.21H740.244V1145.21H738.842V1177H737.711V1145.21H702.559V1177H701.428V1145.21H666.292V1177H665.161V1145.21H630.01V1177H628.879V1145.21H593.726V1177H592.595V1145.21H581.487V1145.21H557.589V1177H556.458V1177H556.311V1145.21H521.306V1177H520.175V1145.21H485.021V1177H483.891V1145.21H448.738V1177H447.607V1145.21H415.834V1145.21H414.433V1177H413.301V1145.21H378.149V1177H377.019V1145.21H341.883V1177H340.752V1145.21H305.6V1177H304.469V1145.21H269.315V1177H268.185V1145.21H257.078V1145.21H233.18V1177H232.049V1177H231.9V1145.21H196.896V1177H195.765V1145.21H160.612V1177H159.481V1145.21H124.328V1177H123.197V1145.21H91.4248V1145.21H90.0225V1177H88.8916V1145.21H53.7393V1177H52.6084V1145.21H17.4727V1177H16.3418V1145.21H0V1144.08H16.3418V1108.9H0V1107.77H16.3418V1072.6H0V1071.47H16.3418V1036.29H0V1035.16H16.3418V1000H0V998.874H16.3418V963.703H0V962.571H16.3418V931.766H0V930.634H16.3418V895.457H0V894.325H16.3418V859.158H0V858.025H16.4629V822.844H0V821.712H16.4629V786.54H0V785.408H16.4629V750.227H0V749.095H16.4629V713.936H0V712.804H16.4629V677.629H0V676.497H16.4629V645.688H0V644.556H16.4629V609.375H0V608.243H16.4629V605.06H16.3418V573.27H0V571.939H16.3418V536.961H0V535.829H16.3418V500.662H0V499.53H16.3418V464.353H0V463.221H16.3418V428.065H0V426.935H16.3418V391.764H0V390.632H16.3418V359.826H0V358.694H16.3418V323.518H0V322.386H16.3418V287.218H0V286.086H16.4629V250.904H0V249.772H16.4629V214.601H0V213.469H16.4629V178.287H0V177.155H16.4629V141.996H0V140.864H16.4629V105.689H0V104.558H16.4629V73.748H0V72.6162H16.4629V37.4355H0V36.3037H16.4629V1.13184H0V0H1366V1.13184ZM17.4727 1144.08H52.6084V1108.9H17.4727V1144.08ZM53.7393 1144.08H88.8916V1108.9H53.7393V1144.08ZM90.0225 1144.08H123.197V1108.9H91.4248V1108.9H90.0225V1144.08ZM124.328 1144.08H159.481V1108.9H124.328V1144.08ZM160.612 1144.08H195.765V1108.9H160.612V1144.08ZM196.896 1144.08H231.9V1108.9H196.896V1144.08ZM257.078 1108.9H233.18V1144.08H268.185V1108.9H257.078V1108.9ZM269.315 1144.08H304.469V1108.9H269.315V1144.08ZM305.6 1144.08H340.752V1108.9H305.6V1144.08ZM341.883 1144.08H377.019V1108.9H341.883V1144.08ZM378.149 1144.08H413.301V1108.9H378.149V1144.08ZM414.433 1144.08H447.607V1108.9H415.834V1108.9H414.433V1144.08ZM448.738 1144.08H483.891V1108.9H448.738V1144.08ZM485.021 1144.08H520.175V1108.9H485.021V1144.08ZM521.306 1144.08H556.311V1108.9H521.306V1144.08ZM581.487 1108.9H557.589V1144.08H592.595V1108.9H581.487V1108.9ZM593.726 1144.08H628.879V1108.9H593.726V1144.08ZM630.01 1144.08H665.161V1108.9H630.01V1144.08ZM666.292 1144.08H701.428V1108.9H666.292V1144.08ZM702.559 1144.08H737.711V1108.9H702.559V1144.08ZM738.842 1144.08H772.017V1108.9H740.244V1108.9H738.842V1144.08ZM773.147 1144.08H808.301V1108.9H773.147V1144.08ZM809.432 1144.08H844.584V1108.9H809.432V1144.08ZM845.716 1144.08H880.721V1108.9H845.716V1144.08ZM905.897 1108.9H881.999V1144.08H917.004V1108.9H905.897V1108.9ZM918.136 1144.08H953.288V1108.9H918.136V1144.08ZM954.419 1144.08H989.571V1108.9H954.419V1144.08ZM990.702 1144.08H1025.84V1108.9H990.702V1144.08ZM1026.97 1144.08H1062.12V1108.9H1026.97V1144.08ZM1063.25 1144.08H1096.43V1108.9H1064.65V1108.9H1063.25V1144.08ZM1097.56 1144.08H1132.71V1108.9H1097.56V1144.08ZM1133.84 1144.08H1168.99V1108.9H1133.84V1144.08ZM1170.12 1144.08H1205.13V1108.9H1170.12V1144.08ZM1230.31 1108.9H1206.41V1144.08H1241.41V1108.9H1230.31V1108.9ZM1242.54 1144.08H1277.7V1108.9H1242.54V1144.08ZM1278.83 1144.08H1313.98V1108.9H1278.83V1144.08ZM1315.11 1144.08H1350.25V1108.9H1315.11V1144.08ZM17.4727 1107.77H52.6084V1072.6H17.4727V1107.77ZM53.7393 1107.77H88.8916V1072.6H53.7393V1107.77ZM90.0225 1107.77H123.197V1072.6H90.0225V1107.77ZM124.328 1107.77H159.481V1072.6H124.328V1107.77ZM160.612 1107.77H195.765V1072.6H160.612V1107.77ZM196.896 1107.77H231.9V1072.6H196.896V1107.77ZM233.18 1107.77H268.185V1072.6H233.18V1107.77ZM269.315 1107.77H304.469V1072.6H269.315V1107.77ZM305.6 1107.77H340.752V1072.6H305.6V1107.77ZM341.883 1107.77H377.019V1072.6H341.883V1107.77ZM378.149 1107.77H413.301V1072.6H378.149V1107.77ZM414.433 1107.77H447.607V1072.6H414.433V1107.77ZM448.738 1107.77H483.891V1072.6H448.738V1107.77ZM485.021 1107.77H520.175V1072.6H485.021V1107.77ZM521.306 1107.77H556.311V1072.6H521.306V1107.77ZM557.589 1107.77H592.595V1072.6H557.589V1107.77ZM593.726 1107.77H628.879V1072.6H593.726V1107.77ZM630.01 1107.77H665.161V1072.6H630.01V1107.77ZM666.292 1107.77H701.428V1072.6H666.292V1107.77ZM702.559 1107.77H737.711V1072.6H702.559V1107.77ZM738.842 1107.77H772.017V1072.6H738.842V1107.77ZM773.147 1107.77H808.301V1072.6H773.147V1107.77ZM809.432 1107.77H844.584V1072.6H809.432V1107.77ZM845.716 1107.77H880.721V1072.6H845.716V1107.77ZM881.999 1107.77H917.004V1072.6H881.999V1107.77ZM918.136 1107.77H953.288V1072.6H918.136V1107.77ZM954.419 1107.77H989.571V1072.6H954.419V1107.77ZM990.702 1107.77H1025.84V1072.6H990.702V1107.77ZM1026.97 1107.77H1062.12V1072.6H1026.97V1107.77ZM1063.25 1107.77H1096.43V1072.6H1063.25V1107.77ZM1097.56 1107.77H1132.71V1072.6H1097.56V1107.77ZM1133.84 1107.77H1168.99V1072.6H1133.84V1107.77ZM1170.12 1107.77H1205.13V1072.6H1170.12V1107.77ZM1206.41 1107.77H1241.41V1072.6H1206.41V1107.77ZM1242.54 1107.77H1277.7V1072.6H1242.54V1107.77ZM1278.83 1107.77H1313.98V1072.6H1278.83V1107.77ZM1315.11 1107.77H1350.25V1072.6H1315.11V1107.77ZM17.4727 1071.47H52.6084V1036.29H17.4727V1071.47ZM53.7393 1071.47H88.8916V1036.29H53.7393V1071.47ZM90.0225 1071.47H123.197V1036.29H91.4248V1036.29H90.0225V1071.47ZM124.328 1071.47H159.481V1036.29H124.328V1071.47ZM160.612 1071.47H195.765V1036.29H160.612V1071.47ZM196.896 1071.47H231.9V1036.29H196.896V1071.47ZM257.078 1036.29H233.18V1071.47H268.185V1036.29H257.078V1036.29ZM269.315 1071.47H304.469V1036.29H269.315V1071.47ZM305.6 1071.47H340.752V1036.29H305.6V1071.47ZM341.883 1071.47H377.019V1036.29H341.883V1071.47ZM378.149 1071.47H413.301V1036.29H378.149V1071.47ZM414.433 1071.47H447.607V1036.29H415.834V1036.29H414.433V1071.47ZM448.738 1071.47H483.891V1036.29H448.738V1071.47ZM485.021 1071.47H520.175V1036.29H485.021V1071.47ZM521.306 1071.47H556.311V1036.29H521.306V1071.47ZM581.487 1036.29H557.589V1071.47H592.595V1036.29H581.487V1036.29ZM593.726 1071.47H628.879V1036.29H593.726V1071.47ZM630.01 1071.47H665.161V1036.29H630.01V1071.47ZM666.292 1071.47H701.428V1036.29H666.292V1071.47ZM702.559 1071.47H737.711V1036.29H702.559V1071.47ZM738.842 1071.47H772.017V1036.29H740.244V1036.29H738.842V1071.47ZM773.147 1071.47H808.301V1036.29H773.147V1071.47ZM809.432 1071.47H844.584V1036.29H809.432V1071.47ZM845.716 1071.47H880.721V1036.29H845.716V1071.47ZM905.897 1036.29H881.999V1071.47H917.004V1036.29H905.897V1036.29ZM918.136 1071.47H953.288V1036.29H918.136V1071.47ZM954.419 1071.47H989.571V1036.29H954.419V1071.47ZM990.702 1071.47H1025.84V1036.29H990.702V1071.47ZM1026.97 1071.47H1062.12V1036.29H1026.97V1071.47ZM1063.25 1071.47H1096.43V1036.29H1064.65V1036.29H1063.25V1071.47ZM1097.56 1071.47H1132.71V1036.29H1097.56V1071.47ZM1133.84 1071.47H1168.99V1036.29H1133.84V1071.47ZM1170.12 1071.47H1205.13V1036.29H1170.12V1071.47ZM1230.31 1036.29H1206.41V1071.47H1241.41V1036.29H1230.31V1036.29ZM1242.54 1071.47H1277.7V1036.29H1242.54V1071.47ZM1278.83 1071.47H1313.98V1036.29H1278.83V1071.47ZM1315.11 1071.47H1350.25V1036.29H1315.11V1071.47ZM17.4727 1035.16H52.6084V1000H17.4727V1035.16ZM53.7393 1035.16H88.8916V1000H53.7393V1035.16ZM90.0225 1035.16H123.197V1000.01H91.4248V1000H90.0225V1035.16ZM124.328 1035.16H159.481V1000.01H124.328V1035.16ZM160.612 1035.16H195.765V1000.01H160.612V1035.16ZM196.896 1035.16H231.9V1000.01H196.896V1035.16ZM257.078 1000.01H233.18V1035.16H268.185V1000H257.078V1000.01ZM269.315 1035.16H304.469V1000H269.315V1035.16ZM305.6 1035.16H340.752V1000H305.6V1035.16ZM341.883 1035.16H377.019V1000H341.883V1035.16ZM378.149 1035.16H413.301V1000H378.149V1035.16ZM414.433 1035.16H447.607V1000.01H415.834V1000H414.433V1035.16ZM448.738 1035.16H483.891V1000.01H448.738V1035.16ZM485.021 1035.16H520.175V1000.01H485.021V1035.16ZM521.306 1035.16H556.311V1000.01H521.306V1035.16ZM581.487 1000.01H557.589V1035.16H592.595V1000H581.487V1000.01ZM593.726 1035.16H628.879V1000H593.726V1035.16ZM630.01 1035.16H665.161V1000H630.01V1035.16ZM666.292 1035.16H701.428V1000H666.292V1035.16ZM702.559 1035.16H737.711V1000H702.559V1035.16ZM738.842 1035.16H772.017V1000.01H740.244V1000H738.842V1035.16ZM773.147 1035.16H808.301V1000.01H773.147V1035.16ZM809.432 1035.16H844.584V1000.01H809.432V1035.16ZM845.716 1035.16H880.721V1000.01H845.716V1035.16ZM905.897 1000.01H881.999V1035.16H917.004V1000H905.897V1000.01ZM918.136 1035.16H953.288V1000H918.136V1035.16ZM954.419 1035.16H989.571V1000H954.419V1035.16ZM990.702 1035.16H1025.84V1000H990.702V1035.16ZM1026.97 1035.16H1062.12V1000H1026.97V1035.16ZM1063.25 1035.16H1096.43V1000.01H1064.65V1000H1063.25V1035.16ZM1097.56 1035.16H1132.71V1000.01H1097.56V1035.16ZM1133.84 1035.16H1168.99V1000.01H1133.84V1035.16ZM1170.12 1035.16H1205.13V1000.01H1170.12V1035.16ZM1230.31 1000.01H1206.41V1035.16H1241.41V1000H1230.31V1000.01ZM1242.54 1035.16H1277.7V1000H1242.54V1035.16ZM1278.83 1035.16H1313.98V1000H1278.83V1035.16ZM1315.11 1035.16H1350.25V1000H1315.11V1035.16ZM17.4727 998.874H52.6084V963.703H17.4727V998.874ZM53.7393 998.874H88.8916V963.703H53.7393V998.874ZM90.0225 998.874H123.197V963.703H90.0225V998.874ZM124.328 998.874H159.481V963.703H124.328V998.874ZM160.612 998.874H195.765V963.703H160.612V998.874ZM196.896 998.874H231.9V963.703H196.896V998.874ZM233.18 998.874H268.185V963.703H233.18V998.874ZM269.315 998.874H304.469V963.703H269.315V998.874ZM305.6 998.874H340.752V963.703H305.6V998.874ZM341.883 998.874H377.019V963.703H341.883V998.874ZM378.149 998.874H413.301V963.703H378.149V998.874ZM414.433 998.874H447.607V963.703H414.433V998.874ZM448.738 998.874H483.891V963.703H448.738V998.874ZM485.021 998.874H520.175V963.703H485.021V998.874ZM521.306 998.874H556.311V963.703H521.306V998.874ZM557.589 998.874H592.595V963.703H557.589V998.874ZM593.726 998.874H628.879V963.703H593.726V998.874ZM630.01 998.874H665.161V963.703H630.01V998.874ZM666.292 998.874H701.428V963.703H666.292V998.874ZM702.559 998.874H737.711V963.703H702.559V998.874ZM738.842 998.874H772.017V963.703H738.842V998.874ZM773.147 998.874H808.301V963.703H773.147V998.874ZM809.432 998.874H844.584V963.703H809.432V998.874ZM845.716 998.874H880.721V963.703H845.716V998.874ZM881.999 998.874H917.004V963.703H881.999V998.874ZM918.136 998.874H953.288V963.703H918.136V998.874ZM954.419 998.874H989.571V963.703H954.419V998.874ZM990.702 998.874H1025.84V963.703H990.702V998.874ZM1026.97 998.874H1062.12V963.703H1026.97V998.874ZM1063.25 998.874H1096.43V963.703H1063.25V998.874ZM1097.56 998.874H1132.71V963.703H1097.56V998.874ZM1133.84 998.874H1168.99V963.703H1133.84V998.874ZM1170.12 998.874H1205.13V963.703H1170.12V998.874ZM1206.41 998.874H1241.41V963.703H1206.41V998.874ZM1242.54 998.874H1277.7V963.703H1242.54V998.874ZM1278.83 998.874H1313.98V963.703H1278.83V998.874ZM1315.11 998.874H1350.25V963.703H1315.11V998.874ZM90.0225 962.571H121.813V962.572H123.197V931.766H90.0225V962.571ZM124.328 962.572H159.481V931.766H124.328V962.572ZM160.612 962.572H195.765V931.766H160.612V962.572ZM196.896 962.572H200.127V962.571H231.9V931.766H196.896V962.572ZM414.433 962.571H446.223V962.572H447.607V931.766H414.433V962.571ZM448.738 962.572H483.891V931.766H448.738V962.572ZM485.021 962.572H520.175V931.766H485.021V962.572ZM521.306 962.572H524.536V962.571H556.311V931.766H521.306V962.572ZM738.842 962.571H770.633V962.572H772.017V931.766H738.842V962.571ZM773.147 962.572H808.301V931.766H773.147V962.572ZM809.432 962.572H844.584V931.766H809.432V962.572ZM845.716 962.572H848.946V962.571H880.72V931.766H845.716V962.572ZM1063.25 962.571H1095.04V962.572H1096.43V931.766H1063.25V962.571ZM1097.56 962.572H1132.71V931.766H1097.56V962.572ZM1133.84 962.572H1168.99V931.766H1133.84V962.572ZM1170.12 962.572H1173.36V962.571H1205.13V931.766H1170.12V962.572ZM17.4727 962.571H52.6084V931.766H17.4727V962.571ZM53.7393 962.571H88.8916V931.766H53.7393V962.571ZM233.18 962.571H268.185V931.766H233.18V962.571ZM269.315 962.571H304.468V931.766H269.315V962.571ZM305.6 962.571H340.752V931.766H305.6V962.571ZM341.883 962.571H377.018V931.766H341.883V962.571ZM378.149 962.571H413.301V931.766H378.149V962.571ZM557.589 962.571H592.594V931.766H557.589V962.571ZM593.726 962.571H628.878V931.766H593.726V962.571ZM630.01 962.571H665.161V931.766H630.01V962.571ZM666.292 962.571H701.428V931.766H666.292V962.571ZM702.559 962.571H737.711V931.766H702.559V962.571ZM881.999 962.571H917.004V931.766H881.999V962.571ZM918.136 962.571H953.287V931.766H918.136V962.571ZM954.419 962.571H989.571V931.766H954.419V962.571ZM990.702 962.571H1025.84V931.766H990.702V962.571ZM1026.97 962.571H1062.12V931.766H1026.97V962.571ZM1206.41 962.571H1241.41V931.766H1206.41V962.571ZM1242.54 962.571H1277.7V931.766H1242.54V962.571ZM1278.83 962.571H1313.98V931.766H1278.83V962.571ZM1315.11 962.571H1350.25V931.766H1315.11V962.571ZM17.4727 930.634H52.6084V895.457H17.4727V930.634ZM53.7393 930.634H88.8916V895.457H53.7393V930.634ZM90.0225 930.634H123.197V895.457H90.0225V930.634ZM124.328 930.634H159.481V895.457H124.328V930.634ZM160.612 930.634H195.765V895.457H160.612V930.634ZM196.896 930.634H231.9V895.457H196.896V930.634ZM233.18 930.634H268.185V895.457H233.18V930.634ZM269.315 930.634H304.468V895.457H269.315V930.634ZM305.6 930.634H340.752V895.457H305.6V930.634ZM341.883 930.634H377.018V895.457H341.883V930.634ZM378.148 930.634H413.301V895.457H378.148V930.634ZM414.433 930.634H447.607V895.457H414.433V930.634ZM448.738 930.634H483.891V895.457H448.738V930.634ZM485.021 930.634H520.175V895.457H485.021V930.634ZM521.306 930.634H556.311V895.457H521.306V930.634ZM557.589 930.634H592.594V895.457H557.589V930.634ZM593.725 930.634H628.878V895.457H593.725V930.634ZM630.009 930.634H665.161V895.457H630.009V930.634ZM666.292 930.634H701.428V895.457H666.292V930.634ZM702.559 930.634H737.711V895.457H702.559V930.634ZM738.842 930.634H772.017V895.457H738.842V930.634ZM773.147 930.634H808.301V895.457H773.147V930.634ZM809.432 930.634H844.584V895.457H809.432V930.634ZM845.716 930.634H880.72V895.457H845.716V930.634ZM881.999 930.634H917.004V895.457H881.999V930.634ZM918.135 930.634H953.287V895.457H918.135V930.634ZM954.419 930.634H989.571V895.457H954.419V930.634ZM990.702 930.634H1025.84V895.457H990.702V930.634ZM1026.97 930.634H1062.12V895.457H1026.97V930.634ZM1063.25 930.634H1096.43V895.457H1063.25V930.634ZM1097.56 930.634H1132.71V895.457H1097.56V930.634ZM1133.84 930.634H1168.99V895.457H1133.84V930.634ZM1170.12 930.634H1205.13V895.457H1170.12V930.634ZM1206.41 930.634H1241.41V895.457H1206.41V930.634ZM1242.54 930.634H1277.7V895.457H1242.54V930.634ZM1278.83 930.634H1313.98V895.457H1278.83V930.634ZM1315.11 930.634H1350.25V895.457H1315.11V930.634ZM17.5938 890.951H17.4727V894.325H52.6084V859.158H17.5938V890.951ZM53.8535 890.951H53.7393V894.325H88.8916V859.158H53.8535V890.951ZM90.1299 890.951H90.0225V894.325H123.197V859.158H90.1299V890.951ZM124.43 890.951H124.328V894.325H159.481V859.158H124.43V890.951ZM160.707 890.951H160.612V894.325H195.765V859.158H160.707V890.951ZM196.985 890.951H196.896V894.325H231.9V859.158H196.985V890.951ZM233.262 890.951H233.18V894.325H268.185V859.158H233.262V890.951ZM269.392 890.951H269.315V894.325H304.468V859.158H269.392V890.951ZM305.669 890.951H305.6V894.325H340.752V859.158H305.669V890.951ZM341.946 890.951H341.883V894.325H377.018V859.158H341.946V890.951ZM378.206 890.951H378.148V894.325H413.301V859.158H378.206V890.951ZM414.482 890.951H414.433V894.325H447.607V859.158H414.482V890.951ZM448.782 890.951H448.738V894.325H483.891V859.158H448.782V890.951ZM485.06 890.951H485.021V894.325H520.175V859.158H485.06V890.951ZM521.337 890.951H521.306V894.325H556.311V859.158H521.337V890.951ZM557.614 890.951H557.589V894.325H592.594V859.158H557.614V890.951ZM593.744 890.951H593.725V894.325H628.878V859.158H593.744V890.951ZM630.021 890.951H630.009V894.325H665.161V859.158H630.021V890.951ZM666.298 890.951H666.292V894.325H701.428V859.158H666.298V890.951ZM702.559 894.325H737.711V890.951H737.704V859.158H702.559V894.325ZM738.842 894.325H772.017V890.951H772.004V859.158H738.842V894.325ZM773.147 894.325H808.301V890.951H808.281V859.158H773.147V894.325ZM809.432 894.325H844.584V890.951H844.559V859.158H809.432V894.325ZM845.716 894.325H880.72V890.951H880.688V859.158H845.716V894.325ZM881.999 894.325H917.004V890.951H916.966V859.158H881.999V894.325ZM918.135 894.325H953.287V890.951H953.243V859.158H918.135V894.325ZM954.419 894.325H989.571V890.951H989.52V859.158H954.419V894.325ZM990.702 894.325H1025.84V890.951H1025.78V859.158H990.702V894.325ZM1026.97 894.325H1062.12V890.951H1062.06V859.158H1026.97V894.325ZM1063.25 894.325H1096.43V890.951H1096.36V859.158H1063.25V894.325ZM1097.56 894.325H1132.71V890.951H1132.63V859.158H1097.56V894.325ZM1133.84 894.325H1168.99V890.951H1168.91V859.158H1133.84V894.325ZM1170.12 894.325H1205.13V890.951H1205.04V859.158H1170.12V894.325ZM1206.41 894.325H1241.41V890.951H1241.32V859.158H1206.41V894.325ZM1242.54 894.325H1277.7V890.951H1277.6V859.158H1242.54V894.325ZM1278.83 894.325H1313.98V890.951H1313.87V859.158H1278.83V894.325ZM1315.11 894.325H1350.25V890.951H1350.13V859.158H1315.11V894.325ZM17.5938 858.025H52.7227V822.844H17.5938V858.025ZM53.8535 858.025H88.999V822.844H53.8535V858.025ZM90.1299 858.025H123.3V822.844L91.5322 822.845V822.844H90.1299V858.025ZM124.43 858.025H159.577V822.844H124.43V858.025ZM160.707 858.025H195.854V822.844H160.707V858.025ZM196.985 858.025H231.983V822.844H196.985V858.025ZM233.262 858.025H268.261V822.844H233.262V858.025ZM269.392 858.025H304.539V822.844H269.392V858.025ZM305.669 858.025H340.815V822.844H305.669V858.025ZM341.946 858.025H377.075V822.844H341.946V858.025ZM378.206 858.025H413.352V822.844H378.206V858.025ZM414.482 858.025H447.651V822.844L415.885 822.845V822.844H414.482V858.025ZM448.782 858.025H483.929V822.844H448.782V858.025ZM485.06 858.025H520.206V822.844H485.06V858.025ZM521.337 858.025H556.336V822.844H521.337V858.025ZM557.614 858.025H592.613V822.844H557.614V858.025ZM593.744 858.025H628.891V822.844H593.744V858.025ZM630.021 858.025H665.167V822.844H630.021V858.025ZM666.298 858.025H701.428V822.844H666.298V858.025ZM702.559 858.025H737.704V822.844H702.559V858.025ZM738.835 858.025H772.004V822.844L740.236 822.845V822.844H738.835V858.025ZM773.135 858.025H808.281V822.844H773.135V858.025ZM809.412 858.025H844.559V822.844H809.412V858.025ZM845.689 858.025H880.688V822.844H845.689V858.025ZM881.967 858.025H916.966V822.844H881.967V858.025ZM918.097 858.025H953.243V822.844H918.097V858.025ZM954.374 858.025H989.52V822.844H954.374V858.025ZM990.65 858.025H1025.78V822.844H990.65V858.025ZM1026.91 858.025H1062.06V822.844H1026.91V858.025ZM1063.19 858.025H1096.36V822.844L1064.59 822.845V822.844H1063.19V858.025ZM1097.49 858.025H1132.63V822.844H1097.49V858.025ZM1133.76 858.025H1168.91V822.844H1133.76V858.025ZM1170.04 858.025H1205.04V822.844H1170.04V858.025ZM1206.32 858.025H1241.32V822.844H1206.32V858.025ZM1242.45 858.025H1277.6V822.844H1242.45V858.025ZM1278.73 858.025H1313.87V822.844H1278.73V858.025ZM1315 858.025H1350.13V822.844H1315V858.025ZM90.1299 821.712H121.915V821.713H123.3V786.54H90.1299V821.712ZM124.43 821.713H159.577V786.54H124.43V821.713ZM160.707 821.713H195.854V786.54H160.707V821.713ZM196.985 821.713H200.215V821.712H231.983V786.54H196.985V821.713ZM414.482 821.712H446.268V821.713H447.651V786.54H414.482V821.712ZM448.782 821.713H483.929V786.54H448.782V821.713ZM485.06 821.713H520.206V786.54H485.06V821.713ZM521.337 821.713H524.567V821.712H556.336V786.54H521.337V821.713ZM738.835 821.712H770.619V821.713H772.004V786.54H738.835V821.712ZM773.135 821.713H808.281V786.54H773.135V821.713ZM809.412 821.713H844.559V786.54H809.412V821.713ZM845.689 821.713H848.919V821.712H880.688V786.54H845.689V821.713ZM1063.19 821.712H1094.97V821.713H1096.36V786.54H1063.19V821.712ZM1097.49 821.713H1132.63V786.54H1097.49V821.713ZM1133.76 821.713H1168.91V786.54H1133.76V821.713ZM1170.04 821.713H1173.27V821.712H1205.04V786.54H1170.04V821.713ZM17.5938 821.712H52.7227V786.54H17.5938V821.712ZM53.8535 821.712H88.999V786.54H53.8535V821.712ZM233.262 821.712H268.261V786.54H233.262V821.712ZM269.392 821.712H304.539V786.54H269.392V821.712ZM305.669 821.712H340.815V786.54H305.669V821.712ZM341.946 821.712H377.075V786.54H341.946V821.712ZM378.206 821.712H413.352V786.54H378.206V821.712ZM557.614 821.712H592.613V786.54H557.614V821.712ZM593.744 821.712H628.891V786.54H593.744V821.712ZM630.021 821.712H665.167V786.54H630.021V821.712ZM666.298 821.712H701.428V786.54H666.298V821.712ZM702.559 821.712H737.704V786.54H702.559V821.712ZM881.967 821.712H916.966V786.54H881.967V821.712ZM918.097 821.712H953.243V786.54H918.097V821.712ZM954.374 821.712H989.52V786.54H954.374V821.712ZM990.65 821.712H1025.78V786.54H990.65V821.712ZM1026.91 821.712H1062.06V786.54H1026.91V821.712ZM1206.32 821.712H1241.32V786.54H1206.32V821.712ZM1242.45 821.712H1277.6V786.54H1242.45V821.712ZM1278.73 821.712H1313.87V786.54H1278.73V821.712ZM1315 821.712H1350.13V786.54H1315V821.712ZM90.1299 785.408H121.915V785.409H123.3V750.228H91.5322V750.227H90.1299V785.408ZM124.43 785.409H159.577V750.228H124.43V785.409ZM160.707 785.409H195.854V750.228H160.707V785.409ZM196.985 785.409H200.215V785.408H231.983V750.228H196.985V785.409ZM414.482 785.408H446.268V785.409H447.651V750.228H415.885V750.227H414.482V785.408ZM448.782 785.409H483.929V750.228H448.782V785.409ZM485.06 785.409H520.206V750.228H485.06V785.409ZM521.337 785.409H524.567V785.408H556.336V750.228H521.337V785.409ZM738.835 785.408H770.619V785.409H772.004V750.228H740.236V750.227H738.835V785.408ZM773.135 785.409H808.281V750.228H773.135V785.409ZM809.412 785.409H844.559V750.228H809.412V785.409ZM845.689 785.409H848.919V785.408H880.688V750.228H845.689V785.409ZM1063.19 785.408H1094.97V785.409H1096.36V750.228H1064.59V750.227H1063.19V785.408ZM1097.49 785.409H1132.63V750.228H1097.49V785.409ZM1133.76 785.409H1168.91V750.228H1133.76V785.409ZM1170.04 785.409H1173.27V785.408H1205.04V750.228H1170.04V785.409ZM17.5938 785.408H52.7227V750.227H17.5938V785.408ZM53.8535 785.408H88.999V750.227H53.8535V785.408ZM257.156 750.228H233.262V785.408H268.261V750.227H257.156V750.228ZM269.392 785.408H304.539V750.227H269.392V785.408ZM305.669 785.408H340.815V750.227H305.669V785.408ZM341.946 785.408H377.075V750.227H341.946V785.408ZM378.206 785.408H413.352V750.227H378.206V785.408ZM581.509 750.228H557.614V785.408H592.613V750.227H581.509V750.228ZM593.744 785.408H628.891V750.227H593.744V785.408ZM630.021 785.408H665.167V750.227H630.021V785.408ZM666.298 785.408H701.428V750.227H666.298V785.408ZM702.559 785.408H737.704V750.227H702.559V785.408ZM905.86 750.228H881.967V785.408H916.966V750.227H905.86V750.228ZM918.097 785.408H953.243V750.227H918.097V785.408ZM954.374 785.408H989.52V750.227H954.374V785.408ZM990.65 785.408H1025.78V750.227H990.65V785.408ZM1026.91 785.408H1062.06V750.227H1026.91V785.408ZM1230.21 750.228H1206.32V785.408H1241.32V750.227H1230.21V750.228ZM1242.45 785.408H1277.6V750.227H1242.45V785.408ZM1278.73 785.408H1313.87V750.227H1278.73V785.408ZM1315 785.408H1350.13V750.227H1315V785.408ZM90.1299 749.095H121.915V749.096H123.3V713.937H91.5322V713.936H90.1299V749.095ZM124.43 749.096H159.577V713.937H124.43V749.096ZM160.707 749.096H195.854V713.937H160.707V749.096ZM196.985 749.096H200.215V749.095H231.983V713.937H196.985V749.096ZM414.482 749.095H446.268V749.096H447.651V713.937H415.885V713.936H414.482V749.095ZM448.782 749.096H483.929V713.937H448.782V749.096ZM485.06 749.096H520.206V713.937H485.06V749.096ZM521.337 749.096H524.567V749.095H556.336V713.937H521.337V749.096ZM738.835 749.095H770.619V749.096H772.004V713.937H740.236V713.936H738.835V749.095ZM773.135 749.096H808.281V713.937H773.135V749.096ZM809.412 749.096H844.559V713.937H809.412V749.096ZM845.689 749.096H848.919V749.095H880.688V713.937H845.689V749.096ZM1063.19 749.095H1094.97V749.096H1096.36V713.937H1064.59V713.936H1063.19V749.095ZM1097.49 749.096H1132.63V713.937H1097.49V749.096ZM1133.76 749.096H1168.91V713.937H1133.76V749.096ZM1170.04 749.096H1173.27V749.095H1205.04V713.937H1170.04V749.096ZM17.5938 749.095H52.7227V713.936H17.5938V749.095ZM53.8535 749.095H88.999V713.936H53.8535V749.095ZM257.156 713.937H233.262V749.095H268.261V713.936H257.156V713.937ZM269.392 749.095H304.539V713.936H269.392V749.095ZM305.669 749.095H340.815V713.936H305.669V749.095ZM341.946 749.095H377.075V713.936H341.946V749.095ZM378.206 749.095H413.352V713.936H378.206V749.095ZM581.509 713.937H557.614V749.095H592.613V713.936H581.509V713.937ZM593.744 749.095H628.891V713.936H593.744V749.095ZM630.021 749.095H665.167V713.936H630.021V749.095ZM666.298 749.095H701.428V713.936H666.298V749.095ZM702.559 749.095H737.704V713.936H702.559V749.095ZM905.86 713.937H881.967V749.095H916.966V713.936H905.86V713.937ZM918.097 749.095H953.243V713.936H918.097V749.095ZM954.374 749.095H989.52V713.936H954.374V749.095ZM990.65 749.095H1025.78V713.936H990.65V749.095ZM1026.91 749.095H1062.06V713.936H1026.91V749.095ZM1230.21 713.937H1206.32V749.095H1241.32V713.936H1230.21V713.937ZM1242.45 749.095H1277.6V713.936H1242.45V749.095ZM1278.73 749.095H1313.87V713.936H1278.73V749.095ZM1315 749.095H1350.13V713.936H1315V749.095ZM90.1299 712.804H121.915V712.805H123.3V677.629L91.5322 677.63V677.629H90.1299V712.804ZM124.43 712.805H159.577V677.629H124.43V712.805ZM160.707 712.805H195.854V677.629H160.707V712.805ZM196.985 712.805H200.215V712.804H231.983V677.629H196.985V712.805ZM414.482 712.804H446.268V712.805H447.651V677.629L415.885 677.63V677.629H414.482V712.804ZM448.782 712.805H483.929V677.629H448.782V712.805ZM485.06 712.805H520.206V677.629H485.06V712.805ZM521.337 712.805H524.567V712.804H556.336V677.629H521.337V712.805ZM738.835 712.804H770.619V712.805H772.004V677.629L740.236 677.63V677.629H738.835V712.804ZM773.135 712.805H808.281V677.629H773.135V712.805ZM809.412 712.805H844.559V677.629H809.412V712.805ZM845.689 712.805H848.919V712.804H880.688V677.629H845.689V712.805ZM1063.19 712.804H1094.97V712.805H1096.36V677.629L1064.59 677.63V677.629H1063.19V712.804ZM1097.49 712.805H1132.63V677.629H1097.49V712.805ZM1133.76 712.805H1168.91V677.629H1133.76V712.805ZM1170.04 712.805H1173.27V712.804H1205.04V677.629H1170.04V712.805ZM17.5938 712.804H52.7227V677.629H17.5938V712.804ZM53.8535 712.804H88.999V677.629H53.8535V712.804ZM233.262 712.804H268.261V677.629H233.262V712.804ZM269.392 712.804H304.539V677.629H269.392V712.804ZM305.669 712.804H340.815V677.629H305.669V712.804ZM341.946 712.804H377.075V677.629H341.946V712.804ZM378.206 712.804H413.352V677.629H378.206V712.804ZM557.614 712.804H592.613V677.629H557.614V712.804ZM593.744 712.804H628.891V677.629H593.744V712.804ZM630.021 712.804H665.167V677.629H630.021V712.804ZM666.298 712.804H701.428V677.629H666.298V712.804ZM702.559 712.804H737.704V677.629H702.559V712.804ZM881.967 712.804H916.966V677.629H881.967V712.804ZM918.097 712.804H953.243V677.629H918.097V712.804ZM954.374 712.804H989.52V677.629H954.374V712.804ZM990.65 712.804H1025.78V677.629H990.65V712.804ZM1026.91 712.804H1062.06V677.629H1026.91V712.804ZM1206.32 712.804H1241.32V677.629H1206.32V712.804ZM1242.45 712.804H1277.6V677.629H1242.45V712.804ZM1278.73 712.804H1313.87V677.629H1278.73V712.804ZM1315 712.804H1350.13V677.629H1315V712.804ZM90.1299 676.497H121.915V676.498H123.3V645.688H90.1299V676.497ZM124.43 676.498H159.577V645.688H124.43V676.498ZM160.707 676.498H195.854V645.688H160.707V676.498ZM196.985 676.498H200.215V676.497H231.983V645.688H196.985V676.498ZM414.482 676.497H446.268V676.498H447.651V645.688H414.482V676.497ZM448.782 676.498H483.929V645.688H448.782V676.498ZM485.06 676.498H520.206V645.688H485.06V676.498ZM521.337 676.498H524.567V676.497H556.335V645.688H521.337V676.498ZM738.835 676.497H770.619V676.498H772.004V645.688H738.835V676.497ZM773.135 676.498H808.281V645.688H773.135V676.498ZM809.412 676.498H844.559V645.688H809.412V676.498ZM845.689 676.498H848.919V676.497H880.688V645.688H845.689V676.498ZM1063.19 676.497H1094.97V676.498H1096.36V645.688H1063.19V676.497ZM1097.49 676.498H1132.63V645.688H1097.49V676.498ZM1133.76 676.498H1168.91V645.688H1133.76V676.498ZM1170.04 676.498H1173.27V676.497H1205.04V645.688H1170.04V676.498ZM17.5938 676.497H52.7227V645.688H17.5938V676.497ZM53.8535 676.497H88.999V645.688H53.8535V676.497ZM233.262 676.497H268.261V645.688H233.262V676.497ZM269.392 676.497H304.538V645.688H269.392V676.497ZM305.669 676.497H340.814V645.688H305.669V676.497ZM341.946 676.497H377.075V645.688H341.946V676.497ZM378.206 676.497H413.352V645.688H378.206V676.497ZM557.614 676.497H592.613V645.688H557.614V676.497ZM593.744 676.497H628.891V645.688H593.744V676.497ZM630.021 676.497H665.167V645.688H630.021V676.497ZM666.298 676.497H701.427V645.688H666.298V676.497ZM702.559 676.497H737.704V645.688H702.559V676.497ZM881.967 676.497H916.965V645.688H881.967V676.497ZM918.097 676.497H953.242V645.688H918.097V676.497ZM954.374 676.497H989.52V645.688H954.374V676.497ZM990.65 676.497H1025.78V645.688H990.65V676.497ZM1026.91 676.497H1062.06V645.688H1026.91V676.497ZM1206.32 676.497H1241.32V645.688H1206.32V676.497ZM1242.45 676.497H1277.59V645.688H1242.45V676.497ZM1278.73 676.497H1313.87V645.688H1278.73V676.497ZM1315 676.497H1350.13V645.688H1315V676.497ZM17.5938 644.556H52.7227V609.375H17.5938V644.556ZM53.8535 644.556H88.999V609.375H53.8535V644.556ZM90.1299 644.556H123.3V609.375H90.1299V644.556ZM124.43 644.556H159.577V609.375H124.43V644.556ZM160.707 644.556H195.854V609.375H160.707V644.556ZM196.985 644.556H231.983V609.375H196.985V644.556ZM233.262 644.556H268.261V609.375H233.262V644.556ZM269.392 644.556H304.538V609.375H269.392V644.556ZM305.669 644.556H340.814V609.375H305.669V644.556ZM341.945 644.556H377.075V609.375H341.945V644.556ZM378.205 644.556H413.352V609.375H378.205V644.556ZM414.482 644.556H447.651V609.375H414.482V644.556ZM448.782 644.556H483.929V609.375H448.782V644.556ZM485.06 644.556H520.206V609.375H485.06V644.556ZM521.337 644.556H556.335V609.375H521.337V644.556ZM557.614 644.556H592.613V609.375H557.614V644.556ZM593.743 644.556H628.891V609.375H593.743V644.556ZM630.021 644.556H665.167V609.375H630.021V644.556ZM666.298 644.556H701.427V609.375H666.298V644.556ZM702.558 644.556H737.704V609.375H702.558V644.556ZM738.835 644.556H772.004V609.375H738.835V644.556ZM773.135 644.556H808.281V609.375H773.135V644.556ZM809.412 644.556H844.559V609.375H809.412V644.556ZM845.689 644.556H880.688V609.375H845.689V644.556ZM881.967 644.556H916.965V609.375H881.967V644.556ZM918.096 644.556H953.242V609.375H918.096V644.556ZM954.373 644.556H989.52V609.375H954.373V644.556ZM990.65 644.556H1025.78V609.375H990.65V644.556ZM1026.91 644.556H1062.06V609.375H1026.91V644.556ZM1063.19 644.556H1096.36V609.375H1063.19V644.556ZM1097.49 644.556H1132.63V609.375H1097.49V644.556ZM1133.76 644.556H1168.91V609.375H1133.76V644.556ZM1170.04 644.556H1205.04V609.375H1170.04V644.556ZM1206.32 644.556H1241.32V609.375H1206.32V644.556ZM1242.45 644.556H1277.59V609.375H1242.45V644.556ZM1278.73 644.556H1313.87V609.375H1278.73V644.556ZM1315 644.556H1350.13V609.375H1315V644.556ZM17.5938 608.243H52.7227V605.06H52.6084V573.27H17.5938V608.243ZM53.8535 608.243H88.999V605.06H88.8916V573.27H53.8535V608.243ZM90.1299 608.243H123.3V605.061H123.197V573.27L91.4248 573.271V573.27H90.1299V608.243ZM124.43 608.243H159.577V605.061H159.481V573.27H124.43V608.243ZM160.707 608.243H195.854V605.061H195.765V573.27H160.707V608.243ZM196.985 608.243H231.983V605.06H231.9V573.27H196.985V608.243ZM233.262 608.243H268.261V605.06H268.185V573.27H233.262V608.243ZM269.392 608.243H304.538V605.06H304.469V573.27H269.392V608.243ZM305.669 608.243H340.814V605.06H340.752V573.27H305.669V608.243ZM341.945 608.243H377.075V605.06H377.019V573.27H341.945V608.243ZM378.205 608.243H413.352V605.06H413.301V573.27H378.205V608.243ZM414.482 608.243H447.651V605.061H447.607V573.27L415.834 573.271V573.27H414.482V608.243ZM448.782 608.243H483.929V605.061H483.891V573.27H448.782V608.243ZM485.06 608.243H520.206V605.061H520.175V573.27H485.06V608.243ZM521.337 608.243H556.335V605.06H556.311V573.27H521.337V608.243ZM557.614 608.243H592.613V605.06H592.595V573.27H557.614V608.243ZM593.743 608.243H628.891V605.06H628.879V573.27H593.743V608.243ZM630.021 608.243H665.167V605.06H665.161V573.27H630.021V608.243ZM666.298 608.243H701.427V573.27H666.298V608.243ZM702.559 605.06H702.558V608.243H737.704V573.27H702.559V605.06ZM738.842 605.06H738.835V608.243H772.004V573.27L740.244 573.271V573.27H738.842V605.06ZM773.147 605.061H773.135V608.243H808.281V573.27H773.147V605.061ZM809.432 605.061H809.412V608.243H844.559V573.27H809.432V605.061ZM845.716 605.061H845.689V608.243H880.688V573.27H845.716V605.061ZM881.999 605.061H881.967V608.243H916.965V573.27H881.999V605.061ZM918.136 605.06H918.096V608.243H953.242V573.27H918.136V605.06ZM954.419 605.06H954.373V608.243H989.52V573.27H954.419V605.06ZM990.702 605.06H990.65V608.243H1025.78V573.27H990.702V605.06ZM1026.97 605.06H1026.91V608.243H1062.06V573.27H1026.97V605.06ZM1063.25 605.06H1063.19V608.243H1096.36V573.27L1064.65 573.271V573.27H1063.25V605.06ZM1097.56 605.061H1097.49V608.243H1132.63V573.27H1097.56V605.061ZM1133.84 605.061H1133.76V608.243H1168.91V573.27H1133.84V605.061ZM1170.12 605.061H1170.04V608.243H1205.04V573.27H1170.12V605.061ZM1206.41 605.061H1206.32V608.243H1241.32V573.27H1206.41V605.061ZM1242.54 605.06H1242.45V608.243H1277.59V573.27H1242.54V605.06ZM1278.83 605.06H1278.73V608.243H1313.87V573.27H1278.83V605.06ZM1315.11 605.06H1315V608.243H1350.13V573.27H1315.11V605.06ZM17.4727 571.939H52.6084V536.961H17.4727V571.939ZM53.7393 571.939H88.8916V536.961H53.7393V571.939ZM90.0225 571.939H123.197V536.961H90.0225V571.939ZM124.328 571.939H159.481V536.961H124.328V571.939ZM160.612 571.939H195.765V536.961H160.612V571.939ZM196.896 571.939H231.9V536.961H196.896V571.939ZM233.18 571.939H268.185V536.961H233.18V571.939ZM269.315 571.939H304.469V536.961H269.315V571.939ZM305.6 571.939H340.752V536.961H305.6V571.939ZM341.883 571.939H377.019V536.961H341.883V571.939ZM378.149 571.939H413.301V536.961H378.149V571.939ZM414.433 571.939H447.607V536.961H414.433V571.939ZM448.738 571.939H483.891V536.961H448.738V571.939ZM485.021 571.939H520.175V536.961H485.021V571.939ZM521.306 571.939H556.311V536.961H521.306V571.939ZM557.589 571.939H592.595V536.961H557.589V571.939ZM593.726 571.939H628.879V536.961H593.726V571.939ZM630.01 571.939H665.161V536.961H630.01V571.939ZM666.292 571.939H701.428V536.961H666.292V571.939ZM702.559 571.939H737.711V536.961H702.559V571.939ZM738.842 571.939H772.017V536.961H738.842V571.939ZM773.147 571.939H808.301V536.961H773.147V571.939ZM809.432 571.939H844.584V536.961H809.432V571.939ZM845.716 571.939H880.721V536.961H845.716V571.939ZM881.999 571.939H917.004V536.961H881.999V571.939ZM918.136 571.939H953.288V536.961H918.136V571.939ZM954.419 571.939H989.571V536.961H954.419V571.939ZM990.702 571.939H1025.84V536.961H990.702V571.939ZM1026.97 571.939H1062.12V536.961H1026.97V571.939ZM1063.25 571.939H1096.43V536.961H1063.25V571.939ZM1097.56 571.939H1132.71V536.961H1097.56V571.939ZM1133.84 571.939H1168.99V536.961H1133.84V571.939ZM1170.12 571.939H1205.13V536.961H1170.12V571.939ZM1206.41 571.939H1241.41V536.961H1206.41V571.939ZM1242.54 571.939H1277.7V536.961H1242.54V571.939ZM1278.83 571.939H1313.98V536.961H1278.83V571.939ZM1315.11 571.939H1350.25V536.961H1315.11V571.939ZM90.0225 535.829H121.813V535.83H123.197V500.662H90.0225V535.829ZM124.328 535.83H159.481V500.662H124.328V535.83ZM160.612 535.83H195.765V500.662H160.612V535.83ZM196.896 535.83H200.127V535.829H231.9V500.662H196.896V535.83ZM414.433 535.829H446.223V535.83H447.607V500.662H414.433V535.829ZM448.738 535.83H483.891V500.662H448.738V535.83ZM485.021 535.83H520.175V500.662H485.021V535.83ZM521.306 535.83H524.536V535.829H556.311V500.662H521.306V535.83ZM738.842 535.829H770.633V535.83H772.017V500.662H738.842V535.829ZM773.147 535.83H808.301V500.662H773.147V535.83ZM809.432 535.83H844.584V500.662H809.432V535.83ZM845.716 535.83H848.946V535.829H880.721V500.662H845.716V535.83ZM1063.25 535.829H1095.04V535.83H1096.43V500.662H1063.25V535.829ZM1097.56 535.83H1132.71V500.662H1097.56V535.83ZM1133.84 535.83H1168.99V500.662H1133.84V535.83ZM1170.12 535.83H1173.36V535.829H1205.13V500.662H1170.12V535.83ZM17.4727 535.829H52.6084V500.662H17.4727V535.829ZM53.7393 535.829H88.8916V500.662H53.7393V535.829ZM233.18 535.829H268.185V500.662H233.18V535.829ZM269.315 535.829H304.469V500.662H269.315V535.829ZM305.6 535.829H340.752V500.662H305.6V535.829ZM341.883 535.829H377.019V500.662H341.883V535.829ZM378.149 535.829H413.301V500.662H378.149V535.829ZM557.589 535.829H592.595V500.662H557.589V535.829ZM593.726 535.829H628.879V500.662H593.726V535.829ZM630.01 535.829H665.161V500.662H630.01V535.829ZM666.292 535.829H701.428V500.662H666.292V535.829ZM702.559 535.829H737.711V500.662H702.559V535.829ZM881.999 535.829H917.004V500.662H881.999V535.829ZM918.136 535.829H953.288V500.662H918.136V535.829ZM954.419 535.829H989.571V500.662H954.419V535.829ZM990.702 535.829H1025.84V500.662H990.702V535.829ZM1026.97 535.829H1062.12V500.662H1026.97V535.829ZM1206.41 535.829H1241.41V500.662H1206.41V535.829ZM1242.54 535.829H1277.7V500.662H1242.54V535.829ZM1278.83 535.829H1313.98V500.662H1278.83V535.829ZM1315.11 535.829H1350.25V500.662H1315.11V535.829ZM17.4727 499.53H52.6084V464.353H17.4727V499.53ZM53.7393 499.53H88.8916V464.353H53.7393V499.53ZM90.0225 499.53H123.197V464.354H91.4248V464.353H90.0225V499.53ZM124.328 499.53H159.481V464.354H124.328V499.53ZM160.612 499.53H195.765V464.354H160.612V499.53ZM196.896 499.53H231.9V464.354H196.896V499.53ZM257.078 464.354H233.18V499.53H268.185V464.353H257.078V464.354ZM269.315 499.53H304.469V464.353H269.315V499.53ZM305.6 499.53H340.752V464.353H305.6V499.53ZM341.883 499.53H377.019V464.353H341.883V499.53ZM378.149 499.53H413.301V464.353H378.149V499.53ZM414.433 499.53H447.607V464.354H415.834V464.353H414.433V499.53ZM448.738 499.53H483.891V464.354H448.738V499.53ZM485.021 499.53H520.175V464.354H485.021V499.53ZM521.306 499.53H556.311V464.354H521.306V499.53ZM581.487 464.354H557.589V499.53H592.595V464.353H581.487V464.354ZM593.726 499.53H628.879V464.353H593.726V499.53ZM630.01 499.53H665.161V464.353H630.01V499.53ZM666.292 499.53H701.428V464.353H666.292V499.53ZM702.559 499.53H737.711V464.353H702.559V499.53ZM738.842 499.53H772.017V464.354H740.244V464.353H738.842V499.53ZM773.147 499.53H808.301V464.354H773.147V499.53ZM809.432 499.53H844.584V464.354H809.432V499.53ZM845.716 499.53H880.721V464.354H845.716V499.53ZM905.897 464.354H881.999V499.53H917.004V464.353H905.897V464.354ZM918.136 499.53H953.288V464.353H918.136V499.53ZM954.419 499.53H989.571V464.353H954.419V499.53ZM990.702 499.53H1025.84V464.353H990.702V499.53ZM1026.97 499.53H1062.12V464.353H1026.97V499.53ZM1063.25 499.53H1096.43V464.354H1064.65V464.353H1063.25V499.53ZM1097.56 499.53H1132.71V464.354H1097.56V499.53ZM1133.84 499.53H1168.99V464.354H1133.84V499.53ZM1170.12 499.53H1205.13V464.354H1170.12V499.53ZM1230.31 464.354H1206.41V499.53H1241.41V464.353H1230.31V464.354ZM1242.54 499.53H1277.7V464.353H1242.54V499.53ZM1278.83 499.53H1313.98V464.353H1278.83V499.53ZM1315.11 499.53H1350.25V464.353H1315.11V499.53ZM90.0225 463.221H121.813V463.222H123.197V428.066H91.4248V428.065H90.0225V463.221ZM124.328 463.222H159.481V428.066H124.328V463.222ZM160.612 463.222H195.765V428.066H160.612V463.222ZM196.896 463.222H200.127V463.221H231.9V428.066H196.896V463.222ZM414.433 463.221H446.223V463.222H447.607V428.066H415.834V428.065H414.433V463.221ZM448.738 463.222H483.891V428.066H448.738V463.222ZM485.021 463.222H520.175V428.066H485.021V463.222ZM521.306 463.222H524.536V463.221H556.311V428.066H521.306V463.222ZM738.842 463.221H770.633V463.222H772.017V428.066H740.244V428.065H738.842V463.221ZM773.147 463.222H808.301V428.066H773.147V463.222ZM809.432 463.222H844.584V428.066H809.432V463.222ZM845.716 463.222H848.946V463.221H880.721V428.066H845.716V463.222ZM1063.25 463.221H1095.04V463.222H1096.43V428.066H1064.65V428.065H1063.25V463.221ZM1097.56 463.222H1132.71V428.066H1097.56V463.222ZM1133.84 463.222H1168.99V428.066H1133.84V463.222ZM1170.12 463.222H1173.36V463.221H1205.13V428.066H1170.12V463.222ZM17.4727 463.221H52.6084V428.065H17.4727V463.221ZM53.7393 463.221H88.8916V428.065H53.7393V463.221ZM257.078 428.066H233.18V463.221H268.185V428.065H257.078V428.066ZM269.315 463.221H304.469V428.065H269.315V463.221ZM305.6 463.221H340.752V428.065H305.6V463.221ZM341.883 463.221H377.019V428.065H341.883V463.221ZM378.149 463.221H413.301V428.065H378.149V463.221ZM581.487 428.066H557.589V463.221H592.595V428.065H581.487V428.066ZM593.726 463.221H628.879V428.065H593.726V463.221ZM630.01 463.221H665.161V428.065H630.01V463.221ZM666.292 463.221H701.428V428.065H666.292V463.221ZM702.559 463.221H737.711V428.065H702.559V463.221ZM905.897 428.066H881.999V463.221H917.004V428.065H905.897V428.066ZM918.136 463.221H953.288V428.065H918.136V463.221ZM954.419 463.221H989.571V428.065H954.419V463.221ZM990.702 463.221H1025.84V428.065H990.702V463.221ZM1026.97 463.221H1062.12V428.065H1026.97V463.221ZM1230.31 428.066H1206.41V463.221H1241.41V428.065H1230.31V428.066ZM1242.54 463.221H1277.7V428.065H1242.54V463.221ZM1278.83 463.221H1313.98V428.065H1278.83V463.221ZM1315.11 463.221H1350.25V428.065H1315.11V463.221ZM17.4727 426.935H52.6084V391.764H17.4727V426.935ZM53.7393 426.935H88.8916V391.764H53.7393V426.935ZM90.0225 426.935H123.197V391.764H90.0225V426.935ZM124.328 426.935H159.481V391.764H124.328V426.935ZM160.612 426.935H195.765V391.764H160.612V426.935ZM196.896 426.935H231.9V391.764H196.896V426.935ZM233.18 426.935H268.185V391.764H233.18V426.935ZM269.315 426.935H304.469V391.764H269.315V426.935ZM305.6 426.935H340.752V391.764H305.6V426.935ZM341.883 426.935H377.019V391.764H341.883V426.935ZM378.149 426.935H413.301V391.764H378.149V426.935ZM414.433 426.935H447.607V391.764H414.433V426.935ZM448.738 426.935H483.891V391.764H448.738V426.935ZM485.021 426.935H520.175V391.764H485.021V426.935ZM521.306 426.935H556.311V391.764H521.306V426.935ZM557.589 426.935H592.595V391.764H557.589V426.935ZM593.726 426.935H628.879V391.764H593.726V426.935ZM630.01 426.935H665.161V391.764H630.01V426.935ZM666.292 426.935H701.428V391.764H666.292V426.935ZM702.559 426.935H737.711V391.764H702.559V426.935ZM738.842 426.935H772.017V391.764H738.842V426.935ZM773.147 426.935H808.301V391.764H773.147V426.935ZM809.432 426.935H844.584V391.764H809.432V426.935ZM845.716 426.935H880.721V391.764H845.716V426.935ZM881.999 426.935H917.004V391.764H881.999V426.935ZM918.136 426.935H953.288V391.764H918.136V426.935ZM954.419 426.935H989.571V391.764H954.419V426.935ZM990.702 426.935H1025.84V391.764H990.702V426.935ZM1026.97 426.935H1062.12V391.764H1026.97V426.935ZM1063.25 426.935H1096.43V391.764H1063.25V426.935ZM1097.56 426.935H1132.71V391.764H1097.56V426.935ZM1133.84 426.935H1168.99V391.764H1133.84V426.935ZM1170.12 426.935H1205.13V391.764H1170.12V426.935ZM1206.41 426.935H1241.41V391.764H1206.41V426.935ZM1242.54 426.935H1277.7V391.764H1242.54V426.935ZM1278.83 426.935H1313.98V391.764H1278.83V426.935ZM1315.11 426.935H1350.25V391.764H1315.11V426.935ZM17.4727 390.632H52.6084V359.826H17.4727V390.632ZM53.7393 390.632H88.8916V359.826H53.7393V390.632ZM90.0225 390.632H123.197V359.826H90.0225V390.632ZM124.328 390.632H159.481V359.826H124.328V390.632ZM160.612 390.632H195.765V359.826H160.612V390.632ZM196.896 390.632H231.9V359.826H196.896V390.632ZM233.18 390.632H268.185V359.826H233.18V390.632ZM269.315 390.632H304.468V359.826H269.315V390.632ZM305.6 390.632H340.752V359.826H305.6V390.632ZM341.883 390.632H377.018V359.826H341.883V390.632ZM378.149 390.632H413.301V359.826H378.149V390.632ZM414.433 390.632H447.607V359.826H414.433V390.632ZM448.738 390.632H483.891V359.826H448.738V390.632ZM485.021 390.632H520.175V359.826H485.021V390.632ZM521.306 390.632H556.311V359.826H521.306V390.632ZM557.589 390.632H592.594V359.826H557.589V390.632ZM593.726 390.632H628.878V359.826H593.726V390.632ZM630.01 390.632H665.161V359.826H630.01V390.632ZM666.292 390.632H701.428V359.826H666.292V390.632ZM702.559 390.632H737.711V359.826H702.559V390.632ZM738.842 390.632H772.017V359.826H738.842V390.632ZM773.147 390.632H808.301V359.826H773.147V390.632ZM809.432 390.632H844.584V359.826H809.432V390.632ZM845.716 390.632H880.72V359.826H845.716V390.632ZM881.999 390.632H917.004V359.826H881.999V390.632ZM918.136 390.632H953.287V359.826H918.136V390.632ZM954.419 390.632H989.571V359.826H954.419V390.632ZM990.702 390.632H1025.84V359.826H990.702V390.632ZM1026.97 390.632H1062.12V359.826H1026.97V390.632ZM1063.25 390.632H1096.43V359.826H1063.25V390.632ZM1097.56 390.632H1132.71V359.826H1097.56V390.632ZM1133.84 390.632H1168.99V359.826H1133.84V390.632ZM1170.12 390.632H1205.13V359.826H1170.12V390.632ZM1206.41 390.632H1241.41V359.826H1206.41V390.632ZM1242.54 390.632H1277.7V359.826H1242.54V390.632ZM1278.83 390.632H1313.98V359.826H1278.83V390.632ZM1315.11 390.632H1350.25V359.826H1315.11V390.632ZM17.4727 358.694H52.6084V323.518H17.4727V358.694ZM53.7393 358.694H88.8916V323.518H53.7393V358.694ZM90.0225 358.694H123.197V323.518H90.0225V358.694ZM124.328 358.694H159.481V323.518H124.328V358.694ZM160.612 358.694H195.765V323.518H160.612V358.694ZM196.896 358.694H231.9V323.518H196.896V358.694ZM233.18 358.694H268.185V323.518H233.18V358.694ZM269.315 358.694H304.468V323.518H269.315V358.694ZM305.6 358.694H340.752V323.518H305.6V358.694ZM341.883 358.694H377.018V323.518H341.883V358.694ZM378.148 358.694H413.301V323.518H378.148V358.694ZM414.433 358.694H447.607V323.518H414.433V358.694ZM448.738 358.694H483.891V323.518H448.738V358.694ZM485.021 358.694H520.175V323.518H485.021V358.694ZM521.306 358.694H556.311V323.518H521.306V358.694ZM557.589 358.694H592.594V323.518H557.589V358.694ZM593.725 358.694H628.878V323.518H593.725V358.694ZM630.009 358.694H665.161V323.518H630.009V358.694ZM666.292 358.694H701.428V323.518H666.292V358.694ZM702.559 358.694H737.711V323.518H702.559V358.694ZM738.842 358.694H772.017V323.518H738.842V358.694ZM773.147 358.694H808.301V323.518H773.147V358.694ZM809.432 358.694H844.584V323.518H809.432V358.694ZM845.716 358.694H880.72V323.518H845.716V358.694ZM881.999 358.694H917.004V323.518H881.999V358.694ZM918.135 358.694H953.287V323.518H918.135V358.694ZM954.419 358.694H989.571V323.518H954.419V358.694ZM990.702 358.694H1025.84V323.518H990.702V358.694ZM1026.97 358.694H1062.12V323.518H1026.97V358.694ZM1063.25 358.694H1096.43V323.518H1063.25V358.694ZM1097.56 358.694H1132.71V323.518H1097.56V358.694ZM1133.84 358.694H1168.99V323.518H1133.84V358.694ZM1170.12 358.694H1205.13V323.518H1170.12V358.694ZM1206.41 358.694H1241.41V323.518H1206.41V358.694ZM1242.54 358.694H1277.7V323.518H1242.54V358.694ZM1278.83 358.694H1313.98V323.518H1278.83V358.694ZM1315.11 358.694H1350.25V323.518H1315.11V358.694ZM17.5938 319.011H17.4727V322.386H52.6084V287.218H17.5938V319.011ZM53.8535 319.011H53.7393V322.386H88.8916V287.218H53.8535V319.011ZM90.1299 319.011H90.0225V322.386H123.197V287.218H90.1299V319.011ZM124.43 319.012H124.328V322.386H159.481V287.218H124.43V319.012ZM160.707 319.012H160.612V322.386H195.765V287.218H160.707V319.012ZM196.985 319.012H196.896V322.386H231.9V287.218H196.985V319.012ZM233.262 319.012H233.18V322.386H268.185V287.218H233.262V319.012ZM269.392 319.011H269.315V322.386H304.468V287.218H269.392V319.011ZM305.669 319.011H305.6V322.386H340.752V287.218H305.669V319.011ZM341.946 319.011H341.883V322.386H377.018V287.218H341.946V319.011ZM378.206 319.011H378.148V322.386H413.301V287.218H378.206V319.011ZM414.482 319.011H414.433V322.386H447.607V287.218H414.482V319.011ZM448.782 319.012H448.738V322.386H483.891V287.218H448.782V319.012ZM485.06 319.012H485.021V322.386H520.175V287.218H485.06V319.012ZM521.337 319.012H521.306V322.386H556.311V287.218H521.337V319.012ZM557.614 319.012H557.589V322.386H592.594V287.218H557.614V319.012ZM593.744 319.011H593.725V322.386H628.878V287.218H593.744V319.011ZM630.021 319.011H630.009V322.386H665.161V287.218H630.021V319.011ZM666.298 319.011H666.292V322.386H701.428V287.218H666.298V319.011ZM702.559 322.386H737.711V319.011H737.704V287.218H702.559V322.386ZM738.842 322.386H772.017V319.012H772.004V287.218H738.842V322.386ZM773.147 322.386H808.301V319.012H808.281V287.218H773.147V322.386ZM809.432 322.386H844.584V319.012H844.559V287.218H809.432V322.386ZM845.716 322.386H880.72V319.011H880.688V287.218H845.716V322.386ZM881.999 322.386H917.004V319.011H916.966V287.218H881.999V322.386ZM918.135 322.386H953.287V319.011H953.243V287.218H918.135V322.386ZM954.419 322.386H989.571V319.011H989.52V287.218H954.419V322.386ZM990.702 322.386H1025.84V319.011H1025.78V287.218H990.702V322.386ZM1026.97 322.386H1062.12V319.011H1062.06V287.218H1026.97V322.386ZM1063.25 322.386H1096.43V319.012H1096.36V287.218H1063.25V322.386ZM1097.56 322.386H1132.71V319.012H1132.63V287.218H1097.56V322.386ZM1133.84 322.386H1168.99V319.012H1168.91V287.218H1133.84V322.386ZM1170.12 322.386H1205.13V319.011H1205.04V287.218H1170.12V322.386ZM1206.41 322.386H1241.41V319.011H1241.32V287.218H1206.41V322.386ZM1242.54 322.386H1277.7V319.011H1277.6V287.218H1242.54V322.386ZM1278.83 322.386H1313.98V319.011H1313.87V287.218H1278.83V322.386ZM1315.11 322.386H1350.25V319.011H1350.13V287.218H1315.11V322.386ZM17.5938 286.086H52.7227V250.904H17.5938V286.086ZM53.8535 286.086H88.999V250.904H53.8535V286.086ZM90.1299 286.086H123.3V250.904H90.1299V286.086ZM124.43 286.086H159.577V250.904H124.43V286.086ZM160.707 286.086H195.854V250.904H160.707V286.086ZM196.985 286.086H231.983V250.904H196.985V286.086ZM233.262 286.086H268.261V250.904H233.262V286.086ZM269.392 286.086H304.539V250.904H269.392V286.086ZM305.669 286.086H340.815V250.904H305.669V286.086ZM341.946 286.086H377.075V250.904H341.946V286.086ZM378.206 286.086H413.352V250.904H378.206V286.086ZM414.482 286.086H447.651V250.904H414.482V286.086ZM448.782 286.086H483.929V250.904H448.782V286.086ZM485.06 286.086H520.206V250.904H485.06V286.086ZM521.337 286.086H556.336V250.904H521.337V286.086ZM557.614 286.086H592.613V250.904H557.614V286.086ZM593.744 286.086H628.891V250.904H593.744V286.086ZM630.021 286.086H665.167V250.904H630.021V286.086ZM666.298 286.086H701.428V250.904H666.298V286.086ZM702.559 286.086H737.704V250.904H702.559V286.086ZM738.835 286.086H772.004V250.904H738.835V286.086ZM773.135 286.086H808.281V250.904H773.135V286.086ZM809.412 286.086H844.559V250.904H809.412V286.086ZM845.689 286.086H880.688V250.904H845.689V286.086ZM881.967 286.086H916.966V250.904H881.967V286.086ZM918.097 286.086H953.243V250.904H918.097V286.086ZM954.374 286.086H989.52V250.904H954.374V286.086ZM990.65 286.086H1025.78V250.904H990.65V286.086ZM1026.91 286.086H1062.06V250.904H1026.91V286.086ZM1063.19 286.086H1096.36V250.904H1063.19V286.086ZM1097.49 286.086H1132.63V250.904H1097.49V286.086ZM1133.76 286.086H1168.91V250.904H1133.76V286.086ZM1170.04 286.086H1205.04V250.904H1170.04V286.086ZM1206.32 286.086H1241.32V250.904H1206.32V286.086ZM1242.45 286.086H1277.6V250.904H1242.45V286.086ZM1278.73 286.086H1313.87V250.904H1278.73V286.086ZM1315 286.086H1350.13V250.904H1315V286.086ZM17.5938 249.772H52.7227V214.601H17.5938V249.772ZM53.8535 249.772H88.999V214.601H53.8535V249.772ZM90.1299 249.772H123.3V214.601H90.1299V249.772ZM124.43 249.772H159.577V214.601H124.43V249.772ZM160.707 249.772H195.854V214.601H160.707V249.772ZM196.985 249.772H231.983V214.601H196.985V249.772ZM233.262 249.772H268.261V214.601H233.262V249.772ZM269.392 249.772H304.539V214.601H269.392V249.772ZM305.669 249.772H340.815V214.601H305.669V249.772ZM341.946 249.772H377.075V214.601H341.946V249.772ZM378.206 249.772H413.352V214.601H378.206V249.772ZM414.482 249.772H447.651V214.601H414.482V249.772ZM448.782 249.772H483.929V214.601H448.782V249.772ZM485.06 249.772H520.206V214.601H485.06V249.772ZM521.337 249.772H556.336V214.601H521.337V249.772ZM557.614 249.772H592.613V214.601H557.614V249.772ZM593.744 249.772H628.891V214.601H593.744V249.772ZM630.021 249.772H665.167V214.601H630.021V249.772ZM666.298 249.772H701.428V214.601H666.298V249.772ZM702.559 249.772H737.704V214.601H702.559V249.772ZM738.835 249.772H772.004V214.601H738.835V249.772ZM773.135 249.772H808.281V214.601H773.135V249.772ZM809.412 249.772H844.559V214.601H809.412V249.772ZM845.689 249.772H880.688V214.601H845.689V249.772ZM881.967 249.772H916.966V214.601H881.967V249.772ZM918.097 249.772H953.243V214.601H918.097V249.772ZM954.374 249.772H989.52V214.601H954.374V249.772ZM990.65 249.772H1025.78V214.601H990.65V249.772ZM1026.91 249.772H1062.06V214.601H1026.91V249.772ZM1063.19 249.772H1096.36V214.601H1063.19V249.772ZM1097.49 249.772H1132.63V214.601H1097.49V249.772ZM1133.76 249.772H1168.91V214.601H1133.76V249.772ZM1170.04 249.772H1205.04V214.601H1170.04V249.772ZM1206.32 249.772H1241.32V214.601H1206.32V249.772ZM1242.45 249.772H1277.6V214.601H1242.45V249.772ZM1278.73 249.772H1313.87V214.601H1278.73V249.772ZM1315 249.772H1350.13V214.601H1315V249.772ZM17.5938 213.469H52.7227V178.287H17.5938V213.469ZM53.8535 213.469H88.999V178.287H53.8535V213.469ZM90.1299 213.469H123.3V178.288H91.5322V178.287H90.1299V213.469ZM124.43 213.469H159.577V178.288H124.43V213.469ZM160.707 213.469H195.854V178.288H160.707V213.469ZM196.985 213.469H231.983V178.288H196.985V213.469ZM257.156 178.288H233.262V213.469H268.261V178.287H257.156V178.288ZM269.392 213.469H304.539V178.287H269.392V213.469ZM305.669 213.469H340.815V178.287H305.669V213.469ZM341.946 213.469H377.075V178.287H341.946V213.469ZM378.206 213.469H413.352V178.287H378.206V213.469ZM414.482 213.469H447.651V178.288H415.885V178.287H414.482V213.469ZM448.782 213.469H483.929V178.288H448.782V213.469ZM485.06 213.469H520.206V178.288H485.06V213.469ZM521.337 213.469H556.336V178.288H521.337V213.469ZM581.509 178.288H557.614V213.469H592.613V178.287H581.509V178.288ZM593.744 213.469H628.891V178.287H593.744V213.469ZM630.021 213.469H665.167V178.287H630.021V213.469ZM666.298 213.469H701.428V178.287H666.298V213.469ZM702.559 213.469H737.704V178.287H702.559V213.469ZM738.835 213.469H772.004V178.288H740.236V178.287H738.835V213.469ZM773.135 213.469H808.281V178.288H773.135V213.469ZM809.412 213.469H844.559V178.288H809.412V213.469ZM845.689 213.469H880.688V178.288H845.689V213.469ZM905.86 178.288H881.967V213.469H916.966V178.287H905.86V178.288ZM918.097 213.469H953.243V178.287H918.097V213.469ZM954.374 213.469H989.52V178.287H954.374V213.469ZM990.65 213.469H1025.78V178.287H990.65V213.469ZM1026.91 213.469H1062.06V178.287H1026.91V213.469ZM1063.19 213.469H1096.36V178.288H1064.59V178.287H1063.19V213.469ZM1097.49 213.469H1132.63V178.288H1097.49V213.469ZM1133.76 213.469H1168.91V178.288H1133.76V213.469ZM1170.04 213.469H1205.04V178.288H1170.04V213.469ZM1230.21 178.288H1206.32V213.469H1241.32V178.287H1230.21V178.288ZM1242.45 213.469H1277.6V178.287H1242.45V213.469ZM1278.73 213.469H1313.87V178.287H1278.73V213.469ZM1315 213.469H1350.13V178.287H1315V213.469ZM90.1299 177.155H121.915V177.156H123.3V141.996H90.1299V177.155ZM124.43 177.156H159.577V141.996H124.43V177.156ZM160.707 177.156H195.854V141.996H160.707V177.156ZM196.985 177.156H200.215V177.155H231.983V141.996H196.985V177.156ZM414.482 177.155H446.268V177.156H447.651V141.996H414.482V177.155ZM448.782 177.156H483.929V141.996H448.782V177.156ZM485.06 177.156H520.206V141.996H485.06V177.156ZM521.337 177.156H524.567V177.155H556.336V141.996H521.337V177.156ZM738.835 177.155H770.619V177.156H772.004V141.996H738.835V177.155ZM773.135 177.156H808.281V141.996H773.135V177.156ZM809.412 177.156H844.559V141.996H809.412V177.156ZM845.689 177.156H848.919V177.155H880.688V141.996H845.689V177.156ZM1063.19 177.155H1094.97V177.156H1096.36V141.996H1063.19V177.155ZM1097.49 177.156H1132.63V141.996H1097.49V177.156ZM1133.76 177.156H1168.91V141.996H1133.76V177.156ZM1170.04 177.156H1173.27V177.155H1205.04V141.996H1170.04V177.156ZM17.5938 177.155H52.7227V141.996H17.5938V177.155ZM53.8535 177.155H88.999V141.996H53.8535V177.155ZM233.262 177.155H268.261V141.996H233.262V177.155ZM269.392 177.155H304.539V141.996H269.392V177.155ZM305.669 177.155H340.815V141.996H305.669V177.155ZM341.946 177.155H377.075V141.996H341.946V177.155ZM378.206 177.155H413.352V141.996H378.206V177.155ZM557.614 177.155H592.613V141.996H557.614V177.155ZM593.744 177.155H628.891V141.996H593.744V177.155ZM630.021 177.155H665.167V141.996H630.021V177.155ZM666.298 177.155H701.428V141.996H666.298V177.155ZM702.559 177.155H737.704V141.996H702.559V177.155ZM881.967 177.155H916.966V141.996H881.967V177.155ZM918.097 177.155H953.243V141.996H918.097V177.155ZM954.374 177.155H989.52V141.996H954.374V177.155ZM990.65 177.155H1025.78V141.996H990.65V177.155ZM1026.91 177.155H1062.06V141.996H1026.91V177.155ZM1206.32 177.155H1241.32V141.996H1206.32V177.155ZM1242.45 177.155H1277.6V141.996H1242.45V177.155ZM1278.73 177.155H1313.87V141.996H1278.73V177.155ZM1315 177.155H1350.13V141.996H1315V177.155ZM90.1299 140.864H121.915V140.865H123.3V105.689H90.1299V140.864ZM124.43 140.865H159.577V105.689H124.43V140.865ZM160.707 140.865H195.854V105.689H160.707V140.865ZM196.985 140.865H200.215V140.864H231.983V105.689H196.985V140.865ZM414.482 140.864H446.268V140.865H447.651V105.689H414.482V140.864ZM448.782 140.865H483.929V105.689H448.782V140.865ZM485.06 140.865H520.206V105.689H485.06V140.865ZM521.337 140.865H524.567V140.864H556.336V105.689H521.337V140.865ZM738.835 140.864H770.619V140.865H772.004V105.689H738.835V140.864ZM773.135 140.865H808.281V105.689H773.135V140.865ZM809.412 140.865H844.559V105.689H809.412V140.865ZM845.689 140.865H848.919V140.864H880.688V105.689H845.689V140.865ZM1063.19 140.864H1094.97V140.865H1096.36V105.689H1063.19V140.864ZM1097.49 140.865H1132.63V105.689H1097.49V140.865ZM1133.76 140.865H1168.91V105.689H1133.76V140.865ZM1170.04 140.865H1173.27V140.864H1205.04V105.689H1170.04V140.865ZM17.5938 140.864H52.7227V105.689H17.5938V140.864ZM53.8535 140.864H88.999V105.689H53.8535V140.864ZM233.262 140.864H268.261V105.689H233.262V140.864ZM269.392 140.864H304.539V105.689H269.392V140.864ZM305.669 140.864H340.815V105.689H305.669V140.864ZM341.946 140.864H377.075V105.689H341.946V140.864ZM378.206 140.864H413.352V105.689H378.206V140.864ZM557.614 140.864H592.613V105.689H557.614V140.864ZM593.744 140.864H628.891V105.689H593.744V140.864ZM630.021 140.864H665.167V105.689H630.021V140.864ZM666.298 140.864H701.428V105.689H666.298V140.864ZM702.559 140.864H737.704V105.689H702.559V140.864ZM881.967 140.864H916.966V105.689H881.967V140.864ZM918.097 140.864H953.243V105.689H918.097V140.864ZM954.374 140.864H989.52V105.689H954.374V140.864ZM990.65 140.864H1025.78V105.689H990.65V140.864ZM1026.91 140.864H1062.06V105.689H1026.91V140.864ZM1206.32 140.864H1241.32V105.689H1206.32V140.864ZM1242.45 140.864H1277.6V105.689H1242.45V140.864ZM1278.73 140.864H1313.87V105.689H1278.73V140.864ZM1315 140.864H1350.13V105.689H1315V140.864ZM17.5938 104.558H52.7227V73.748H17.5938V104.558ZM53.8535 104.558H88.999V73.748H53.8535V104.558ZM90.1299 104.558H123.3V73.748H90.1299V104.558ZM124.43 104.558H159.577V73.748H124.43V104.558ZM160.707 104.558H195.854V73.748H160.707V104.558ZM196.985 104.558H231.983V73.748H196.985V104.558ZM233.262 104.558H268.261V73.748H233.262V104.558ZM269.392 104.558H304.538V73.748H269.392V104.558ZM305.669 104.558H340.814V73.748H305.669V104.558ZM341.946 104.558H377.075V73.748H341.946V104.558ZM378.206 104.558H413.352V73.748H378.206V104.558ZM414.482 104.558H447.651V73.748H414.482V104.558ZM448.782 104.558H483.929V73.748H448.782V104.558ZM485.06 104.558H520.206V73.748H485.06V104.558ZM521.337 104.558H556.335V73.748H521.337V104.558ZM557.614 104.558H592.613V73.748H557.614V104.558ZM593.744 104.558H628.891V73.748H593.744V104.558ZM630.021 104.558H665.167V73.748H630.021V104.558ZM666.298 104.558H701.427V73.748H666.298V104.558ZM702.559 104.558H737.704V73.748H702.559V104.558ZM738.835 104.558H772.004V73.748H738.835V104.558ZM773.135 104.558H808.281V73.748H773.135V104.558ZM809.412 104.558H844.559V73.748H809.412V104.558ZM845.689 104.558H880.688V73.748H845.689V104.558ZM881.967 104.558H916.965V73.748H881.967V104.558ZM918.097 104.558H953.242V73.748H918.097V104.558ZM954.374 104.558H989.52V73.748H954.374V104.558ZM990.65 104.558H1025.78V73.748H990.65V104.558ZM1026.91 104.558H1062.06V73.748H1026.91V104.558ZM1063.19 104.558H1096.36V73.748H1063.19V104.558ZM1097.49 104.558H1132.63V73.748H1097.49V104.558ZM1133.76 104.558H1168.91V73.748H1133.76V104.558ZM1170.04 104.558H1205.04V73.748H1170.04V104.558ZM1206.32 104.558H1241.32V73.748H1206.32V104.558ZM1242.45 104.558H1277.59V73.748H1242.45V104.558ZM1278.73 104.558H1313.87V73.748H1278.73V104.558ZM1315 104.558H1350.13V73.748H1315V104.558ZM17.5938 72.6162H52.7227V37.4355H17.5938V72.6162ZM53.8535 72.6162H88.999V37.4355H53.8535V72.6162ZM90.1299 72.6162H123.3V37.4355H90.1299V72.6162ZM124.43 72.6162H159.577V37.4355H124.43V72.6162ZM160.707 72.6162H195.854V37.4355H160.707V72.6162ZM196.985 72.6162H231.983V37.4355H196.985V72.6162ZM233.262 72.6162H268.261V37.4355H233.262V72.6162ZM269.392 72.6162H304.538V37.4355H269.392V72.6162ZM305.669 72.6162H340.814V37.4355H305.669V72.6162ZM341.945 72.6162H377.075V37.4355H341.945V72.6162ZM378.205 72.6162H413.352V37.4355H378.205V72.6162ZM414.482 72.6162H447.651V37.4355H414.482V72.6162ZM448.782 72.6162H483.929V37.4355H448.782V72.6162ZM485.06 72.6162H520.206V37.4355H485.06V72.6162ZM521.337 72.6162H556.335V37.4355H521.337V72.6162ZM557.614 72.6162H592.613V37.4355H557.614V72.6162ZM593.743 72.6162H628.891V37.4355H593.743V72.6162ZM630.021 72.6162H665.167V37.4355H630.021V72.6162ZM666.298 72.6162H701.427V37.4355H666.298V72.6162ZM702.558 72.6162H737.704V37.4355H702.558V72.6162ZM738.835 72.6162H772.004V37.4355H738.835V72.6162ZM773.135 72.6162H808.281V37.4355H773.135V72.6162ZM809.412 72.6162H844.559V37.4355H809.412V72.6162ZM845.689 72.6162H880.688V37.4355H845.689V72.6162ZM881.967 72.6162H916.965V37.4355H881.967V72.6162ZM918.096 72.6162H953.242V37.4355H918.096V72.6162ZM954.373 72.6162H989.52V37.4355H954.373V72.6162ZM990.65 72.6162H1025.78V37.4355H990.65V72.6162ZM1026.91 72.6162H1062.06V37.4355H1026.91V72.6162ZM1063.19 72.6162H1096.36V37.4355H1063.19V72.6162ZM1097.49 72.6162H1132.63V37.4355H1097.49V72.6162ZM1133.76 72.6162H1168.91V37.4355H1133.76V72.6162ZM1170.04 72.6162H1205.04V37.4355H1170.04V72.6162ZM1206.32 72.6162H1241.32V37.4355H1206.32V72.6162ZM1242.45 72.6162H1277.59V37.4355H1242.45V72.6162ZM1278.73 72.6162H1313.87V37.4355H1278.73V72.6162ZM1315 72.6162H1350.13V37.4355H1315V72.6162ZM17.5938 36.3037H52.7227V1.13184H17.5938V36.3037ZM53.8535 36.3037H88.999V1.13184H53.8535V36.3037ZM90.1299 36.3037H123.3V1.13184H90.1299V36.3037ZM124.43 36.3037H159.577V1.13184H124.43V36.3037ZM160.707 36.3037H195.854V1.13184H160.707V36.3037ZM196.985 36.3037H231.983V1.13184H196.985V36.3037ZM233.262 36.3037H268.261V1.13184H233.262V36.3037ZM269.392 36.3037H304.538V1.13184H269.392V36.3037ZM305.669 36.3037H340.814V1.13184H305.669V36.3037ZM341.945 36.3037H377.075V1.13184H341.945V36.3037ZM378.205 36.3037H413.352V1.13184H378.205V36.3037ZM414.482 36.3037H447.651V1.13184H414.482V36.3037ZM448.782 36.3037H483.929V1.13184H448.782V36.3037ZM485.06 36.3037H520.206V1.13184H485.06V36.3037ZM521.337 36.3037H556.335V1.13184H521.337V36.3037ZM557.614 36.3037H592.613V1.13184H557.614V36.3037ZM593.743 36.3037H628.891V1.13184H593.743V36.3037ZM630.021 36.3037H665.167V1.13184H630.021V36.3037ZM666.298 36.3037H701.427V1.13184H666.298V36.3037ZM702.558 36.3037H737.704V1.13184H702.558V36.3037ZM738.835 36.3037H772.004V1.13184H738.835V36.3037ZM773.135 36.3037H808.281V1.13184H773.135V36.3037ZM809.412 36.3037H844.559V1.13184H809.412V36.3037ZM845.689 36.3037H880.688V1.13184H845.689V36.3037ZM881.967 36.3037H916.965V1.13184H881.967V36.3037ZM918.096 36.3037H953.242V1.13184H918.096V36.3037ZM954.373 36.3037H989.52V1.13184H954.373V36.3037ZM990.65 36.3037H1025.78V1.13184H990.65V36.3037ZM1026.91 36.3037H1062.06V1.13184H1026.91V36.3037ZM1063.19 36.3037H1096.36V1.13184H1063.19V36.3037ZM1097.49 36.3037H1132.63V1.13184H1097.49V36.3037ZM1133.76 36.3037H1168.91V1.13184H1133.76V36.3037ZM1170.04 36.3037H1205.04V1.13184H1170.04V36.3037ZM1206.32 36.3037H1241.32V1.13184H1206.32V36.3037ZM1242.45 36.3037H1277.59V1.13184H1242.45V36.3037ZM1278.73 36.3037H1313.87V1.13184H1278.73V36.3037ZM1315 36.3037H1350.13V1.13184H1315V36.3037Z" fill="url(#paint0_linear_1463_27886)"/>
<defs>
<linearGradient id="paint0_linear_1463_27886" x1="715.217" y1="-0.000244141" x2="715.217" y2="1177" gradientUnits="userSpaceOnUse">
<stop stop-color="#B7D1FF"/>
<stop offset="1" stop-color="#B7D1FF" stop-opacity="0"/>
</linearGradient>
</defs>
</svg>
