<svg width="93" height="93" viewBox="0 0 93 93" fill="none" xmlns="http://www.w3.org/2000/svg">
<path d="M46.5713 0C72.2131 0 93 20.7869 93 46.4287C92.9999 72.0705 72.2131 92.8574 46.5713 92.8574C20.9296 92.8574 0.142636 72.0704 0.142578 46.4287C0.142578 20.7869 20.9295 6.16556e-05 46.5713 0ZM37.0615 23.2139C34.5445 23.2139 32.8662 23.7737 31.4678 24.333C30.0694 24.8924 28.6708 25.7315 27.2725 27.1299C25.8741 28.5283 25.3146 29.6471 24.4756 31.3252C23.9162 32.7236 23.6371 34.4019 23.3574 36.9189V55.9385C23.3575 58.4555 23.9162 60.1338 24.4756 61.5322C25.035 62.9306 25.8741 64.3292 27.2725 65.7275C28.6709 67.1259 29.7897 67.6854 31.4678 68.5244C32.8661 69.0838 34.5446 69.3629 37.0615 69.6426H56.0811C58.5982 69.6426 60.2764 69.0838 61.6748 68.5244C63.0732 67.965 64.4717 67.1259 65.8701 65.7275C67.2685 64.3292 67.828 63.2102 68.667 61.5322C69.2263 60.1338 69.5065 58.4555 69.7861 55.9385V36.9189C69.7861 34.4018 69.2264 32.7236 68.667 31.3252C68.1076 29.9268 67.2685 28.5283 65.8701 27.1299C64.4717 25.7315 63.3529 25.1721 61.6748 24.333C60.2764 23.7736 58.5982 23.4936 56.0811 23.2139H37.0615ZM56.0811 27.4092C58.3185 27.4092 59.4373 27.9693 60.2764 28.249C61.395 28.8083 62.2342 29.0877 63.0732 29.9268C63.9123 30.7658 64.4713 31.605 64.751 32.7236C65.0307 33.5627 65.3111 34.6815 65.5908 36.9189V55.9385C65.5908 58.1757 65.0307 59.2948 64.751 60.1338C64.1917 61.2523 63.9122 62.0917 63.0732 62.9307C62.2342 63.7696 61.395 64.3287 60.2764 64.6084C59.4373 64.8881 58.3184 65.1676 56.0811 65.4473H37.0615C34.8243 65.4472 33.7052 64.8881 32.8662 64.6084C31.7476 64.0491 30.9083 63.7697 30.0693 62.9307C29.2304 62.0917 28.6713 61.2524 28.3916 60.1338C28.1119 59.2948 27.8324 58.1757 27.5527 55.9385V36.9189C27.5528 34.6815 28.1119 33.5627 28.3916 32.7236C28.9509 31.605 29.2304 30.7658 30.0693 29.9268C30.9083 29.0878 31.7477 28.5287 32.8662 28.249C33.7052 27.9693 34.8242 27.6889 37.0615 27.4092H56.0811ZM46.5713 34.4023C39.8588 34.4024 34.5449 39.7162 34.5449 46.4287C34.545 53.1412 39.8588 58.455 46.5713 58.4551C53.2838 58.4551 58.5976 53.1412 58.5977 46.4287C58.5977 39.7161 53.2839 34.4023 46.5713 34.4023ZM46.5713 38.5977C50.7666 38.5977 54.4023 41.9537 54.4023 46.4287C54.4023 50.624 50.7666 54.2598 46.5713 54.2598C42.376 54.2597 38.7403 50.9037 38.7402 46.4287C38.7402 42.2334 42.0963 38.5977 46.5713 38.5977ZM58.8779 31.3252C57.3333 31.3252 56.0811 32.5775 56.0811 34.1221C56.0811 35.6668 57.3332 36.9189 58.8779 36.9189C60.4225 36.9189 61.6748 35.6667 61.6748 34.1221C61.6747 32.5775 60.4225 31.3253 58.8779 31.3252Z" fill="#12172E"/>
</svg>
