<svg width="201" height="50" viewBox="0 0 201 50" fill="none" xmlns="http://www.w3.org/2000/svg">
<path d="M200.55 25.0002C200.55 30.6781 196.211 35.0167 190.408 35.0167C184.618 35.0167 180.266 30.6781 180.266 25.0002C180.266 19.3502 184.618 14.9976 190.408 14.9976C196.211 14.9976 200.55 19.3502 200.55 25.0002ZM198.025 25.0002C198.025 20.6476 194.844 17.3552 190.408 17.3552C185.971 17.3552 182.791 20.6476 182.791 25.0002C182.791 29.3667 185.971 32.659 190.408 32.659C194.844 32.659 198.025 29.3667 198.025 25.0002Z" fill="#12172E"/>
<path d="M176.903 15.0117H179.596L171.407 35.0169H168.91L160.721 15.0117H163.413L170.151 31.6269L176.903 15.0117Z" fill="#12172E"/>
<path d="M160.066 25.0002C160.066 30.6781 155.727 35.0167 149.923 35.0167C144.134 35.0167 139.781 30.6781 139.781 25.0002C139.781 19.3502 144.134 14.9976 149.923 14.9976C155.727 14.9976 160.066 19.3502 160.066 25.0002ZM157.54 25.0002C157.54 20.6476 154.36 17.3552 149.923 17.3552C145.487 17.3552 142.306 20.6476 142.306 25.0002C142.306 29.3667 145.487 32.659 149.923 32.659C154.36 32.659 157.54 29.3667 157.54 25.0002Z" fill="#12172E"/>
<path d="M122.387 14.9976H138.849V17.3413H131.859V35.0167H129.362V17.3413H122.387V14.9976Z" fill="#12172E"/>
<path d="M104.974 35.0167H102.477V14.9976H103.802L116.999 30.2874V14.9976H119.482V35.0167H118.171L104.974 19.7129V35.0167Z" fill="#12172E"/>
<path d="M95.9473 35.0167V14.9976H98.4444V35.0167H95.9473Z" fill="#12172E"/>
<path d="M79.7117 35.0169H77.2285V15.0117H86.1291C87.5241 15.0117 88.3891 15.221 89.1424 15.5976C90.9978 16.4486 92.2115 18.2762 92.2115 20.5362C92.2115 21.7638 91.8488 22.8799 91.1931 23.7867C90.5793 24.6376 89.7562 25.2515 88.7936 25.6142C88.417 25.7537 88.0124 25.8653 87.552 25.949L93.1323 35.0169H90.2306L84.8316 26.0467H79.7117V35.0169ZM79.7117 23.7448H85.864C86.8405 23.7448 87.3428 23.6472 87.8031 23.4518C88.9331 22.9775 89.7562 21.9452 89.7562 20.5501C89.7562 19.183 88.9471 18.1367 87.8031 17.6484C87.3428 17.4531 86.8405 17.3554 85.864 17.3554H79.7117V23.7448Z" fill="#12172E"/>
<path d="M61.825 23.7448H67.9912C68.9538 23.7448 69.456 23.6332 69.9164 23.4518C71.0604 22.9636 71.8695 21.9312 71.8695 20.5501C71.8695 19.169 71.0604 18.1227 69.9164 17.6484C69.47 17.4531 68.9538 17.3554 67.9773 17.3554H61.825V23.7448ZM61.825 35.0169H59.3418V15.0117H68.2563C69.6374 15.0117 70.5023 15.221 71.2557 15.5837C73.1251 16.4486 74.3388 18.2762 74.3388 20.5362C74.3388 22.7543 73.1251 24.5958 71.2417 25.4747C70.5023 25.8374 69.6374 26.0467 68.2563 26.0467H61.825V35.0169Z" fill="#12172E"/>
<path d="M15.4004 3.49L0.527596 12.1121C0.201119 12.3014 0 12.6512 0 13.0297V20.1934L6.12187 19.8781C10.9301 19.6305 14.7731 15.7717 15.0197 10.9437L15.4004 3.49Z" fill="#5541BA"/>
<path d="M0 22.0718V36.9701C0 37.3486 0.201118 37.6984 0.527595 37.8876L15.8076 46.7458L15.0197 31.3215C14.7731 26.4935 10.9301 22.6348 6.12188 22.3871L0 22.0718Z" fill="#5541BA"/>
<path d="M16.704 47.2655L21.1757 49.8578C21.5022 50.0471 21.9044 50.0471 22.2309 49.8578L42.879 37.8876C43.2055 37.6984 43.4066 37.3486 43.4066 36.9701V21.512L26.4163 22.3871C21.608 22.6348 17.7651 26.4935 17.5184 31.3215L16.704 47.2655Z" fill="#5541BA"/>
<path d="M43.4066 20.7532V13.0297C43.4066 12.6512 43.2055 12.3014 42.879 12.1121L22.2309 0.14195C21.9044 -0.0473164 21.5022 -0.0473168 21.1757 0.14195L17.0877 2.51185L17.5184 10.9437C17.7651 15.7717 21.608 19.6305 26.4162 19.8781L43.4066 20.7532Z" fill="#5541BA"/>
</svg>
