<svg width="88" height="88" viewBox="0 0 88 88" fill="none" xmlns="http://www.w3.org/2000/svg">
<path d="M44.4727 0.473633C68.5116 0.473858 87.999 19.961 87.999 44C87.999 68.039 68.5116 87.5261 44.4727 87.5264C20.4335 87.5264 0.945312 68.0392 0.945312 44C0.945313 19.9608 20.4335 0.473633 44.4727 0.473633ZM30.3262 24.8486C26.3455 24.8486 23.5791 28.5416 23.5791 32.4795V55.5205C23.5791 59.4584 26.3455 63.1514 30.3262 63.1514H60.3594C64.34 63.1514 67.1064 59.4584 67.1064 55.5205V32.4795C67.1064 28.5416 64.34 24.8486 60.3594 24.8486H30.3262ZM44.1611 47.0059C44.8115 47.6071 45.8098 47.6254 46.4805 47.0469L49.0342 44.8438C49.0679 44.9045 49.1048 44.9641 49.1465 45.0215L49.2588 45.1611L61.5654 58.9131L61.6904 59.0391C61.7462 59.09 61.8056 59.1363 61.8662 59.1787C61.3894 59.4969 60.8664 59.6699 60.3594 59.6699H30.3262C30.0859 59.6699 29.8429 59.6267 29.6016 59.5527L41.4727 45.1055C41.5677 44.9897 41.6436 44.8641 41.7041 44.7344L44.1611 47.0059ZM39.2695 42.4854C39.0886 42.5878 38.9231 42.7244 38.7832 42.8945L27.252 56.9287C27.1314 56.5015 27.0615 56.0301 27.0615 55.5205V32.4795C27.0615 32.0666 27.1095 31.6787 27.1904 31.3193L39.2695 42.4854ZM63.624 32.4795V55.5205C63.624 55.6734 63.6153 55.8239 63.6035 55.9697L51.8535 42.8389L51.7275 42.7129C51.6907 42.6793 51.6523 42.648 51.6133 42.6182L63.6143 32.2627C63.617 32.3337 63.624 32.4069 63.624 32.4795ZM60.3594 28.3301C60.946 28.3301 61.5565 28.5579 62.0889 28.9795L45.3818 43.3926L29.3213 28.5479C29.6518 28.4068 29.9923 28.3301 30.3262 28.3301H60.3594Z" fill="#12172E"/>
</svg>
