<svg width="88" height="88" viewBox="0 0 88 88" fill="none" xmlns="http://www.w3.org/2000/svg">
<path d="M43.5264 0.473633C67.5655 0.473633 87.0537 19.9608 87.0537 44C87.0537 68.0392 67.5655 87.5264 43.5264 87.5264C19.4874 87.5261 0 68.039 0 44C5.96015e-07 19.961 19.4874 0.47386 43.5264 0.473633ZM30.9336 23.1074C29.9659 23.1076 29.1252 23.5147 28.4561 24.0557L28.1787 24.2959L28.1396 24.333L24.6152 27.8115C23.6077 28.8058 22.9849 29.984 22.752 31.3398L22.6768 31.9316L22.6748 31.9385C22.5144 33.8719 22.8245 35.8353 23.5859 38.0967L23.9404 39.085C25.5848 43.4678 28.0565 47.5117 31.6797 51.8213L31.6846 51.8281C36.1106 57.0421 41.4452 61.1635 47.5215 64.0664L47.5273 64.0703C49.7055 65.0984 52.8075 66.4017 56.2217 66.6182V66.6201C56.4436 66.6347 56.6679 66.6338 56.8115 66.6338C58.8771 66.6336 60.5717 65.9337 61.9609 64.4678L62.0176 64.4062L62.7217 63.6602C63.0379 63.3369 63.4162 62.9597 63.793 62.5859C64.1561 62.2256 64.4996 61.8866 64.7529 61.6387C64.8795 61.5148 64.9837 61.4129 65.0557 61.3428C65.0915 61.3079 65.1207 61.2811 65.1396 61.2627C65.1489 61.2537 65.1544 61.2449 65.1592 61.2402C65.1615 61.238 65.1648 61.2365 65.166 61.2354L65.168 61.2334L65.3633 61.0078C65.4218 60.9271 65.4745 60.8409 65.5186 60.751V60.749L65.5205 60.748C65.5212 60.7466 65.5207 60.7439 65.5215 60.7422C65.5232 60.7387 65.5262 60.735 65.5283 60.7305C65.5327 60.7214 65.5378 60.7096 65.5439 60.6963C65.5564 60.6694 65.573 60.6335 65.5918 60.5908C65.6292 60.5057 65.6773 60.389 65.7305 60.248C65.8354 59.9697 65.9683 59.5695 66.0576 59.1123C66.21 58.3316 66.3642 56.7228 65.1611 55.5469H65.1592L59.4707 49.9307L59.4502 49.9102H59.4482C59.0065 49.4493 58.1612 48.7614 56.9883 48.6738L56.7383 48.6641C55.5439 48.6641 54.6388 49.3072 54.1416 49.7539L53.9551 49.9307L51.9277 51.9316C51.7858 52.0716 51.6886 52.1337 51.5791 52.1338C51.5407 52.1337 51.4777 52.1267 51.3496 52.0664C51.3475 52.0652 51.3449 52.0638 51.3428 52.0625C51.3239 52.0514 51.2984 52.0375 51.2686 52.0215C51.0996 51.9207 50.924 51.8229 50.75 51.7324L50.1787 51.4453C49.9668 51.3407 49.7713 51.2444 49.5869 51.1475L49.0596 50.8467H49.0576C46.1177 49.0118 43.412 46.6372 40.8184 43.5918L40.3018 42.9746C40.2985 42.9706 40.2934 42.9668 40.29 42.9629C38.811 41.1071 37.8846 39.6106 37.2344 38.0713C37.2334 38.0684 37.2324 38.0654 37.2314 38.0625C37.1672 37.8598 37.1668 37.7842 37.1699 37.7568C37.1707 37.7502 37.1739 37.7391 37.1855 37.7158C37.192 37.7029 37.204 37.6793 37.2275 37.6475L37.3369 37.5234C37.5428 37.3415 37.6461 37.253 37.6973 37.2109C37.721 37.1915 37.7332 37.1814 37.7393 37.1768C37.7472 37.1706 37.7445 37.1729 37.7598 37.1611C37.7705 37.1529 37.7918 37.1363 37.8154 37.1172C37.9252 37.0282 38.0142 36.9384 38.0762 36.876C38.1433 36.8084 38.2648 36.6845 38.4521 36.4951C38.7648 36.1972 39.0942 35.8612 39.3633 35.5957L39.625 35.3223C40.2226 34.655 40.7031 33.8046 40.7031 32.7744C40.7028 31.7448 40.2224 30.8965 39.625 30.2295L39.3633 29.9541L36.541 27.1689C36.3766 27.0018 36.212 26.8383 36.0547 26.6807L35.5781 26.2002C35.2612 25.8772 34.9464 25.5584 34.6279 25.2441L33.6553 24.3125C33.2086 23.8743 32.2637 23.1076 30.9336 23.1074ZM30.9805 26.6152C31.0485 26.6521 31.133 26.7152 31.2207 26.8018L31.251 26.832L31.2939 26.873L32.1816 27.7217C32.4783 28.0144 32.7791 28.318 33.0928 28.6377L33.5889 29.1396C33.7537 29.3049 33.9153 29.4662 34.0752 29.6289L34.0938 29.6484L36.916 32.4326L37.126 32.666C37.1605 32.711 37.1819 32.7477 37.1973 32.7744C37.1819 32.8013 37.1612 32.8399 37.126 32.8857L36.916 33.1182C36.5859 33.444 36.3364 33.7005 36.0498 33.9736L36.0137 34.0088C35.7874 34.2374 35.6786 34.3492 35.6055 34.4229C35.6009 34.4274 35.5956 34.4308 35.5918 34.4346C35.5631 34.457 35.5291 34.4863 35.4863 34.5215C35.3868 34.6033 35.242 34.726 35.0107 34.9307C34.9794 34.9572 34.8997 35.0251 34.8066 35.1328C34.1534 35.8104 33.8036 36.5712 33.7119 37.3516C33.6223 38.1167 33.7979 38.7597 33.917 39.1318L33.9414 39.2031C33.9465 39.2181 33.9529 39.234 33.958 39.249C33.9711 39.2878 33.9852 39.3275 34.001 39.3652L34.3223 40.0879C35.1069 41.7631 36.1518 43.3604 37.585 45.1562C37.5932 45.1665 37.6039 45.1755 37.6123 45.1855V45.1865C40.5675 48.779 43.7141 51.616 47.2148 53.8008V53.7988C47.7241 54.1174 48.2349 54.3696 48.6377 54.5684L49.1445 54.8223C49.2895 54.8974 49.4131 54.9662 49.5225 55.0332L49.6621 55.1094L49.583 55.0674L49.6445 55.1045C49.6762 55.123 49.726 55.151 49.7861 55.1807L50.2109 55.3643C50.6437 55.5254 51.0977 55.6162 51.5791 55.6162C53.1851 55.6161 54.1635 54.616 54.373 54.4092L56.3994 52.4092L56.5547 52.2734C56.604 52.2347 56.6513 52.2028 56.6943 52.1787C56.7102 52.1699 56.7236 52.1631 56.7344 52.1582C56.7372 52.1597 56.7419 52.1612 56.7451 52.1631C56.8044 52.1969 56.878 52.2563 56.9473 52.3311L57.0029 52.3887L57.0156 52.3994C57.018 52.4018 57.0207 52.4045 57.0254 52.4092L62.6719 57.9814L62.6768 58.1631C62.6725 58.2405 62.6612 58.335 62.6396 58.4453C62.601 58.643 62.5397 58.8351 62.4834 58.9883C62.4341 59.0364 62.3787 59.0904 62.3184 59.1494C62.0613 59.401 61.7114 59.7457 61.3408 60.1133C60.6595 60.7893 59.8352 61.6203 59.4346 62.0742C58.736 62.8112 57.9702 63.1512 56.8115 63.1514L56.4492 63.1445H56.4443C53.7223 62.9725 51.1201 61.9154 49.0205 60.9248H49.0225C43.3981 58.2378 38.4562 54.423 34.3438 49.5801C31.1323 45.76 28.9617 42.2616 27.4854 38.5928L27.1992 37.8574L27.1963 37.8516L26.8867 36.9863C26.2308 35.0386 26.0359 33.5645 26.1455 32.2324C26.213 31.4529 26.4951 30.8482 27.0596 30.291L30.5664 26.832C30.7689 26.6487 30.8918 26.6027 30.9307 26.5918C30.9404 26.5952 30.9566 26.6023 30.9805 26.6152Z" fill="#12172E"/>
</svg>
