<svg width="93" height="93" viewBox="0 0 93 93" fill="none" xmlns="http://www.w3.org/2000/svg">
<path d="M46.4287 0C72.0705 5.36024e-05 92.8574 20.7869 92.8574 46.4287C92.8574 72.0704 72.0704 92.8574 46.4287 92.8574C20.7869 92.8574 5.77332e-05 72.0705 0 46.4287C0 20.7869 20.7869 0 46.4287 0ZM65 29.2549C64.9997 26.8311 61.7803 28.2959 61.7803 28.2959L22.6084 44.209C22.5899 44.2156 20.7549 44.8712 20.9014 46.0781C21.0461 47.2828 22.5427 47.8408 22.5586 47.8467L32.168 51.1943L57.0742 34.8154C58.3986 33.9831 59.1065 34.6392 57.9658 35.7412C57.228 36.4536 40.3679 52.1518 38.1934 54.1738L38.2676 54.2109L54.3652 66.9932C57.0388 68.2006 58.0176 65.6938 58.0234 65.6787L65 29.2549Z" fill="#12172E"/>
</svg>
