<svg width="94" height="93" viewBox="0 0 94 93" fill="none" xmlns="http://www.w3.org/2000/svg">
<path d="M46.999 0C72.6408 0 93.4277 20.7869 93.4277 46.4287C93.4277 72.0705 72.6408 92.8574 46.999 92.8574C21.3573 92.8574 0.57037 72.0705 0.570312 46.4287C0.570312 20.7869 21.3572 4.02663e-06 46.999 0ZM21.4629 30.1787C21.8776 50.479 31.8312 62.6787 49.2803 62.6787H50.2686V51.0645C53.3464 51.4597 56.2415 52.7728 58.5908 54.8389C60.9401 56.9049 62.6396 59.6321 63.4756 62.6787H72.5352C71.6039 59.1711 69.9533 55.9042 67.6934 53.0947C65.4334 50.2854 62.6147 47.9969 59.4238 46.3799C62.2826 44.6102 64.7531 42.2574 66.6797 39.4697C68.6061 36.6822 69.948 33.5192 70.6211 30.1787H62.3906C60.6042 36.6201 55.3087 42.4762 50.2686 43.0293V30.1787H42.0391V52.6914C36.9351 51.3901 30.4912 45.0785 30.2041 30.1787H21.4629Z" fill="#12172E"/>
</svg>
